solid OpenSCAD_Model
  facet normal -1 0 0
    outer loop
      vertex -3 10 0
      vertex -3 10 1
      vertex -3 30 0
    endloop
  endfacet
  facet normal -1 0 0
    outer loop
      vertex -3 30 0
      vertex -3 10 1
      vertex -3 30 1
    endloop
  endfacet
  facet normal 0 -1 0
    outer loop
      vertex -3 10 1
      vertex -3 10 0
      vertex 0 10 0
    endloop
  endfacet
  facet normal 0 -1 0
    outer loop
      vertex 0 10 1
      vertex -3 10 1
      vertex 0 10 0
    endloop
  endfacet
  facet normal 0 0 -1
    outer loop
      vertex -3 10 0
      vertex -3 30 0
      vertex 0 10 0
    endloop
  endfacet
  facet normal 0 0 -1
    outer loop
      vertex 0 10 0
      vertex -3 30 0
      vertex 0 30 0
    endloop
  endfacet
  facet normal 0 0 -1
    outer loop
      vertex 0 30 0
      vertex 0 40 0
      vertex 20 40 0
    endloop
  endfacet
  facet normal 0 0 -1
    outer loop
      vertex 0 30 0
      vertex 20 40 0
      vertex 0 10 0
    endloop
  endfacet
  facet normal 0 0 -1
    outer loop
      vertex 0 10 0
      vertex 20 40 0
      vertex 20 37 0
    endloop
  endfacet
  facet normal 0 0 -1
    outer loop
      vertex 0 10 0
      vertex 20 37 0
      vertex 40 37 0
    endloop
  endfacet
  facet normal 0 0 -1
    outer loop
      vertex 40 37 0
      vertex 40 40 0
      vertex 60 40 0
    endloop
  endfacet
  facet normal 0 0 -1
    outer loop
      vertex 40 37 0
      vertex 60 40 0
      vertex 0 10 0
    endloop
  endfacet
  facet normal 0 0 -1
    outer loop
      vertex 0 10 0
      vertex 60 40 0
      vertex 60 37 0
    endloop
  endfacet
  facet normal 0 0 -1
    outer loop
      vertex 0 10 0
      vertex 60 37 0
      vertex 80 37 0
    endloop
  endfacet
  facet normal 0 0 -1
    outer loop
      vertex 80 37 0
      vertex 80 40 0
      vertex 100 40 0
    endloop
  endfacet
  facet normal 0 0 -1
    outer loop
      vertex 80 37 0
      vertex 100 40 0
      vertex 0 10 0
    endloop
  endfacet
  facet normal 0 0 -1
    outer loop
      vertex 0 10 0
      vertex 100 40 0
      vertex 100 37 0
    endloop
  endfacet
  facet normal 0 0 -1
    outer loop
      vertex 0 10 0
      vertex 100 37 0
      vertex 120 37 0
    endloop
  endfacet
  facet normal 0 0 -1
    outer loop
      vertex 120 37 0
      vertex 120 40 0
      vertex 145 40 0
    endloop
  endfacet
  facet normal 0 0 -1
    outer loop
      vertex 120 37 0
      vertex 145 40 0
      vertex 0 10 0
    endloop
  endfacet
  facet normal 0 0 -1
    outer loop
      vertex 0 10 0
      vertex 145 40 0
      vertex 145 37 0
    endloop
  endfacet
  facet normal 0 0 -1
    outer loop
      vertex 0 10 0
      vertex 145 37 0
      vertex 165 37 0
    endloop
  endfacet
  facet normal 0 0 -1
    outer loop
      vertex 165 37 0
      vertex 165 40 0
      vertex 190 40 0
    endloop
  endfacet
  facet normal 0 0 -1
    outer loop
      vertex 165 37 0
      vertex 190 40 0
      vertex 0 10 0
    endloop
  endfacet
  facet normal 0 0 -1
    outer loop
      vertex 0 10 0
      vertex 190 40 0
      vertex 190 37 0
    endloop
  endfacet
  facet normal 0 0 -1
    outer loop
      vertex 0 10 0
      vertex 190 37 0
      vertex 210 37 0
    endloop
  endfacet
  facet normal 0 0 -1
    outer loop
      vertex 210 37 0
      vertex 210 40 0
      vertex 230 40 0
    endloop
  endfacet
  facet normal 0 0 -1
    outer loop
      vertex 210 37 0
      vertex 230 40 0
      vertex 230 37 0
    endloop
  endfacet
  facet normal 0 0 -1
    outer loop
      vertex 210 37 0
      vertex 230 37 0
      vertex 0 10 0
    endloop
  endfacet
  facet normal 0 0 -1
    outer loop
      vertex 230 37 0
      vertex 250 37 0
      vertex 0 10 0
    endloop
  endfacet
  facet normal 0 0 -1
    outer loop
      vertex 250 37 0
      vertex 250 40 0
      vertex 270 40 0
    endloop
  endfacet
  facet normal 0 0 -1
    outer loop
      vertex 250 37 0
      vertex 270 40 0
      vertex 270 37 0
    endloop
  endfacet
  facet normal 0 0 -1
    outer loop
      vertex 250 37 0
      vertex 270 37 0
      vertex 0 10 0
    endloop
  endfacet
  facet normal 0 0 -1
    outer loop
      vertex 270 37 0
      vertex 290 37 0
      vertex 0 10 0
    endloop
  endfacet
  facet normal 0 0 -1
    outer loop
      vertex 290 37 0
      vertex 290 40 0
      vertex 310 40 0
    endloop
  endfacet
  facet normal 0 0 -1
    outer loop
      vertex 290 37 0
      vertex 310 40 0
      vertex 310 30 0
    endloop
  endfacet
  facet normal 0 0 -1
    outer loop
      vertex 290 37 0
      vertex 310 30 0
      vertex 0 10 0
    endloop
  endfacet
  facet normal 0 0 -1
    outer loop
      vertex 310 30 0
      vertex 313 30 0
      vertex 0 10 0
    endloop
  endfacet
  facet normal 0 0 -1
    outer loop
      vertex 310 10 0
      vertex 313 30 0
      vertex 313 10 0
    endloop
  endfacet
  facet normal 0 0 -1
    outer loop
      vertex 0 10 0
      vertex 313 30 0
      vertex 310 10 0
    endloop
  endfacet
  facet normal 0 0 -1
    outer loop
      vertex 290 3 0
      vertex 310 0 0
      vertex 290 0 0
    endloop
  endfacet
  facet normal 0 0 -1
    outer loop
      vertex 165 3 0
      vertex 0 10 0
      vertex 190 3 0
    endloop
  endfacet
  facet normal 0 0 -1
    outer loop
      vertex 310 10 0
      vertex 310 0 0
      vertex 290 3 0
    endloop
  endfacet
  facet normal 0 0 -1
    outer loop
      vertex 310 10 0
      vertex 290 3 0
      vertex 0 10 0
    endloop
  endfacet
  facet normal 0 0 -1
    outer loop
      vertex 190 3 0
      vertex 0 10 0
      vertex 210 3 0
    endloop
  endfacet
  facet normal 0 0 -1
    outer loop
      vertex 290 3 0
      vertex 270 3 0
      vertex 0 10 0
    endloop
  endfacet
  facet normal 0 0 -1
    outer loop
      vertex 145 3 0
      vertex 0 10 0
      vertex 165 3 0
    endloop
  endfacet
  facet normal 0 0 -1
    outer loop
      vertex 270 3 0
      vertex 250 3 0
      vertex 0 10 0
    endloop
  endfacet
  facet normal 0 0 -1
    outer loop
      vertex 80 3 0
      vertex 0 10 0
      vertex 100 3 0
    endloop
  endfacet
  facet normal 0 0 -1
    outer loop
      vertex 250 3 0
      vertex 230 3 0
      vertex 0 10 0
    endloop
  endfacet
  facet normal 0 0 -1
    outer loop
      vertex 210 3 0
      vertex 0 10 0
      vertex 230 3 0
    endloop
  endfacet
  facet normal 0 0 -1
    outer loop
      vertex 250 3 0
      vertex 270 0 0
      vertex 250 0 0
    endloop
  endfacet
  facet normal 0 0 -1
    outer loop
      vertex 210 3 0
      vertex 230 0 0
      vertex 210 0 0
    endloop
  endfacet
  facet normal 0 0 -1
    outer loop
      vertex 165 3 0
      vertex 190 0 0
      vertex 165 0 0
    endloop
  endfacet
  facet normal 0 0 -1
    outer loop
      vertex 80 3 0
      vertex 100 0 0
      vertex 80 0 0
    endloop
  endfacet
  facet normal 0 0 -1
    outer loop
      vertex 60 0 0
      vertex 40 0 0
      vertex 40 3 0
    endloop
  endfacet
  facet normal 0 0 -1
    outer loop
      vertex 270 0 0
      vertex 250 3 0
      vertex 270 3 0
    endloop
  endfacet
  facet normal 0 0 -1
    outer loop
      vertex 230 0 0
      vertex 210 3 0
      vertex 230 3 0
    endloop
  endfacet
  facet normal 0 0 -1
    outer loop
      vertex 190 0 0
      vertex 165 3 0
      vertex 190 3 0
    endloop
  endfacet
  facet normal 0 0 -1
    outer loop
      vertex 120 3 0
      vertex 0 10 0
      vertex 145 3 0
    endloop
  endfacet
  facet normal 0 0 -1
    outer loop
      vertex 145 0 0
      vertex 120 3 0
      vertex 145 3 0
    endloop
  endfacet
  facet normal 0 0 -1
    outer loop
      vertex 100 3 0
      vertex 0 10 0
      vertex 120 3 0
    endloop
  endfacet
  facet normal 0 0 -1
    outer loop
      vertex 120 3 0
      vertex 145 0 0
      vertex 120 0 0
    endloop
  endfacet
  facet normal 0 0 -1
    outer loop
      vertex 100 0 0
      vertex 80 3 0
      vertex 100 3 0
    endloop
  endfacet
  facet normal 0 0 -1
    outer loop
      vertex 60 3 0
      vertex 0 10 0
      vertex 80 3 0
    endloop
  endfacet
  facet normal 0 0 -1
    outer loop
      vertex 60 0 0
      vertex 0 10 0
      vertex 60 3 0
    endloop
  endfacet
  facet normal 0 0 -1
    outer loop
      vertex 20 3 0
      vertex 0 10 0
      vertex 40 3 0
    endloop
  endfacet
  facet normal 0 0 -1
    outer loop
      vertex 0 10 0
      vertex 60 0 0
      vertex 40 3 0
    endloop
  endfacet
  facet normal 0 0 -1
    outer loop
      vertex 0 10 0
      vertex 20 3 0
      vertex 20 0 0
    endloop
  endfacet
  facet normal 0 0 -1
    outer loop
      vertex 0 10 0
      vertex 20 0 0
      vertex 0 0 0
    endloop
  endfacet
  facet normal 0 1 0
    outer loop
      vertex -3 30 0
      vertex -3 30 1
      vertex 0 30 0
    endloop
  endfacet
  facet normal 0 1 0
    outer loop
      vertex 0 30 0
      vertex -3 30 1
      vertex 0 30 1
    endloop
  endfacet
  facet normal 0 0 1
    outer loop
      vertex 20 3 1
      vertex 40 3 1
      vertex -3 30 1
    endloop
  endfacet
  facet normal 0 0 1
    outer loop
      vertex -3 30 1
      vertex -3 10 1
      vertex 0 10 1
    endloop
  endfacet
  facet normal 0 0 1
    outer loop
      vertex 20 0 1
      vertex -3 30 1
      vertex 0 10 1
    endloop
  endfacet
  facet normal 0 0 1
    outer loop
      vertex 0 0 1
      vertex 20 0 1
      vertex 0 10 1
    endloop
  endfacet
  facet normal 0 0 1
    outer loop
      vertex 20 0 1
      vertex 20 3 1
      vertex -3 30 1
    endloop
  endfacet
  facet normal 0 0 1
    outer loop
      vertex 40 3 1
      vertex 60 0 1
      vertex -3 30 1
    endloop
  endfacet
  facet normal 0 0 1
    outer loop
      vertex 60 3 1
      vertex 80 3 1
      vertex -3 30 1
    endloop
  endfacet
  facet normal 0 0 1
    outer loop
      vertex 40 0 1
      vertex 60 0 1
      vertex 40 3 1
    endloop
  endfacet
  facet normal 0 0 1
    outer loop
      vertex 60 0 1
      vertex 60 3 1
      vertex -3 30 1
    endloop
  endfacet
  facet normal 0 0 1
    outer loop
      vertex 80 3 1
      vertex 100 0 1
      vertex -3 30 1
    endloop
  endfacet
  facet normal 0 0 1
    outer loop
      vertex 100 3 1
      vertex 120 3 1
      vertex -3 30 1
    endloop
  endfacet
  facet normal 0 0 1
    outer loop
      vertex 80 0 1
      vertex 100 0 1
      vertex 80 3 1
    endloop
  endfacet
  facet normal 0 0 1
    outer loop
      vertex 100 0 1
      vertex 100 3 1
      vertex -3 30 1
    endloop
  endfacet
  facet normal 0 0 1
    outer loop
      vertex 120 3 1
      vertex 145 0 1
      vertex -3 30 1
    endloop
  endfacet
  facet normal 0 0 1
    outer loop
      vertex 145 3 1
      vertex 165 3 1
      vertex -3 30 1
    endloop
  endfacet
  facet normal 0 0 1
    outer loop
      vertex 120 0 1
      vertex 145 0 1
      vertex 120 3 1
    endloop
  endfacet
  facet normal 0 0 1
    outer loop
      vertex 145 0 1
      vertex 145 3 1
      vertex -3 30 1
    endloop
  endfacet
  facet normal 0 0 1
    outer loop
      vertex 165 3 1
      vertex 190 0 1
      vertex -3 30 1
    endloop
  endfacet
  facet normal 0 0 1
    outer loop
      vertex 190 3 1
      vertex 210 3 1
      vertex -3 30 1
    endloop
  endfacet
  facet normal 0 0 1
    outer loop
      vertex 165 0 1
      vertex 190 0 1
      vertex 165 3 1
    endloop
  endfacet
  facet normal 0 0 1
    outer loop
      vertex 190 0 1
      vertex 190 3 1
      vertex -3 30 1
    endloop
  endfacet
  facet normal 0 0 1
    outer loop
      vertex 210 3 1
      vertex 230 3 1
      vertex -3 30 1
    endloop
  endfacet
  facet normal 0 0 1
    outer loop
      vertex 250 3 1
      vertex 270 3 1
      vertex -3 30 1
    endloop
  endfacet
  facet normal 0 0 1
    outer loop
      vertex 210 0 1
      vertex 230 0 1
      vertex 210 3 1
    endloop
  endfacet
  facet normal 0 0 1
    outer loop
      vertex 230 0 1
      vertex 230 3 1
      vertex 210 3 1
    endloop
  endfacet
  facet normal 0 0 1
    outer loop
      vertex 290 3 1
      vertex 310 10 1
      vertex -3 30 1
    endloop
  endfacet
  facet normal 0 0 1
    outer loop
      vertex 230 3 1
      vertex 250 3 1
      vertex -3 30 1
    endloop
  endfacet
  facet normal 0 0 1
    outer loop
      vertex 250 0 1
      vertex 270 0 1
      vertex 250 3 1
    endloop
  endfacet
  facet normal 0 0 1
    outer loop
      vertex 270 0 1
      vertex 270 3 1
      vertex 250 3 1
    endloop
  endfacet
  facet normal 0 0 1
    outer loop
      vertex 310 10 1
      vertex 313 10 1
      vertex -3 30 1
    endloop
  endfacet
  facet normal 0 0 1
    outer loop
      vertex 270 3 1
      vertex 290 3 1
      vertex -3 30 1
    endloop
  endfacet
  facet normal 0 0 1
    outer loop
      vertex 290 0 1
      vertex 310 0 1
      vertex 290 3 1
    endloop
  endfacet
  facet normal 0 0 1
    outer loop
      vertex 310 0 1
      vertex 310 10 1
      vertex 290 3 1
    endloop
  endfacet
  facet normal 0 0 1
    outer loop
      vertex 313 10 1
      vertex 310 30 1
      vertex 0 30 1
    endloop
  endfacet
  facet normal 0 0 1
    outer loop
      vertex 313 10 1
      vertex 313 30 1
      vertex 310 30 1
    endloop
  endfacet
  facet normal 0 0 1
    outer loop
      vertex 270 37 1
      vertex 270 40 1
      vertex 250 37 1
    endloop
  endfacet
  facet normal 0 0 1
    outer loop
      vertex 310 30 1
      vertex 310 40 1
      vertex 290 37 1
    endloop
  endfacet
  facet normal 0 0 1
    outer loop
      vertex 230 37 1
      vertex 230 40 1
      vertex 210 37 1
    endloop
  endfacet
  facet normal 0 0 1
    outer loop
      vertex 190 37 1
      vertex 190 40 1
      vertex 165 37 1
    endloop
  endfacet
  facet normal 0 0 1
    outer loop
      vertex 250 37 1
      vertex 0 30 1
      vertex 270 37 1
    endloop
  endfacet
  facet normal 0 0 1
    outer loop
      vertex 210 40 1
      vertex 210 37 1
      vertex 230 40 1
    endloop
  endfacet
  facet normal 0 0 1
    outer loop
      vertex 270 37 1
      vertex 0 30 1
      vertex 290 37 1
    endloop
  endfacet
  facet normal 0 0 1
    outer loop
      vertex 165 40 1
      vertex 165 37 1
      vertex 190 40 1
    endloop
  endfacet
  facet normal 0 0 1
    outer loop
      vertex 120 40 1
      vertex 120 37 1
      vertex 145 40 1
    endloop
  endfacet
  facet normal 0 0 1
    outer loop
      vertex 100 37 1
      vertex 100 40 1
      vertex 80 37 1
    endloop
  endfacet
  facet normal 0 0 1
    outer loop
      vertex 145 37 1
      vertex 145 40 1
      vertex 120 37 1
    endloop
  endfacet
  facet normal 0 0 1
    outer loop
      vertex 80 40 1
      vertex 80 37 1
      vertex 100 40 1
    endloop
  endfacet
  facet normal 0 0 1
    outer loop
      vertex 40 37 1
      vertex 60 37 1
      vertex 60 40 1
    endloop
  endfacet
  facet normal 0 0 1
    outer loop
      vertex 40 37 1
      vertex 60 40 1
      vertex 40 40 1
    endloop
  endfacet
  facet normal 0 0 1
    outer loop
      vertex 0 40 1
      vertex 20 37 1
      vertex 20 40 1
    endloop
  endfacet
  facet normal 0 0 1
    outer loop
      vertex 313 10 1
      vertex 0 30 1
      vertex -3 30 1
    endloop
  endfacet
  facet normal 0 0 1
    outer loop
      vertex 310 30 1
      vertex 290 37 1
      vertex 0 30 1
    endloop
  endfacet
  facet normal 0 0 1
    outer loop
      vertex 250 40 1
      vertex 250 37 1
      vertex 270 40 1
    endloop
  endfacet
  facet normal 0 0 1
    outer loop
      vertex 230 37 1
      vertex 0 30 1
      vertex 250 37 1
    endloop
  endfacet
  facet normal 0 0 1
    outer loop
      vertex 290 40 1
      vertex 290 37 1
      vertex 310 40 1
    endloop
  endfacet
  facet normal 0 0 1
    outer loop
      vertex 210 37 1
      vertex 0 30 1
      vertex 230 37 1
    endloop
  endfacet
  facet normal 0 0 1
    outer loop
      vertex 190 37 1
      vertex 0 30 1
      vertex 210 37 1
    endloop
  endfacet
  facet normal 0 0 1
    outer loop
      vertex 165 37 1
      vertex 0 30 1
      vertex 190 37 1
    endloop
  endfacet
  facet normal 0 0 1
    outer loop
      vertex 145 37 1
      vertex 0 30 1
      vertex 165 37 1
    endloop
  endfacet
  facet normal 0 0 1
    outer loop
      vertex 120 37 1
      vertex 0 30 1
      vertex 145 37 1
    endloop
  endfacet
  facet normal 0 0 1
    outer loop
      vertex 100 37 1
      vertex 0 30 1
      vertex 120 37 1
    endloop
  endfacet
  facet normal 0 0 1
    outer loop
      vertex 80 37 1
      vertex 0 30 1
      vertex 100 37 1
    endloop
  endfacet
  facet normal 0 0 1
    outer loop
      vertex 60 37 1
      vertex 0 30 1
      vertex 80 37 1
    endloop
  endfacet
  facet normal 0 0 1
    outer loop
      vertex 40 37 1
      vertex 0 30 1
      vertex 60 37 1
    endloop
  endfacet
  facet normal 0 0 1
    outer loop
      vertex 20 37 1
      vertex 0 30 1
      vertex 40 37 1
    endloop
  endfacet
  facet normal 0 0 1
    outer loop
      vertex 0 40 1
      vertex 0 30 1
      vertex 20 37 1
    endloop
  endfacet
  facet normal -1 0 0
    outer loop
      vertex 0 0 0
      vertex 0 0 1
      vertex 0 10 0
    endloop
  endfacet
  facet normal -1 0 0
    outer loop
      vertex 0 10 0
      vertex 0 0 1
      vertex 0 10 1
    endloop
  endfacet
  facet normal 0 -1 0
    outer loop
      vertex 0 0 1
      vertex 0 0 0
      vertex 20 0 0
    endloop
  endfacet
  facet normal 0 -1 0
    outer loop
      vertex 20 0 1
      vertex 0 0 1
      vertex 20 0 0
    endloop
  endfacet
  facet normal 1 0 0
    outer loop
      vertex 20 3 0
      vertex 20 3 1
      vertex 20 0 1
    endloop
  endfacet
  facet normal 1 0 0
    outer loop
      vertex 20 0 0
      vertex 20 3 0
      vertex 20 0 1
    endloop
  endfacet
  facet normal 0 -1 0
    outer loop
      vertex 40 3 0
      vertex 40 3 1
      vertex 20 3 1
    endloop
  endfacet
  facet normal 0 -1 0
    outer loop
      vertex 20 3 0
      vertex 40 3 0
      vertex 20 3 1
    endloop
  endfacet
  facet normal -1 0 0
    outer loop
      vertex 40 3 1
      vertex 40 3 0
      vertex 40 0 1
    endloop
  endfacet
  facet normal -1 0 0
    outer loop
      vertex 40 0 1
      vertex 40 3 0
      vertex 40 0 0
    endloop
  endfacet
  facet normal 0 -1 0
    outer loop
      vertex 40 0 1
      vertex 40 0 0
      vertex 60 0 0
    endloop
  endfacet
  facet normal 0 -1 0
    outer loop
      vertex 60 0 1
      vertex 40 0 1
      vertex 60 0 0
    endloop
  endfacet
  facet normal 1 0 0
    outer loop
      vertex 60 3 0
      vertex 60 3 1
      vertex 60 0 1
    endloop
  endfacet
  facet normal 1 0 0
    outer loop
      vertex 60 0 0
      vertex 60 3 0
      vertex 60 0 1
    endloop
  endfacet
  facet normal 0 -1 0
    outer loop
      vertex 80 3 0
      vertex 80 3 1
      vertex 60 3 1
    endloop
  endfacet
  facet normal 0 -1 0
    outer loop
      vertex 60 3 0
      vertex 80 3 0
      vertex 60 3 1
    endloop
  endfacet
  facet normal -1 0 0
    outer loop
      vertex 80 3 1
      vertex 80 3 0
      vertex 80 0 1
    endloop
  endfacet
  facet normal -1 0 0
    outer loop
      vertex 80 0 1
      vertex 80 3 0
      vertex 80 0 0
    endloop
  endfacet
  facet normal 0 -1 0
    outer loop
      vertex 80 0 1
      vertex 80 0 0
      vertex 100 0 0
    endloop
  endfacet
  facet normal 0 -1 0
    outer loop
      vertex 100 0 1
      vertex 80 0 1
      vertex 100 0 0
    endloop
  endfacet
  facet normal 1 0 0
    outer loop
      vertex 100 3 0
      vertex 100 3 1
      vertex 100 0 1
    endloop
  endfacet
  facet normal 1 0 0
    outer loop
      vertex 100 0 0
      vertex 100 3 0
      vertex 100 0 1
    endloop
  endfacet
  facet normal 0 -1 0
    outer loop
      vertex 120 3 0
      vertex 120 3 1
      vertex 100 3 1
    endloop
  endfacet
  facet normal 0 -1 0
    outer loop
      vertex 100 3 0
      vertex 120 3 0
      vertex 100 3 1
    endloop
  endfacet
  facet normal -1 0 0
    outer loop
      vertex 120 3 1
      vertex 120 3 0
      vertex 120 0 1
    endloop
  endfacet
  facet normal -1 0 0
    outer loop
      vertex 120 0 1
      vertex 120 3 0
      vertex 120 0 0
    endloop
  endfacet
  facet normal 0 -1 0
    outer loop
      vertex 120 0 1
      vertex 120 0 0
      vertex 145 0 0
    endloop
  endfacet
  facet normal 0 -1 0
    outer loop
      vertex 145 0 1
      vertex 120 0 1
      vertex 145 0 0
    endloop
  endfacet
  facet normal 1 0 0
    outer loop
      vertex 145 3 0
      vertex 145 3 1
      vertex 145 0 1
    endloop
  endfacet
  facet normal 1 0 0
    outer loop
      vertex 145 0 0
      vertex 145 3 0
      vertex 145 0 1
    endloop
  endfacet
  facet normal 0 -1 0
    outer loop
      vertex 165 3 0
      vertex 165 3 1
      vertex 145 3 1
    endloop
  endfacet
  facet normal 0 -1 0
    outer loop
      vertex 145 3 0
      vertex 165 3 0
      vertex 145 3 1
    endloop
  endfacet
  facet normal -1 0 0
    outer loop
      vertex 165 3 1
      vertex 165 3 0
      vertex 165 0 1
    endloop
  endfacet
  facet normal -1 0 0
    outer loop
      vertex 165 0 1
      vertex 165 3 0
      vertex 165 0 0
    endloop
  endfacet
  facet normal 0 -1 0
    outer loop
      vertex 165 0 1
      vertex 165 0 0
      vertex 190 0 0
    endloop
  endfacet
  facet normal 0 -1 0
    outer loop
      vertex 190 0 1
      vertex 165 0 1
      vertex 190 0 0
    endloop
  endfacet
  facet normal 1 0 0
    outer loop
      vertex 190 3 0
      vertex 190 3 1
      vertex 190 0 1
    endloop
  endfacet
  facet normal 1 0 0
    outer loop
      vertex 190 0 0
      vertex 190 3 0
      vertex 190 0 1
    endloop
  endfacet
  facet normal 0 -1 0
    outer loop
      vertex 210 3 0
      vertex 210 3 1
      vertex 190 3 1
    endloop
  endfacet
  facet normal 0 -1 0
    outer loop
      vertex 190 3 0
      vertex 210 3 0
      vertex 190 3 1
    endloop
  endfacet
  facet normal -1 0 0
    outer loop
      vertex 210 3 1
      vertex 210 3 0
      vertex 210 0 1
    endloop
  endfacet
  facet normal -1 0 0
    outer loop
      vertex 210 0 1
      vertex 210 3 0
      vertex 210 0 0
    endloop
  endfacet
  facet normal 0 -1 0
    outer loop
      vertex 210 0 1
      vertex 210 0 0
      vertex 230 0 0
    endloop
  endfacet
  facet normal 0 -1 0
    outer loop
      vertex 230 0 1
      vertex 210 0 1
      vertex 230 0 0
    endloop
  endfacet
  facet normal 1 0 0
    outer loop
      vertex 230 3 0
      vertex 230 3 1
      vertex 230 0 1
    endloop
  endfacet
  facet normal 1 0 0
    outer loop
      vertex 230 0 0
      vertex 230 3 0
      vertex 230 0 1
    endloop
  endfacet
  facet normal 0 -1 0
    outer loop
      vertex 250 3 0
      vertex 250 3 1
      vertex 230 3 1
    endloop
  endfacet
  facet normal 0 -1 0
    outer loop
      vertex 230 3 0
      vertex 250 3 0
      vertex 230 3 1
    endloop
  endfacet
  facet normal -1 0 0
    outer loop
      vertex 250 3 1
      vertex 250 3 0
      vertex 250 0 1
    endloop
  endfacet
  facet normal -1 0 0
    outer loop
      vertex 250 0 1
      vertex 250 3 0
      vertex 250 0 0
    endloop
  endfacet
  facet normal 0 -1 0
    outer loop
      vertex 250 0 1
      vertex 250 0 0
      vertex 270 0 0
    endloop
  endfacet
  facet normal 0 -1 0
    outer loop
      vertex 270 0 1
      vertex 250 0 1
      vertex 270 0 0
    endloop
  endfacet
  facet normal 1 0 0
    outer loop
      vertex 270 3 0
      vertex 270 3 1
      vertex 270 0 1
    endloop
  endfacet
  facet normal 1 0 0
    outer loop
      vertex 270 0 0
      vertex 270 3 0
      vertex 270 0 1
    endloop
  endfacet
  facet normal 0 -1 0
    outer loop
      vertex 290 3 0
      vertex 290 3 1
      vertex 270 3 1
    endloop
  endfacet
  facet normal 0 -1 0
    outer loop
      vertex 270 3 0
      vertex 290 3 0
      vertex 270 3 1
    endloop
  endfacet
  facet normal -1 0 0
    outer loop
      vertex 290 3 1
      vertex 290 3 0
      vertex 290 0 1
    endloop
  endfacet
  facet normal -1 0 0
    outer loop
      vertex 290 0 1
      vertex 290 3 0
      vertex 290 0 0
    endloop
  endfacet
  facet normal 0 -1 0
    outer loop
      vertex 290 0 1
      vertex 290 0 0
      vertex 310 0 0
    endloop
  endfacet
  facet normal 0 -1 0
    outer loop
      vertex 310 0 1
      vertex 290 0 1
      vertex 310 0 0
    endloop
  endfacet
  facet normal 1 0 0
    outer loop
      vertex 310 0 1
      vertex 310 0 0
      vertex 310 10 0
    endloop
  endfacet
  facet normal 1 0 0
    outer loop
      vertex 310 10 1
      vertex 310 0 1
      vertex 310 10 0
    endloop
  endfacet
  facet normal 0 -1 0
    outer loop
      vertex 310 10 1
      vertex 310 10 0
      vertex 313 10 0
    endloop
  endfacet
  facet normal 0 -1 0
    outer loop
      vertex 313 10 1
      vertex 310 10 1
      vertex 313 10 0
    endloop
  endfacet
  facet normal 1 0 0
    outer loop
      vertex 313 10 1
      vertex 313 10 0
      vertex 313 30 0
    endloop
  endfacet
  facet normal 1 0 0
    outer loop
      vertex 313 30 1
      vertex 313 10 1
      vertex 313 30 0
    endloop
  endfacet
  facet normal 0 1 0
    outer loop
      vertex 310 30 0
      vertex 310 30 1
      vertex 313 30 0
    endloop
  endfacet
  facet normal 0 1 0
    outer loop
      vertex 313 30 0
      vertex 310 30 1
      vertex 313 30 1
    endloop
  endfacet
  facet normal 1 0 0
    outer loop
      vertex 310 30 1
      vertex 310 30 0
      vertex 310 40 0
    endloop
  endfacet
  facet normal 1 0 0
    outer loop
      vertex 310 40 1
      vertex 310 30 1
      vertex 310 40 0
    endloop
  endfacet
  facet normal 0 1 0
    outer loop
      vertex 290 40 0
      vertex 290 40 1
      vertex 310 40 0
    endloop
  endfacet
  facet normal 0 1 0
    outer loop
      vertex 310 40 0
      vertex 290 40 1
      vertex 310 40 1
    endloop
  endfacet
  facet normal -1 0 0
    outer loop
      vertex 290 40 1
      vertex 290 40 0
      vertex 290 37 1
    endloop
  endfacet
  facet normal -1 0 0
    outer loop
      vertex 290 37 1
      vertex 290 40 0
      vertex 290 37 0
    endloop
  endfacet
  facet normal 0 1 0
    outer loop
      vertex 290 37 1
      vertex 290 37 0
      vertex 270 37 1
    endloop
  endfacet
  facet normal 0 1 0
    outer loop
      vertex 270 37 1
      vertex 290 37 0
      vertex 270 37 0
    endloop
  endfacet
  facet normal 1 0 0
    outer loop
      vertex 270 40 0
      vertex 270 40 1
      vertex 270 37 1
    endloop
  endfacet
  facet normal 1 0 0
    outer loop
      vertex 270 37 0
      vertex 270 40 0
      vertex 270 37 1
    endloop
  endfacet
  facet normal 0 1 0
    outer loop
      vertex 250 40 0
      vertex 250 40 1
      vertex 270 40 0
    endloop
  endfacet
  facet normal 0 1 0
    outer loop
      vertex 270 40 0
      vertex 250 40 1
      vertex 270 40 1
    endloop
  endfacet
  facet normal -1 0 0
    outer loop
      vertex 250 40 1
      vertex 250 40 0
      vertex 250 37 1
    endloop
  endfacet
  facet normal -1 0 0
    outer loop
      vertex 250 37 1
      vertex 250 40 0
      vertex 250 37 0
    endloop
  endfacet
  facet normal 0 1 0
    outer loop
      vertex 250 37 1
      vertex 250 37 0
      vertex 230 37 1
    endloop
  endfacet
  facet normal 0 1 0
    outer loop
      vertex 230 37 1
      vertex 250 37 0
      vertex 230 37 0
    endloop
  endfacet
  facet normal 1 0 0
    outer loop
      vertex 230 40 0
      vertex 230 40 1
      vertex 230 37 1
    endloop
  endfacet
  facet normal 1 0 0
    outer loop
      vertex 230 37 0
      vertex 230 40 0
      vertex 230 37 1
    endloop
  endfacet
  facet normal 0 1 0
    outer loop
      vertex 210 40 0
      vertex 210 40 1
      vertex 230 40 0
    endloop
  endfacet
  facet normal 0 1 0
    outer loop
      vertex 230 40 0
      vertex 210 40 1
      vertex 230 40 1
    endloop
  endfacet
  facet normal -1 0 0
    outer loop
      vertex 210 40 1
      vertex 210 40 0
      vertex 210 37 1
    endloop
  endfacet
  facet normal -1 0 0
    outer loop
      vertex 210 37 1
      vertex 210 40 0
      vertex 210 37 0
    endloop
  endfacet
  facet normal 0 1 0
    outer loop
      vertex 210 37 1
      vertex 210 37 0
      vertex 190 37 1
    endloop
  endfacet
  facet normal 0 1 0
    outer loop
      vertex 190 37 1
      vertex 210 37 0
      vertex 190 37 0
    endloop
  endfacet
  facet normal 1 0 0
    outer loop
      vertex 190 40 0
      vertex 190 40 1
      vertex 190 37 1
    endloop
  endfacet
  facet normal 1 0 0
    outer loop
      vertex 190 37 0
      vertex 190 40 0
      vertex 190 37 1
    endloop
  endfacet
  facet normal 0 1 0
    outer loop
      vertex 165 40 0
      vertex 165 40 1
      vertex 190 40 0
    endloop
  endfacet
  facet normal 0 1 0
    outer loop
      vertex 190 40 0
      vertex 165 40 1
      vertex 190 40 1
    endloop
  endfacet
  facet normal -1 0 0
    outer loop
      vertex 165 40 1
      vertex 165 40 0
      vertex 165 37 1
    endloop
  endfacet
  facet normal -1 0 0
    outer loop
      vertex 165 37 1
      vertex 165 40 0
      vertex 165 37 0
    endloop
  endfacet
  facet normal 0 1 0
    outer loop
      vertex 165 37 1
      vertex 165 37 0
      vertex 145 37 1
    endloop
  endfacet
  facet normal 0 1 0
    outer loop
      vertex 145 37 1
      vertex 165 37 0
      vertex 145 37 0
    endloop
  endfacet
  facet normal 1 0 0
    outer loop
      vertex 145 40 0
      vertex 145 40 1
      vertex 145 37 1
    endloop
  endfacet
  facet normal 1 0 0
    outer loop
      vertex 145 37 0
      vertex 145 40 0
      vertex 145 37 1
    endloop
  endfacet
  facet normal 0 1 0
    outer loop
      vertex 120 40 0
      vertex 120 40 1
      vertex 145 40 0
    endloop
  endfacet
  facet normal 0 1 0
    outer loop
      vertex 145 40 0
      vertex 120 40 1
      vertex 145 40 1
    endloop
  endfacet
  facet normal -1 0 0
    outer loop
      vertex 120 40 1
      vertex 120 40 0
      vertex 120 37 1
    endloop
  endfacet
  facet normal -1 0 0
    outer loop
      vertex 120 37 1
      vertex 120 40 0
      vertex 120 37 0
    endloop
  endfacet
  facet normal 0 1 0
    outer loop
      vertex 120 37 1
      vertex 120 37 0
      vertex 100 37 1
    endloop
  endfacet
  facet normal 0 1 0
    outer loop
      vertex 100 37 1
      vertex 120 37 0
      vertex 100 37 0
    endloop
  endfacet
  facet normal 1 0 0
    outer loop
      vertex 100 40 0
      vertex 100 40 1
      vertex 100 37 1
    endloop
  endfacet
  facet normal 1 0 0
    outer loop
      vertex 100 37 0
      vertex 100 40 0
      vertex 100 37 1
    endloop
  endfacet
  facet normal 0 1 0
    outer loop
      vertex 80 40 0
      vertex 80 40 1
      vertex 100 40 0
    endloop
  endfacet
  facet normal 0 1 0
    outer loop
      vertex 100 40 0
      vertex 80 40 1
      vertex 100 40 1
    endloop
  endfacet
  facet normal -1 0 0
    outer loop
      vertex 80 40 1
      vertex 80 40 0
      vertex 80 37 1
    endloop
  endfacet
  facet normal -1 0 0
    outer loop
      vertex 80 37 1
      vertex 80 40 0
      vertex 80 37 0
    endloop
  endfacet
  facet normal 0 1 0
    outer loop
      vertex 80 37 1
      vertex 80 37 0
      vertex 60 37 1
    endloop
  endfacet
  facet normal 0 1 0
    outer loop
      vertex 60 37 1
      vertex 80 37 0
      vertex 60 37 0
    endloop
  endfacet
  facet normal 1 0 0
    outer loop
      vertex 60 40 0
      vertex 60 40 1
      vertex 60 37 1
    endloop
  endfacet
  facet normal 1 0 0
    outer loop
      vertex 60 37 0
      vertex 60 40 0
      vertex 60 37 1
    endloop
  endfacet
  facet normal 0 1 0
    outer loop
      vertex 40 40 0
      vertex 40 40 1
      vertex 60 40 0
    endloop
  endfacet
  facet normal 0 1 0
    outer loop
      vertex 60 40 0
      vertex 40 40 1
      vertex 60 40 1
    endloop
  endfacet
  facet normal -1 0 0
    outer loop
      vertex 40 40 1
      vertex 40 40 0
      vertex 40 37 1
    endloop
  endfacet
  facet normal -1 0 0
    outer loop
      vertex 40 37 1
      vertex 40 40 0
      vertex 40 37 0
    endloop
  endfacet
  facet normal 0 1 0
    outer loop
      vertex 40 37 1
      vertex 40 37 0
      vertex 20 37 1
    endloop
  endfacet
  facet normal 0 1 0
    outer loop
      vertex 20 37 1
      vertex 40 37 0
      vertex 20 37 0
    endloop
  endfacet
  facet normal 1 0 0
    outer loop
      vertex 20 40 0
      vertex 20 40 1
      vertex 20 37 1
    endloop
  endfacet
  facet normal 1 0 0
    outer loop
      vertex 20 37 0
      vertex 20 40 0
      vertex 20 37 1
    endloop
  endfacet
  facet normal 0 1 0
    outer loop
      vertex 0 40 0
      vertex 0 40 1
      vertex 20 40 0
    endloop
  endfacet
  facet normal 0 1 0
    outer loop
      vertex 20 40 0
      vertex 0 40 1
      vertex 20 40 1
    endloop
  endfacet
  facet normal -1 0 0
    outer loop
      vertex 0 30 0
      vertex 0 30 1
      vertex 0 40 0
    endloop
  endfacet
  facet normal -1 0 0
    outer loop
      vertex 0 40 0
      vertex 0 30 1
      vertex 0 40 1
    endloop
  endfacet
endsolid OpenSCAD_Model
