  0
SECTION
  2
BLOCKS
  0
ENDSEC
  0
SECTION
  2
ENTITIES
  0
LINE
  8
0
 10
0
 11
0
 20
0
 21
6
  0
LINE
  8
0
 10
0
 11
3
 20
6
 21
6
  0
LINE
  8
0
 10
3
 11
3
 20
6
 21
18
  0
LINE
  8
0
 10
3
 11
0
 20
18
 21
18
  0
LINE
  8
0
 10
0
 11
0
 20
18
 21
24
  0
LINE
  8
0
 10
0
 11
10
 20
24
 21
24
  0
LINE
  8
0
 10
10
 11
10
 20
24
 21
21
  0
LINE
  8
0
 10
10
 11
30
 20
21
 21
21
  0
LINE
  8
0
 10
30
 11
30
 20
21
 21
24
  0
LINE
  8
0
 10
30
 11
40
 20
24
 21
24
  0
LINE
  8
0
 10
40
 11
40
 20
24
 21
18
  0
LINE
  8
0
 10
40
 11
37
 20
18
 21
18
  0
LINE
  8
0
 10
37
 11
37
 20
18
 21
6
  0
LINE
  8
0
 10
37
 11
40
 20
6
 21
6
  0
LINE
  8
0
 10
40
 11
39.999
 20
6
 21
-74.995
  0
LINE
  8
0
 10
39.999
 11
40
 20
-74.995
 21
-75
  0
LINE
  8
0
 10
40
 11
39.619
 20
-75
 21
-76.913
  0
LINE
  8
0
 10
39.619
 11
38.536
 20
-76.913
 21
-78.536
  0
LINE
  8
0
 10
38.536
 11
36.913
 20
-78.536
 21
-79.619
  0
LINE
  8
0
 10
36.913
 11
35
 20
-79.619
 21
-80
  0
LINE
  8
0
 10
35
 11
24.799
 20
-80
 21
-80
  0
LINE
  8
0
 10
24.799
 11
24.052
 20
-80
 21
-79.905
  0
LINE
  8
0
 10
24.052
 11
22.359
 20
-79.905
 21
-78.937
  0
LINE
  8
0
 10
22.359
 11
21.349
 20
-78.937
 21
-77.633
  0
LINE
  8
0
 10
21.349
 11
0
 20
-77.633
 21
0
  0
LINE
  8
0
 10
10
 11
10
 20
0
 21
3
  0
LINE
  8
0
 10
10
 11
30
 20
3
 21
3
  0
LINE
  8
0
 10
30
 11
30
 20
3
 21
0
  0
LINE
  8
0
 10
30
 11
10
 20
0
 21
0
  0
LINE
  8
0
 10
34
 11
34
 20
-60
 21
-40
  0
LINE
  8
0
 10
34
 11
37
 20
-40
 21
-40
  0
LINE
  8
0
 10
37
 11
37
 20
-40
 21
-60
  0
LINE
  8
0
 10
37
 11
34
 20
-60
 21
-60
  0
ENDSEC
  0
SECTION
  2
OBJECTS
  0
DICTIONARY
  0
ENDSEC
  0
EOF
