  0
SECTION
  2
BLOCKS
  0
ENDSEC
  0
SECTION
  2
ENTITIES
  0
LINE
  8
0
 10
-3
 11
-3
 20
3
 21
15
  0
LINE
  8
0
 10
-3
 11
0
 20
15
 21
15
  0
LINE
  8
0
 10
0
 11
0
 20
15
 21
18
  0
LINE
  8
0
 10
0
 11
20
 20
18
 21
18
  0
LINE
  8
0
 10
20
 11
20
 20
18
 21
21
  0
LINE
  8
0
 10
20
 11
40
 20
21
 21
21
  0
LINE
  8
0
 10
40
 11
40
 20
21
 21
18
  0
LINE
  8
0
 10
40
 11
60
 20
18
 21
18
  0
LINE
  8
0
 10
60
 11
60
 20
18
 21
21
  0
LINE
  8
0
 10
60
 11
80
 20
21
 21
21
  0
LINE
  8
0
 10
80
 11
80
 20
21
 21
18
  0
LINE
  8
0
 10
80
 11
100
 20
18
 21
18
  0
LINE
  8
0
 10
100
 11
100
 20
18
 21
21
  0
LINE
  8
0
 10
100
 11
120
 20
21
 21
21
  0
LINE
  8
0
 10
120
 11
120
 20
21
 21
18
  0
LINE
  8
0
 10
120
 11
145
 20
18
 21
18
  0
LINE
  8
0
 10
145
 11
145
 20
18
 21
21
  0
LINE
  8
0
 10
145
 11
165
 20
21
 21
21
  0
LINE
  8
0
 10
165
 11
165
 20
21
 21
18
  0
LINE
  8
0
 10
165
 11
190
 20
18
 21
18
  0
LINE
  8
0
 10
190
 11
190
 20
18
 21
21
  0
LINE
  8
0
 10
190
 11
210
 20
21
 21
21
  0
LINE
  8
0
 10
210
 11
210
 20
21
 21
18
  0
LINE
  8
0
 10
210
 11
230
 20
18
 21
18
  0
LINE
  8
0
 10
230
 11
230
 20
18
 21
21
  0
LINE
  8
0
 10
230
 11
250
 20
21
 21
21
  0
LINE
  8
0
 10
250
 11
250
 20
21
 21
18
  0
LINE
  8
0
 10
250
 11
270
 20
18
 21
18
  0
LINE
  8
0
 10
270
 11
270
 20
18
 21
21
  0
LINE
  8
0
 10
270
 11
290
 20
21
 21
21
  0
LINE
  8
0
 10
290
 11
290
 20
21
 21
18
  0
LINE
  8
0
 10
290
 11
310
 20
18
 21
18
  0
LINE
  8
0
 10
310
 11
310
 20
18
 21
15
  0
LINE
  8
0
 10
310
 11
313
 20
15
 21
15
  0
LINE
  8
0
 10
313
 11
313
 20
15
 21
3
  0
LINE
  8
0
 10
313
 11
310
 20
3
 21
3
  0
LINE
  8
0
 10
310
 11
310
 20
3
 21
0
  0
LINE
  8
0
 10
310
 11
290
 20
0
 21
0
  0
LINE
  8
0
 10
290
 11
290
 20
0
 21
-3
  0
LINE
  8
0
 10
290
 11
270
 20
-3
 21
-3
  0
LINE
  8
0
 10
270
 11
270
 20
-3
 21
0
  0
LINE
  8
0
 10
270
 11
250
 20
0
 21
0
  0
LINE
  8
0
 10
250
 11
250
 20
0
 21
-3
  0
LINE
  8
0
 10
250
 11
230
 20
-3
 21
-3
  0
LINE
  8
0
 10
230
 11
230
 20
-3
 21
0
  0
LINE
  8
0
 10
230
 11
210
 20
0
 21
0
  0
LINE
  8
0
 10
210
 11
210
 20
0
 21
-3
  0
LINE
  8
0
 10
210
 11
190
 20
-3
 21
-3
  0
LINE
  8
0
 10
190
 11
190
 20
-3
 21
0
  0
LINE
  8
0
 10
190
 11
165
 20
0
 21
0
  0
LINE
  8
0
 10
165
 11
165
 20
0
 21
-3
  0
LINE
  8
0
 10
165
 11
145
 20
-3
 21
-3
  0
LINE
  8
0
 10
145
 11
145
 20
-3
 21
0
  0
LINE
  8
0
 10
145
 11
120
 20
0
 21
0
  0
LINE
  8
0
 10
120
 11
120
 20
0
 21
-3
  0
LINE
  8
0
 10
120
 11
100
 20
-3
 21
-3
  0
LINE
  8
0
 10
100
 11
100
 20
-3
 21
0
  0
LINE
  8
0
 10
100
 11
80
 20
0
 21
0
  0
LINE
  8
0
 10
80
 11
80
 20
0
 21
-3
  0
LINE
  8
0
 10
80
 11
60
 20
-3
 21
-3
  0
LINE
  8
0
 10
60
 11
60
 20
-3
 21
0
  0
LINE
  8
0
 10
60
 11
40
 20
0
 21
0
  0
LINE
  8
0
 10
40
 11
40
 20
0
 21
-3
  0
LINE
  8
0
 10
40
 11
20
 20
-3
 21
-3
  0
LINE
  8
0
 10
20
 11
20
 20
-3
 21
0
  0
LINE
  8
0
 10
20
 11
0
 20
0
 21
0
  0
LINE
  8
0
 10
0
 11
0
 20
0
 21
3
  0
LINE
  8
0
 10
0
 11
-3
 20
3
 21
3
  0
ENDSEC
  0
SECTION
  2
OBJECTS
  0
DICTIONARY
  0
ENDSEC
  0
EOF
