solid OpenSCAD_Model
  facet normal -1 0 0
    outer loop
      vertex -3 3 0
      vertex -3 3 1
      vertex -3 15 0
    endloop
  endfacet
  facet normal -1 0 0
    outer loop
      vertex -3 15 0
      vertex -3 3 1
      vertex -3 15 1
    endloop
  endfacet
  facet normal 0 -1 0
    outer loop
      vertex -3 3 1
      vertex -3 3 0
      vertex 0 3 0
    endloop
  endfacet
  facet normal 0 -1 0
    outer loop
      vertex 0 3 1
      vertex -3 3 1
      vertex 0 3 0
    endloop
  endfacet
  facet normal 0 0 -1
    outer loop
      vertex -3 3 0
      vertex -3 15 0
      vertex 0 3 0
    endloop
  endfacet
  facet normal 0 0 -1
    outer loop
      vertex 0 3 0
      vertex -3 15 0
      vertex 0 15 0
    endloop
  endfacet
  facet normal 0 0 -1
    outer loop
      vertex 0 15 0
      vertex 0 18 0
      vertex 20 18 0
    endloop
  endfacet
  facet normal 0 0 -1
    outer loop
      vertex 0 15 0
      vertex 20 18 0
      vertex 0 3 0
    endloop
  endfacet
  facet normal 0 0 -1
    outer loop
      vertex 20 18 0
      vertex 20 21 0
      vertex 40 21 0
    endloop
  endfacet
  facet normal 0 0 -1
    outer loop
      vertex 20 18 0
      vertex 40 21 0
      vertex 0 3 0
    endloop
  endfacet
  facet normal 0 0 -1
    outer loop
      vertex 0 3 0
      vertex 40 21 0
      vertex 40 18 0
    endloop
  endfacet
  facet normal 0 0 -1
    outer loop
      vertex 0 3 0
      vertex 40 18 0
      vertex 60 18 0
    endloop
  endfacet
  facet normal 0 0 -1
    outer loop
      vertex 60 18 0
      vertex 60 21 0
      vertex 80 21 0
    endloop
  endfacet
  facet normal 0 0 -1
    outer loop
      vertex 60 18 0
      vertex 80 21 0
      vertex 0 3 0
    endloop
  endfacet
  facet normal 0 0 -1
    outer loop
      vertex 0 3 0
      vertex 80 21 0
      vertex 80 18 0
    endloop
  endfacet
  facet normal 0 0 -1
    outer loop
      vertex 0 3 0
      vertex 80 18 0
      vertex 100 18 0
    endloop
  endfacet
  facet normal 0 0 -1
    outer loop
      vertex 100 18 0
      vertex 100 21 0
      vertex 120 21 0
    endloop
  endfacet
  facet normal 0 0 -1
    outer loop
      vertex 100 18 0
      vertex 120 21 0
      vertex 120 18 0
    endloop
  endfacet
  facet normal 0 0 -1
    outer loop
      vertex 100 18 0
      vertex 120 18 0
      vertex 0 3 0
    endloop
  endfacet
  facet normal 0 0 -1
    outer loop
      vertex 120 18 0
      vertex 145 18 0
      vertex 0 3 0
    endloop
  endfacet
  facet normal 0 0 -1
    outer loop
      vertex 145 18 0
      vertex 145 21 0
      vertex 165 21 0
    endloop
  endfacet
  facet normal 0 0 -1
    outer loop
      vertex 145 18 0
      vertex 165 21 0
      vertex 165 18 0
    endloop
  endfacet
  facet normal 0 0 -1
    outer loop
      vertex 145 18 0
      vertex 165 18 0
      vertex 0 3 0
    endloop
  endfacet
  facet normal 0 0 -1
    outer loop
      vertex 165 18 0
      vertex 190 18 0
      vertex 0 3 0
    endloop
  endfacet
  facet normal 0 0 -1
    outer loop
      vertex 190 18 0
      vertex 190 21 0
      vertex 210 21 0
    endloop
  endfacet
  facet normal 0 0 -1
    outer loop
      vertex 190 18 0
      vertex 210 21 0
      vertex 210 18 0
    endloop
  endfacet
  facet normal 0 0 -1
    outer loop
      vertex 190 18 0
      vertex 210 18 0
      vertex 0 3 0
    endloop
  endfacet
  facet normal 0 0 -1
    outer loop
      vertex 210 18 0
      vertex 230 18 0
      vertex 0 3 0
    endloop
  endfacet
  facet normal 0 0 -1
    outer loop
      vertex 230 18 0
      vertex 230 21 0
      vertex 250 21 0
    endloop
  endfacet
  facet normal 0 0 -1
    outer loop
      vertex 230 18 0
      vertex 250 21 0
      vertex 250 18 0
    endloop
  endfacet
  facet normal 0 0 -1
    outer loop
      vertex 230 18 0
      vertex 250 18 0
      vertex 0 3 0
    endloop
  endfacet
  facet normal 0 0 -1
    outer loop
      vertex 250 18 0
      vertex 270 18 0
      vertex 0 3 0
    endloop
  endfacet
  facet normal 0 0 -1
    outer loop
      vertex 270 18 0
      vertex 270 21 0
      vertex 290 21 0
    endloop
  endfacet
  facet normal 0 0 -1
    outer loop
      vertex 270 18 0
      vertex 290 21 0
      vertex 290 18 0
    endloop
  endfacet
  facet normal 0 0 -1
    outer loop
      vertex 270 18 0
      vertex 290 18 0
      vertex 0 3 0
    endloop
  endfacet
  facet normal 0 0 -1
    outer loop
      vertex 290 18 0
      vertex 310 18 0
      vertex 0 3 0
    endloop
  endfacet
  facet normal 0 0 -1
    outer loop
      vertex 0 3 0
      vertex 310 18 0
      vertex 310 15 0
    endloop
  endfacet
  facet normal 0 0 -1
    outer loop
      vertex 0 3 0
      vertex 310 15 0
      vertex 313 15 0
    endloop
  endfacet
  facet normal 0 0 -1
    outer loop
      vertex 310 3 0
      vertex 313 15 0
      vertex 313 3 0
    endloop
  endfacet
  facet normal 0 0 -1
    outer loop
      vertex 0 3 0
      vertex 313 15 0
      vertex 310 3 0
    endloop
  endfacet
  facet normal 0 0 -1
    outer loop
      vertex 270 0 0
      vertex 290 -3 0
      vertex 270 -3 0
    endloop
  endfacet
  facet normal 0 0 -1
    outer loop
      vertex 310 3 0
      vertex 310 0 0
      vertex 0 3 0
    endloop
  endfacet
  facet normal 0 0 -1
    outer loop
      vertex 290 0 0
      vertex 290 -3 0
      vertex 270 0 0
    endloop
  endfacet
  facet normal 0 0 -1
    outer loop
      vertex 210 -3 0
      vertex 190 0 0
      vertex 210 0 0
    endloop
  endfacet
  facet normal 0 0 -1
    outer loop
      vertex 40 0 0
      vertex 0 3 0
      vertex 60 0 0
    endloop
  endfacet
  facet normal 0 0 -1
    outer loop
      vertex 20 0 0
      vertex 0 3 0
      vertex 40 0 0
    endloop
  endfacet
  facet normal 0 0 -1
    outer loop
      vertex 60 0 0
      vertex 0 3 0
      vertex 80 0 0
    endloop
  endfacet
  facet normal 0 0 -1
    outer loop
      vertex 165 -3 0
      vertex 145 0 0
      vertex 165 0 0
    endloop
  endfacet
  facet normal 0 0 -1
    outer loop
      vertex 250 -3 0
      vertex 230 0 0
      vertex 250 0 0
    endloop
  endfacet
  facet normal 0 0 -1
    outer loop
      vertex 100 0 0
      vertex 120 -3 0
      vertex 100 -3 0
    endloop
  endfacet
  facet normal 0 0 -1
    outer loop
      vertex 60 0 0
      vertex 80 -3 0
      vertex 60 -3 0
    endloop
  endfacet
  facet normal 0 0 -1
    outer loop
      vertex 0 0 0
      vertex 0 3 0
      vertex 20 0 0
    endloop
  endfacet
  facet normal 0 0 -1
    outer loop
      vertex 0 3 0
      vertex 310 0 0
      vertex 290 0 0
    endloop
  endfacet
  facet normal 0 0 -1
    outer loop
      vertex 0 3 0
      vertex 290 0 0
      vertex 270 0 0
    endloop
  endfacet
  facet normal 0 0 -1
    outer loop
      vertex 0 3 0
      vertex 270 0 0
      vertex 250 0 0
    endloop
  endfacet
  facet normal 0 0 -1
    outer loop
      vertex 0 3 0
      vertex 250 0 0
      vertex 230 0 0
    endloop
  endfacet
  facet normal 0 0 -1
    outer loop
      vertex 0 3 0
      vertex 230 0 0
      vertex 210 0 0
    endloop
  endfacet
  facet normal 0 0 -1
    outer loop
      vertex 0 3 0
      vertex 210 0 0
      vertex 190 0 0
    endloop
  endfacet
  facet normal 0 0 -1
    outer loop
      vertex 0 3 0
      vertex 190 0 0
      vertex 165 0 0
    endloop
  endfacet
  facet normal 0 0 -1
    outer loop
      vertex 0 3 0
      vertex 165 0 0
      vertex 145 0 0
    endloop
  endfacet
  facet normal 0 0 -1
    outer loop
      vertex 120 0 0
      vertex 0 3 0
      vertex 145 0 0
    endloop
  endfacet
  facet normal 0 0 -1
    outer loop
      vertex 230 0 0
      vertex 250 -3 0
      vertex 230 -3 0
    endloop
  endfacet
  facet normal 0 0 -1
    outer loop
      vertex 100 0 0
      vertex 0 3 0
      vertex 120 0 0
    endloop
  endfacet
  facet normal 0 0 -1
    outer loop
      vertex 190 0 0
      vertex 210 -3 0
      vertex 190 -3 0
    endloop
  endfacet
  facet normal 0 0 -1
    outer loop
      vertex 80 0 0
      vertex 0 3 0
      vertex 100 0 0
    endloop
  endfacet
  facet normal 0 0 -1
    outer loop
      vertex 145 0 0
      vertex 165 -3 0
      vertex 145 -3 0
    endloop
  endfacet
  facet normal 0 0 -1
    outer loop
      vertex 120 -3 0
      vertex 100 0 0
      vertex 120 0 0
    endloop
  endfacet
  facet normal 0 0 -1
    outer loop
      vertex 80 -3 0
      vertex 60 0 0
      vertex 80 0 0
    endloop
  endfacet
  facet normal 0 0 -1
    outer loop
      vertex 40 -3 0
      vertex 20 0 0
      vertex 40 0 0
    endloop
  endfacet
  facet normal 0 0 -1
    outer loop
      vertex 20 0 0
      vertex 40 -3 0
      vertex 20 -3 0
    endloop
  endfacet
  facet normal 0 1 0
    outer loop
      vertex -3 15 0
      vertex -3 15 1
      vertex 0 15 0
    endloop
  endfacet
  facet normal 0 1 0
    outer loop
      vertex 0 15 0
      vertex -3 15 1
      vertex 0 15 1
    endloop
  endfacet
  facet normal 0 0 1
    outer loop
      vertex 20 0 1
      vertex 40 -3 1
      vertex -3 15 1
    endloop
  endfacet
  facet normal 0 0 1
    outer loop
      vertex -3 15 1
      vertex -3 3 1
      vertex 0 3 1
    endloop
  endfacet
  facet normal 0 0 1
    outer loop
      vertex 20 0 1
      vertex -3 15 1
      vertex 0 3 1
    endloop
  endfacet
  facet normal 0 0 1
    outer loop
      vertex 0 0 1
      vertex 20 0 1
      vertex 0 3 1
    endloop
  endfacet
  facet normal 0 0 1
    outer loop
      vertex 40 0 1
      vertex 60 0 1
      vertex -3 15 1
    endloop
  endfacet
  facet normal 0 0 1
    outer loop
      vertex 20 -3 1
      vertex 40 -3 1
      vertex 20 0 1
    endloop
  endfacet
  facet normal 0 0 1
    outer loop
      vertex 40 -3 1
      vertex 40 0 1
      vertex -3 15 1
    endloop
  endfacet
  facet normal 0 0 1
    outer loop
      vertex 60 0 1
      vertex 80 -3 1
      vertex -3 15 1
    endloop
  endfacet
  facet normal 0 0 1
    outer loop
      vertex 80 0 1
      vertex 100 0 1
      vertex -3 15 1
    endloop
  endfacet
  facet normal 0 0 1
    outer loop
      vertex 60 -3 1
      vertex 80 -3 1
      vertex 60 0 1
    endloop
  endfacet
  facet normal 0 0 1
    outer loop
      vertex 80 -3 1
      vertex 80 0 1
      vertex -3 15 1
    endloop
  endfacet
  facet normal 0 0 1
    outer loop
      vertex 100 0 1
      vertex 120 0 1
      vertex -3 15 1
    endloop
  endfacet
  facet normal 0 0 1
    outer loop
      vertex 145 0 1
      vertex 165 0 1
      vertex -3 15 1
    endloop
  endfacet
  facet normal 0 0 1
    outer loop
      vertex 100 -3 1
      vertex 120 -3 1
      vertex 100 0 1
    endloop
  endfacet
  facet normal 0 0 1
    outer loop
      vertex 120 -3 1
      vertex 120 0 1
      vertex 100 0 1
    endloop
  endfacet
  facet normal 0 0 1
    outer loop
      vertex 190 0 1
      vertex 210 0 1
      vertex -3 15 1
    endloop
  endfacet
  facet normal 0 0 1
    outer loop
      vertex 120 0 1
      vertex 145 0 1
      vertex -3 15 1
    endloop
  endfacet
  facet normal 0 0 1
    outer loop
      vertex 145 -3 1
      vertex 165 -3 1
      vertex 145 0 1
    endloop
  endfacet
  facet normal 0 0 1
    outer loop
      vertex 165 -3 1
      vertex 165 0 1
      vertex 145 0 1
    endloop
  endfacet
  facet normal 0 0 1
    outer loop
      vertex 230 0 1
      vertex 250 0 1
      vertex -3 15 1
    endloop
  endfacet
  facet normal 0 0 1
    outer loop
      vertex 165 0 1
      vertex 190 0 1
      vertex -3 15 1
    endloop
  endfacet
  facet normal 0 0 1
    outer loop
      vertex 190 -3 1
      vertex 210 -3 1
      vertex 190 0 1
    endloop
  endfacet
  facet normal 0 0 1
    outer loop
      vertex 210 -3 1
      vertex 210 0 1
      vertex 190 0 1
    endloop
  endfacet
  facet normal 0 0 1
    outer loop
      vertex 270 0 1
      vertex 290 0 1
      vertex -3 15 1
    endloop
  endfacet
  facet normal 0 0 1
    outer loop
      vertex 210 0 1
      vertex 230 0 1
      vertex -3 15 1
    endloop
  endfacet
  facet normal 0 0 1
    outer loop
      vertex 230 -3 1
      vertex 250 -3 1
      vertex 230 0 1
    endloop
  endfacet
  facet normal 0 0 1
    outer loop
      vertex 250 -3 1
      vertex 250 0 1
      vertex 230 0 1
    endloop
  endfacet
  facet normal 0 0 1
    outer loop
      vertex 310 3 1
      vertex 313 3 1
      vertex -3 15 1
    endloop
  endfacet
  facet normal 0 0 1
    outer loop
      vertex 250 0 1
      vertex 270 0 1
      vertex -3 15 1
    endloop
  endfacet
  facet normal 0 0 1
    outer loop
      vertex 270 -3 1
      vertex 290 -3 1
      vertex 270 0 1
    endloop
  endfacet
  facet normal 0 0 1
    outer loop
      vertex 290 -3 1
      vertex 290 0 1
      vertex 270 0 1
    endloop
  endfacet
  facet normal 0 0 1
    outer loop
      vertex 290 0 1
      vertex 310 0 1
      vertex -3 15 1
    endloop
  endfacet
  facet normal 0 0 1
    outer loop
      vertex 310 0 1
      vertex 310 3 1
      vertex -3 15 1
    endloop
  endfacet
  facet normal 0 0 1
    outer loop
      vertex 313 3 1
      vertex 310 15 1
      vertex 0 15 1
    endloop
  endfacet
  facet normal 0 0 1
    outer loop
      vertex 313 3 1
      vertex 313 15 1
      vertex 310 15 1
    endloop
  endfacet
  facet normal 0 0 1
    outer loop
      vertex 270 18 1
      vertex 290 18 1
      vertex 290 21 1
    endloop
  endfacet
  facet normal 0 0 1
    outer loop
      vertex 165 18 1
      vertex 0 15 1
      vertex 190 18 1
    endloop
  endfacet
  facet normal 0 0 1
    outer loop
      vertex 190 18 1
      vertex 0 15 1
      vertex 210 18 1
    endloop
  endfacet
  facet normal 0 0 1
    outer loop
      vertex 210 18 1
      vertex 0 15 1
      vertex 230 18 1
    endloop
  endfacet
  facet normal 0 0 1
    outer loop
      vertex 120 18 1
      vertex 120 21 1
      vertex 100 18 1
    endloop
  endfacet
  facet normal 0 0 1
    outer loop
      vertex 250 18 1
      vertex 250 21 1
      vertex 230 18 1
    endloop
  endfacet
  facet normal 0 0 1
    outer loop
      vertex 230 18 1
      vertex 0 15 1
      vertex 250 18 1
    endloop
  endfacet
  facet normal 0 0 1
    outer loop
      vertex 210 18 1
      vertex 210 21 1
      vertex 190 18 1
    endloop
  endfacet
  facet normal 0 0 1
    outer loop
      vertex 60 21 1
      vertex 60 18 1
      vertex 80 21 1
    endloop
  endfacet
  facet normal 0 0 1
    outer loop
      vertex 80 18 1
      vertex 80 21 1
      vertex 60 18 1
    endloop
  endfacet
  facet normal 0 0 1
    outer loop
      vertex 100 21 1
      vertex 100 18 1
      vertex 120 21 1
    endloop
  endfacet
  facet normal 0 0 1
    outer loop
      vertex 165 18 1
      vertex 165 21 1
      vertex 145 18 1
    endloop
  endfacet
  facet normal 0 0 1
    outer loop
      vertex 270 18 1
      vertex 0 15 1
      vertex 290 18 1
    endloop
  endfacet
  facet normal 0 0 1
    outer loop
      vertex 40 18 1
      vertex 40 21 1
      vertex 20 18 1
    endloop
  endfacet
  facet normal 0 0 1
    outer loop
      vertex 250 18 1
      vertex 0 15 1
      vertex 270 18 1
    endloop
  endfacet
  facet normal 0 0 1
    outer loop
      vertex 290 18 1
      vertex 0 15 1
      vertex 310 18 1
    endloop
  endfacet
  facet normal 0 0 1
    outer loop
      vertex 20 21 1
      vertex 20 18 1
      vertex 40 21 1
    endloop
  endfacet
  facet normal 0 0 1
    outer loop
      vertex 313 3 1
      vertex 0 15 1
      vertex -3 15 1
    endloop
  endfacet
  facet normal 0 0 1
    outer loop
      vertex 310 15 1
      vertex 310 18 1
      vertex 0 15 1
    endloop
  endfacet
  facet normal 0 0 1
    outer loop
      vertex 145 21 1
      vertex 145 18 1
      vertex 165 21 1
    endloop
  endfacet
  facet normal 0 0 1
    outer loop
      vertex 190 21 1
      vertex 190 18 1
      vertex 210 21 1
    endloop
  endfacet
  facet normal 0 0 1
    outer loop
      vertex 230 21 1
      vertex 230 18 1
      vertex 250 21 1
    endloop
  endfacet
  facet normal 0 0 1
    outer loop
      vertex 270 21 1
      vertex 270 18 1
      vertex 290 21 1
    endloop
  endfacet
  facet normal 0 0 1
    outer loop
      vertex 145 18 1
      vertex 0 15 1
      vertex 165 18 1
    endloop
  endfacet
  facet normal 0 0 1
    outer loop
      vertex 120 18 1
      vertex 0 15 1
      vertex 145 18 1
    endloop
  endfacet
  facet normal 0 0 1
    outer loop
      vertex 100 18 1
      vertex 0 15 1
      vertex 120 18 1
    endloop
  endfacet
  facet normal 0 0 1
    outer loop
      vertex 80 18 1
      vertex 0 15 1
      vertex 100 18 1
    endloop
  endfacet
  facet normal 0 0 1
    outer loop
      vertex 60 18 1
      vertex 0 15 1
      vertex 80 18 1
    endloop
  endfacet
  facet normal 0 0 1
    outer loop
      vertex 40 18 1
      vertex 0 15 1
      vertex 60 18 1
    endloop
  endfacet
  facet normal 0 0 1
    outer loop
      vertex 20 18 1
      vertex 0 15 1
      vertex 40 18 1
    endloop
  endfacet
  facet normal 0 0 1
    outer loop
      vertex 0 18 1
      vertex 0 15 1
      vertex 20 18 1
    endloop
  endfacet
  facet normal -1 0 0
    outer loop
      vertex 0 0 0
      vertex 0 0 1
      vertex 0 3 0
    endloop
  endfacet
  facet normal -1 0 0
    outer loop
      vertex 0 3 0
      vertex 0 0 1
      vertex 0 3 1
    endloop
  endfacet
  facet normal 0 -1 0
    outer loop
      vertex 0 0 1
      vertex 0 0 0
      vertex 20 0 0
    endloop
  endfacet
  facet normal 0 -1 0
    outer loop
      vertex 20 0 1
      vertex 0 0 1
      vertex 20 0 0
    endloop
  endfacet
  facet normal -1 0 0
    outer loop
      vertex 20 -3 0
      vertex 20 -3 1
      vertex 20 0 0
    endloop
  endfacet
  facet normal -1 0 0
    outer loop
      vertex 20 0 0
      vertex 20 -3 1
      vertex 20 0 1
    endloop
  endfacet
  facet normal 0 -1 0
    outer loop
      vertex 20 -3 1
      vertex 20 -3 0
      vertex 40 -3 0
    endloop
  endfacet
  facet normal 0 -1 0
    outer loop
      vertex 40 -3 1
      vertex 20 -3 1
      vertex 40 -3 0
    endloop
  endfacet
  facet normal 1 0 0
    outer loop
      vertex 40 -3 1
      vertex 40 -3 0
      vertex 40 0 0
    endloop
  endfacet
  facet normal 1 0 0
    outer loop
      vertex 40 0 1
      vertex 40 -3 1
      vertex 40 0 0
    endloop
  endfacet
  facet normal 0 -1 0
    outer loop
      vertex 40 0 1
      vertex 40 0 0
      vertex 60 0 0
    endloop
  endfacet
  facet normal 0 -1 0
    outer loop
      vertex 60 0 1
      vertex 40 0 1
      vertex 60 0 0
    endloop
  endfacet
  facet normal -1 0 0
    outer loop
      vertex 60 -3 0
      vertex 60 -3 1
      vertex 60 0 0
    endloop
  endfacet
  facet normal -1 0 0
    outer loop
      vertex 60 0 0
      vertex 60 -3 1
      vertex 60 0 1
    endloop
  endfacet
  facet normal 0 -1 0
    outer loop
      vertex 60 -3 1
      vertex 60 -3 0
      vertex 80 -3 0
    endloop
  endfacet
  facet normal 0 -1 0
    outer loop
      vertex 80 -3 1
      vertex 60 -3 1
      vertex 80 -3 0
    endloop
  endfacet
  facet normal 1 0 0
    outer loop
      vertex 80 -3 1
      vertex 80 -3 0
      vertex 80 0 0
    endloop
  endfacet
  facet normal 1 0 0
    outer loop
      vertex 80 0 1
      vertex 80 -3 1
      vertex 80 0 0
    endloop
  endfacet
  facet normal 0 -1 0
    outer loop
      vertex 80 0 1
      vertex 80 0 0
      vertex 100 0 0
    endloop
  endfacet
  facet normal 0 -1 0
    outer loop
      vertex 100 0 1
      vertex 80 0 1
      vertex 100 0 0
    endloop
  endfacet
  facet normal -1 0 0
    outer loop
      vertex 100 -3 0
      vertex 100 -3 1
      vertex 100 0 0
    endloop
  endfacet
  facet normal -1 0 0
    outer loop
      vertex 100 0 0
      vertex 100 -3 1
      vertex 100 0 1
    endloop
  endfacet
  facet normal 0 -1 0
    outer loop
      vertex 100 -3 1
      vertex 100 -3 0
      vertex 120 -3 0
    endloop
  endfacet
  facet normal 0 -1 0
    outer loop
      vertex 120 -3 1
      vertex 100 -3 1
      vertex 120 -3 0
    endloop
  endfacet
  facet normal 1 0 0
    outer loop
      vertex 120 -3 1
      vertex 120 -3 0
      vertex 120 0 0
    endloop
  endfacet
  facet normal 1 0 0
    outer loop
      vertex 120 0 1
      vertex 120 -3 1
      vertex 120 0 0
    endloop
  endfacet
  facet normal 0 -1 0
    outer loop
      vertex 120 0 1
      vertex 120 0 0
      vertex 145 0 0
    endloop
  endfacet
  facet normal 0 -1 0
    outer loop
      vertex 145 0 1
      vertex 120 0 1
      vertex 145 0 0
    endloop
  endfacet
  facet normal -1 0 0
    outer loop
      vertex 145 -3 0
      vertex 145 -3 1
      vertex 145 0 0
    endloop
  endfacet
  facet normal -1 0 0
    outer loop
      vertex 145 0 0
      vertex 145 -3 1
      vertex 145 0 1
    endloop
  endfacet
  facet normal 0 -1 0
    outer loop
      vertex 145 -3 1
      vertex 145 -3 0
      vertex 165 -3 0
    endloop
  endfacet
  facet normal 0 -1 0
    outer loop
      vertex 165 -3 1
      vertex 145 -3 1
      vertex 165 -3 0
    endloop
  endfacet
  facet normal 1 0 0
    outer loop
      vertex 165 -3 1
      vertex 165 -3 0
      vertex 165 0 0
    endloop
  endfacet
  facet normal 1 0 0
    outer loop
      vertex 165 0 1
      vertex 165 -3 1
      vertex 165 0 0
    endloop
  endfacet
  facet normal 0 -1 0
    outer loop
      vertex 165 0 1
      vertex 165 0 0
      vertex 190 0 0
    endloop
  endfacet
  facet normal 0 -1 0
    outer loop
      vertex 190 0 1
      vertex 165 0 1
      vertex 190 0 0
    endloop
  endfacet
  facet normal -1 0 0
    outer loop
      vertex 190 -3 0
      vertex 190 -3 1
      vertex 190 0 0
    endloop
  endfacet
  facet normal -1 0 0
    outer loop
      vertex 190 0 0
      vertex 190 -3 1
      vertex 190 0 1
    endloop
  endfacet
  facet normal 0 -1 0
    outer loop
      vertex 190 -3 1
      vertex 190 -3 0
      vertex 210 -3 0
    endloop
  endfacet
  facet normal 0 -1 0
    outer loop
      vertex 210 -3 1
      vertex 190 -3 1
      vertex 210 -3 0
    endloop
  endfacet
  facet normal 1 0 0
    outer loop
      vertex 210 -3 1
      vertex 210 -3 0
      vertex 210 0 0
    endloop
  endfacet
  facet normal 1 0 0
    outer loop
      vertex 210 0 1
      vertex 210 -3 1
      vertex 210 0 0
    endloop
  endfacet
  facet normal 0 -1 0
    outer loop
      vertex 210 0 1
      vertex 210 0 0
      vertex 230 0 0
    endloop
  endfacet
  facet normal 0 -1 0
    outer loop
      vertex 230 0 1
      vertex 210 0 1
      vertex 230 0 0
    endloop
  endfacet
  facet normal -1 0 0
    outer loop
      vertex 230 -3 0
      vertex 230 -3 1
      vertex 230 0 0
    endloop
  endfacet
  facet normal -1 0 0
    outer loop
      vertex 230 0 0
      vertex 230 -3 1
      vertex 230 0 1
    endloop
  endfacet
  facet normal 0 -1 0
    outer loop
      vertex 230 -3 1
      vertex 230 -3 0
      vertex 250 -3 0
    endloop
  endfacet
  facet normal 0 -1 0
    outer loop
      vertex 250 -3 1
      vertex 230 -3 1
      vertex 250 -3 0
    endloop
  endfacet
  facet normal 1 0 0
    outer loop
      vertex 250 -3 1
      vertex 250 -3 0
      vertex 250 0 0
    endloop
  endfacet
  facet normal 1 0 0
    outer loop
      vertex 250 0 1
      vertex 250 -3 1
      vertex 250 0 0
    endloop
  endfacet
  facet normal 0 -1 0
    outer loop
      vertex 250 0 1
      vertex 250 0 0
      vertex 270 0 0
    endloop
  endfacet
  facet normal 0 -1 0
    outer loop
      vertex 270 0 1
      vertex 250 0 1
      vertex 270 0 0
    endloop
  endfacet
  facet normal -1 0 0
    outer loop
      vertex 270 -3 0
      vertex 270 -3 1
      vertex 270 0 0
    endloop
  endfacet
  facet normal -1 0 0
    outer loop
      vertex 270 0 0
      vertex 270 -3 1
      vertex 270 0 1
    endloop
  endfacet
  facet normal 0 -1 0
    outer loop
      vertex 270 -3 1
      vertex 270 -3 0
      vertex 290 -3 0
    endloop
  endfacet
  facet normal 0 -1 0
    outer loop
      vertex 290 -3 1
      vertex 270 -3 1
      vertex 290 -3 0
    endloop
  endfacet
  facet normal 1 0 0
    outer loop
      vertex 290 -3 1
      vertex 290 -3 0
      vertex 290 0 0
    endloop
  endfacet
  facet normal 1 0 0
    outer loop
      vertex 290 0 1
      vertex 290 -3 1
      vertex 290 0 0
    endloop
  endfacet
  facet normal 0 -1 0
    outer loop
      vertex 290 0 1
      vertex 290 0 0
      vertex 310 0 0
    endloop
  endfacet
  facet normal 0 -1 0
    outer loop
      vertex 310 0 1
      vertex 290 0 1
      vertex 310 0 0
    endloop
  endfacet
  facet normal 1 0 0
    outer loop
      vertex 310 0 1
      vertex 310 0 0
      vertex 310 3 0
    endloop
  endfacet
  facet normal 1 0 0
    outer loop
      vertex 310 3 1
      vertex 310 0 1
      vertex 310 3 0
    endloop
  endfacet
  facet normal 0 -1 0
    outer loop
      vertex 310 3 1
      vertex 310 3 0
      vertex 313 3 0
    endloop
  endfacet
  facet normal 0 -1 0
    outer loop
      vertex 313 3 1
      vertex 310 3 1
      vertex 313 3 0
    endloop
  endfacet
  facet normal 1 0 0
    outer loop
      vertex 313 3 1
      vertex 313 3 0
      vertex 313 15 0
    endloop
  endfacet
  facet normal 1 0 0
    outer loop
      vertex 313 15 1
      vertex 313 3 1
      vertex 313 15 0
    endloop
  endfacet
  facet normal 0 1 0
    outer loop
      vertex 310 15 0
      vertex 310 15 1
      vertex 313 15 0
    endloop
  endfacet
  facet normal 0 1 0
    outer loop
      vertex 313 15 0
      vertex 310 15 1
      vertex 313 15 1
    endloop
  endfacet
  facet normal 1 0 0
    outer loop
      vertex 310 15 1
      vertex 310 15 0
      vertex 310 18 0
    endloop
  endfacet
  facet normal 1 0 0
    outer loop
      vertex 310 18 1
      vertex 310 15 1
      vertex 310 18 0
    endloop
  endfacet
  facet normal 0 1 0
    outer loop
      vertex 290 18 0
      vertex 290 18 1
      vertex 310 18 0
    endloop
  endfacet
  facet normal 0 1 0
    outer loop
      vertex 310 18 0
      vertex 290 18 1
      vertex 310 18 1
    endloop
  endfacet
  facet normal 1 0 0
    outer loop
      vertex 290 18 1
      vertex 290 18 0
      vertex 290 21 0
    endloop
  endfacet
  facet normal 1 0 0
    outer loop
      vertex 290 21 1
      vertex 290 18 1
      vertex 290 21 0
    endloop
  endfacet
  facet normal 0 1 0
    outer loop
      vertex 270 21 0
      vertex 270 21 1
      vertex 290 21 0
    endloop
  endfacet
  facet normal 0 1 0
    outer loop
      vertex 290 21 0
      vertex 270 21 1
      vertex 290 21 1
    endloop
  endfacet
  facet normal -1 0 0
    outer loop
      vertex 270 18 0
      vertex 270 18 1
      vertex 270 21 0
    endloop
  endfacet
  facet normal -1 0 0
    outer loop
      vertex 270 21 0
      vertex 270 18 1
      vertex 270 21 1
    endloop
  endfacet
  facet normal 0 1 0
    outer loop
      vertex 250 18 0
      vertex 250 18 1
      vertex 270 18 0
    endloop
  endfacet
  facet normal 0 1 0
    outer loop
      vertex 270 18 0
      vertex 250 18 1
      vertex 270 18 1
    endloop
  endfacet
  facet normal 1 0 0
    outer loop
      vertex 250 18 1
      vertex 250 18 0
      vertex 250 21 0
    endloop
  endfacet
  facet normal 1 0 0
    outer loop
      vertex 250 21 1
      vertex 250 18 1
      vertex 250 21 0
    endloop
  endfacet
  facet normal 0 1 0
    outer loop
      vertex 230 21 0
      vertex 230 21 1
      vertex 250 21 0
    endloop
  endfacet
  facet normal 0 1 0
    outer loop
      vertex 250 21 0
      vertex 230 21 1
      vertex 250 21 1
    endloop
  endfacet
  facet normal -1 0 0
    outer loop
      vertex 230 18 0
      vertex 230 18 1
      vertex 230 21 0
    endloop
  endfacet
  facet normal -1 0 0
    outer loop
      vertex 230 21 0
      vertex 230 18 1
      vertex 230 21 1
    endloop
  endfacet
  facet normal 0 1 0
    outer loop
      vertex 210 18 0
      vertex 210 18 1
      vertex 230 18 0
    endloop
  endfacet
  facet normal 0 1 0
    outer loop
      vertex 230 18 0
      vertex 210 18 1
      vertex 230 18 1
    endloop
  endfacet
  facet normal 1 0 0
    outer loop
      vertex 210 18 1
      vertex 210 18 0
      vertex 210 21 0
    endloop
  endfacet
  facet normal 1 0 0
    outer loop
      vertex 210 21 1
      vertex 210 18 1
      vertex 210 21 0
    endloop
  endfacet
  facet normal 0 1 0
    outer loop
      vertex 190 21 0
      vertex 190 21 1
      vertex 210 21 0
    endloop
  endfacet
  facet normal 0 1 0
    outer loop
      vertex 210 21 0
      vertex 190 21 1
      vertex 210 21 1
    endloop
  endfacet
  facet normal -1 0 0
    outer loop
      vertex 190 18 0
      vertex 190 18 1
      vertex 190 21 0
    endloop
  endfacet
  facet normal -1 0 0
    outer loop
      vertex 190 21 0
      vertex 190 18 1
      vertex 190 21 1
    endloop
  endfacet
  facet normal 0 1 0
    outer loop
      vertex 165 18 0
      vertex 165 18 1
      vertex 190 18 0
    endloop
  endfacet
  facet normal 0 1 0
    outer loop
      vertex 190 18 0
      vertex 165 18 1
      vertex 190 18 1
    endloop
  endfacet
  facet normal 1 0 0
    outer loop
      vertex 165 18 1
      vertex 165 18 0
      vertex 165 21 0
    endloop
  endfacet
  facet normal 1 0 0
    outer loop
      vertex 165 21 1
      vertex 165 18 1
      vertex 165 21 0
    endloop
  endfacet
  facet normal 0 1 0
    outer loop
      vertex 145 21 0
      vertex 145 21 1
      vertex 165 21 0
    endloop
  endfacet
  facet normal 0 1 0
    outer loop
      vertex 165 21 0
      vertex 145 21 1
      vertex 165 21 1
    endloop
  endfacet
  facet normal -1 0 0
    outer loop
      vertex 145 18 0
      vertex 145 18 1
      vertex 145 21 0
    endloop
  endfacet
  facet normal -1 0 0
    outer loop
      vertex 145 21 0
      vertex 145 18 1
      vertex 145 21 1
    endloop
  endfacet
  facet normal 0 1 0
    outer loop
      vertex 120 18 0
      vertex 120 18 1
      vertex 145 18 0
    endloop
  endfacet
  facet normal 0 1 0
    outer loop
      vertex 145 18 0
      vertex 120 18 1
      vertex 145 18 1
    endloop
  endfacet
  facet normal 1 0 0
    outer loop
      vertex 120 18 1
      vertex 120 18 0
      vertex 120 21 0
    endloop
  endfacet
  facet normal 1 0 0
    outer loop
      vertex 120 21 1
      vertex 120 18 1
      vertex 120 21 0
    endloop
  endfacet
  facet normal 0 1 0
    outer loop
      vertex 100 21 0
      vertex 100 21 1
      vertex 120 21 0
    endloop
  endfacet
  facet normal 0 1 0
    outer loop
      vertex 120 21 0
      vertex 100 21 1
      vertex 120 21 1
    endloop
  endfacet
  facet normal -1 0 0
    outer loop
      vertex 100 18 0
      vertex 100 18 1
      vertex 100 21 0
    endloop
  endfacet
  facet normal -1 0 0
    outer loop
      vertex 100 21 0
      vertex 100 18 1
      vertex 100 21 1
    endloop
  endfacet
  facet normal 0 1 0
    outer loop
      vertex 80 18 0
      vertex 80 18 1
      vertex 100 18 0
    endloop
  endfacet
  facet normal 0 1 0
    outer loop
      vertex 100 18 0
      vertex 80 18 1
      vertex 100 18 1
    endloop
  endfacet
  facet normal 1 0 0
    outer loop
      vertex 80 18 1
      vertex 80 18 0
      vertex 80 21 0
    endloop
  endfacet
  facet normal 1 0 0
    outer loop
      vertex 80 21 1
      vertex 80 18 1
      vertex 80 21 0
    endloop
  endfacet
  facet normal 0 1 0
    outer loop
      vertex 60 21 0
      vertex 60 21 1
      vertex 80 21 0
    endloop
  endfacet
  facet normal 0 1 0
    outer loop
      vertex 80 21 0
      vertex 60 21 1
      vertex 80 21 1
    endloop
  endfacet
  facet normal -1 0 0
    outer loop
      vertex 60 18 0
      vertex 60 18 1
      vertex 60 21 0
    endloop
  endfacet
  facet normal -1 0 0
    outer loop
      vertex 60 21 0
      vertex 60 18 1
      vertex 60 21 1
    endloop
  endfacet
  facet normal 0 1 0
    outer loop
      vertex 40 18 0
      vertex 40 18 1
      vertex 60 18 0
    endloop
  endfacet
  facet normal 0 1 0
    outer loop
      vertex 60 18 0
      vertex 40 18 1
      vertex 60 18 1
    endloop
  endfacet
  facet normal 1 0 0
    outer loop
      vertex 40 18 1
      vertex 40 18 0
      vertex 40 21 0
    endloop
  endfacet
  facet normal 1 0 0
    outer loop
      vertex 40 21 1
      vertex 40 18 1
      vertex 40 21 0
    endloop
  endfacet
  facet normal 0 1 0
    outer loop
      vertex 20 21 0
      vertex 20 21 1
      vertex 40 21 0
    endloop
  endfacet
  facet normal 0 1 0
    outer loop
      vertex 40 21 0
      vertex 20 21 1
      vertex 40 21 1
    endloop
  endfacet
  facet normal -1 0 0
    outer loop
      vertex 20 18 0
      vertex 20 18 1
      vertex 20 21 0
    endloop
  endfacet
  facet normal -1 0 0
    outer loop
      vertex 20 21 0
      vertex 20 18 1
      vertex 20 21 1
    endloop
  endfacet
  facet normal 0 1 0
    outer loop
      vertex 0 18 0
      vertex 0 18 1
      vertex 20 18 0
    endloop
  endfacet
  facet normal 0 1 0
    outer loop
      vertex 20 18 0
      vertex 0 18 1
      vertex 20 18 1
    endloop
  endfacet
  facet normal -1 0 0
    outer loop
      vertex 0 15 0
      vertex 0 15 1
      vertex 0 18 0
    endloop
  endfacet
  facet normal -1 0 0
    outer loop
      vertex 0 18 0
      vertex 0 15 1
      vertex 0 18 1
    endloop
  endfacet
endsolid OpenSCAD_Model
