  0
SECTION
  2
BLOCKS
  0
ENDSEC
  0
SECTION
  2
ENTITIES
  0
LINE
  8
0
 10
0
 11
0
 20
0
 21
310
  0
LINE
  8
0
 10
0
 11
245
 20
310
 21
310
  0
LINE
  8
0
 10
245
 11
245
 20
310
 21
0
  0
LINE
  8
0
 10
245
 11
0
 20
0
 21
0
  0
LINE
  8
0
 10
12
 11
12
 20
12
 21
58
  0
LINE
  8
0
 10
12
 11
54
 20
58
 21
58
  0
LINE
  8
0
 10
54
 11
54
 20
58
 21
12
  0
LINE
  8
0
 10
54
 11
12
 20
12
 21
12
  0
LINE
  8
0
 10
12
 11
12
 20
76
 21
122
  0
LINE
  8
0
 10
12
 11
54
 20
122
 21
122
  0
LINE
  8
0
 10
54
 11
54
 20
122
 21
76
  0
LINE
  8
0
 10
54
 11
12
 20
76
 21
76
  0
LINE
  8
0
 10
72
 11
72
 20
12
 21
58
  0
LINE
  8
0
 10
72
 11
114
 20
58
 21
58
  0
LINE
  8
0
 10
114
 11
114
 20
58
 21
12
  0
LINE
  8
0
 10
114
 11
72
 20
12
 21
12
  0
LINE
  8
0
 10
72
 11
72
 20
76
 21
122
  0
LINE
  8
0
 10
72
 11
114
 20
122
 21
122
  0
LINE
  8
0
 10
114
 11
114
 20
122
 21
76
  0
LINE
  8
0
 10
114
 11
72
 20
76
 21
76
  0
LINE
  8
0
 10
132
 11
132
 20
12
 21
58
  0
LINE
  8
0
 10
132
 11
174
 20
58
 21
58
  0
LINE
  8
0
 10
174
 11
174
 20
58
 21
12
  0
LINE
  8
0
 10
174
 11
132
 20
12
 21
12
  0
LINE
  8
0
 10
132
 11
132
 20
76
 21
122
  0
LINE
  8
0
 10
132
 11
174
 20
122
 21
122
  0
LINE
  8
0
 10
174
 11
174
 20
122
 21
76
  0
LINE
  8
0
 10
174
 11
132
 20
76
 21
76
  0
LINE
  8
0
 10
192
 11
192
 20
12
 21
58
  0
LINE
  8
0
 10
192
 11
234
 20
58
 21
58
  0
LINE
  8
0
 10
234
 11
234
 20
58
 21
12
  0
LINE
  8
0
 10
234
 11
192
 20
12
 21
12
  0
LINE
  8
0
 10
192
 11
192
 20
76
 21
122
  0
LINE
  8
0
 10
192
 11
234
 20
122
 21
122
  0
LINE
  8
0
 10
234
 11
234
 20
122
 21
76
  0
LINE
  8
0
 10
234
 11
192
 20
76
 21
76
  0
ENDSEC
  0
SECTION
  2
OBJECTS
  0
DICTIONARY
  0
ENDSEC
  0
EOF
