  0
SECTION
  2
BLOCKS
  0
ENDSEC
  0
SECTION
  2
ENTITIES
  0
LINE
  8
0
 10
-3
 11
-3
 20
60
 21
80
  0
LINE
  8
0
 10
-3
 11
0
 20
80
 21
80
  0
LINE
  8
0
 10
0
 11
0
 20
80
 21
230
  0
LINE
  8
0
 10
0
 11
-3
 20
230
 21
230
  0
LINE
  8
0
 10
-3
 11
-3
 20
230
 21
250
  0
LINE
  8
0
 10
-3
 11
0
 20
250
 21
250
  0
LINE
  8
0
 10
0
 11
0
 20
250
 21
310
  0
LINE
  8
0
 10
0
 11
239.995
 20
310
 21
309.999
  0
LINE
  8
0
 10
239.995
 11
240
 20
309.999
 21
310
  0
LINE
  8
0
 10
240
 11
241.913
 20
310
 21
309.619
  0
LINE
  8
0
 10
241.913
 11
243.536
 20
309.619
 21
308.536
  0
LINE
  8
0
 10
243.536
 11
244.619
 20
308.536
 21
306.913
  0
LINE
  8
0
 10
244.619
 11
245
 20
306.913
 21
305
  0
LINE
  8
0
 10
245
 11
245
 20
305
 21
304.995
  0
LINE
  8
0
 10
245
 11
244.999
 20
304.995
 21
5.005
  0
LINE
  8
0
 10
244.999
 11
245
 20
5.005
 21
5
  0
LINE
  8
0
 10
245
 11
244.619
 20
5
 21
3.087
  0
LINE
  8
0
 10
244.619
 11
243.536
 20
3.087
 21
1.464
  0
LINE
  8
0
 10
243.536
 11
241.913
 20
1.464
 21
0.381
  0
LINE
  8
0
 10
241.913
 11
240
 20
0.381
 21
0
  0
LINE
  8
0
 10
240
 11
0
 20
0
 21
0
  0
LINE
  8
0
 10
0
 11
0
 20
0
 21
60
  0
LINE
  8
0
 10
0
 11
-3
 20
60
 21
60
  0
LINE
  8
0
 10
12
 11
12
 20
12
 21
58
  0
LINE
  8
0
 10
12
 11
54
 20
58
 21
58
  0
LINE
  8
0
 10
54
 11
54
 20
58
 21
12
  0
LINE
  8
0
 10
54
 11
12
 20
12
 21
12
  0
LINE
  8
0
 10
12
 11
12
 20
76
 21
122
  0
LINE
  8
0
 10
12
 11
54
 20
122
 21
122
  0
LINE
  8
0
 10
54
 11
54
 20
122
 21
76
  0
LINE
  8
0
 10
54
 11
12
 20
76
 21
76
  0
LINE
  8
0
 10
72
 11
72
 20
12
 21
58
  0
LINE
  8
0
 10
72
 11
114
 20
58
 21
58
  0
LINE
  8
0
 10
114
 11
114
 20
58
 21
12
  0
LINE
  8
0
 10
114
 11
72
 20
12
 21
12
  0
LINE
  8
0
 10
72
 11
72
 20
76
 21
122
  0
LINE
  8
0
 10
72
 11
114
 20
122
 21
122
  0
LINE
  8
0
 10
114
 11
114
 20
122
 21
76
  0
LINE
  8
0
 10
114
 11
72
 20
76
 21
76
  0
LINE
  8
0
 10
132
 11
132
 20
12
 21
58
  0
LINE
  8
0
 10
132
 11
174
 20
58
 21
58
  0
LINE
  8
0
 10
174
 11
174
 20
58
 21
12
  0
LINE
  8
0
 10
174
 11
132
 20
12
 21
12
  0
LINE
  8
0
 10
132
 11
132
 20
76
 21
122
  0
LINE
  8
0
 10
132
 11
174
 20
122
 21
122
  0
LINE
  8
0
 10
174
 11
174
 20
122
 21
76
  0
LINE
  8
0
 10
174
 11
132
 20
76
 21
76
  0
LINE
  8
0
 10
192
 11
192
 20
12
 21
58
  0
LINE
  8
0
 10
192
 11
234
 20
58
 21
58
  0
LINE
  8
0
 10
234
 11
234
 20
58
 21
12
  0
LINE
  8
0
 10
234
 11
192
 20
12
 21
12
  0
LINE
  8
0
 10
192
 11
192
 20
76
 21
122
  0
LINE
  8
0
 10
192
 11
234
 20
122
 21
122
  0
LINE
  8
0
 10
234
 11
234
 20
122
 21
76
  0
LINE
  8
0
 10
234
 11
192
 20
76
 21
76
  0
ENDSEC
  0
SECTION
  2
OBJECTS
  0
DICTIONARY
  0
ENDSEC
  0
EOF
