  0
SECTION
  2
BLOCKS
  0
ENDSEC
  0
SECTION
  2
ENTITIES
  0
LINE
  8
0
 10
0
 11
0
 20
0
 21
310
  0
LINE
  8
0
 10
0
 11
40
 20
310
 21
310
  0
LINE
  8
0
 10
40
 11
40
 20
310
 21
313
  0
LINE
  8
0
 10
40
 11
60
 20
313
 21
313
  0
LINE
  8
0
 10
60
 11
60
 20
313
 21
310
  0
LINE
  8
0
 10
60
 11
243.995
 20
310
 21
310
  0
LINE
  8
0
 10
243.995
 11
243.995
 20
310
 21
309.852
  0
LINE
  8
0
 10
243.995
 11
244.809
 20
309.852
 21
309.588
  0
LINE
  8
0
 10
244.809
 11
244.809
 20
309.588
 21
308.995
  0
LINE
  8
0
 10
244.809
 11
245
 20
308.995
 21
308.995
  0
LINE
  8
0
 10
245
 11
244.999
 20
308.995
 21
5.005
  0
LINE
  8
0
 10
244.999
 11
245
 20
5.005
 21
5
  0
LINE
  8
0
 10
245
 11
244.619
 20
5
 21
3.087
  0
LINE
  8
0
 10
244.619
 11
243.536
 20
3.087
 21
1.464
  0
LINE
  8
0
 10
243.536
 11
241.913
 20
1.464
 21
0.381
  0
LINE
  8
0
 10
241.913
 11
240
 20
0.381
 21
0
  0
LINE
  8
0
 10
240
 11
60
 20
0
 21
0
  0
LINE
  8
0
 10
60
 11
60
 20
0
 21
-3
  0
LINE
  8
0
 10
60
 11
40
 20
-3
 21
-3
  0
LINE
  8
0
 10
40
 11
40
 20
-3
 21
0
  0
LINE
  8
0
 10
40
 11
0
 20
0
 21
0
  0
LINE
  8
0
 10
12
 11
12
 20
12
 21
58
  0
LINE
  8
0
 10
12
 11
54
 20
58
 21
58
  0
LINE
  8
0
 10
54
 11
54
 20
58
 21
12
  0
LINE
  8
0
 10
54
 11
12
 20
12
 21
12
  0
LINE
  8
0
 10
12
 11
12
 20
76
 21
122
  0
LINE
  8
0
 10
12
 11
54
 20
122
 21
122
  0
LINE
  8
0
 10
54
 11
54
 20
122
 21
76
  0
LINE
  8
0
 10
54
 11
12
 20
76
 21
76
  0
LINE
  8
0
 10
12
 11
12
 20
132
 21
169
  0
LINE
  8
0
 10
12
 11
109
 20
169
 21
169
  0
LINE
  8
0
 10
109
 11
109
 20
169
 21
132
  0
LINE
  8
0
 10
109
 11
12
 20
132
 21
132
  0
LINE
  8
0
 10
12
 11
12
 20
197
 21
250
  0
LINE
  8
0
 10
12
 11
43
 20
250
 21
250
  0
LINE
  8
0
 10
43
 11
43
 20
250
 21
197
  0
LINE
  8
0
 10
43
 11
12
 20
197
 21
197
  0
LINE
  8
0
 10
61
 11
61
 20
220
 21
238
  0
LINE
  8
0
 10
61
 11
79
 20
238
 21
238
  0
LINE
  8
0
 10
79
 11
79
 20
238
 21
220
  0
LINE
  8
0
 10
79
 11
61
 20
220
 21
220
  0
LINE
  8
0
 10
65
 11
65
 20
268
 21
286
  0
LINE
  8
0
 10
65
 11
103
 20
286
 21
286
  0
LINE
  8
0
 10
103
 11
103
 20
286
 21
268
  0
LINE
  8
0
 10
103
 11
65
 20
268
 21
268
  0
LINE
  8
0
 10
72
 11
72
 20
12
 21
58
  0
LINE
  8
0
 10
72
 11
114
 20
58
 21
58
  0
LINE
  8
0
 10
114
 11
114
 20
58
 21
12
  0
LINE
  8
0
 10
114
 11
72
 20
12
 21
12
  0
LINE
  8
0
 10
72
 11
72
 20
76
 21
122
  0
LINE
  8
0
 10
72
 11
114
 20
122
 21
122
  0
LINE
  8
0
 10
114
 11
114
 20
122
 21
76
  0
LINE
  8
0
 10
114
 11
72
 20
76
 21
76
  0
LINE
  8
0
 10
115
 11
115
 20
255
 21
297
  0
LINE
  8
0
 10
115
 11
131
 20
297
 21
297
  0
LINE
  8
0
 10
131
 11
131
 20
297
 21
255
  0
LINE
  8
0
 10
131
 11
115
 20
255
 21
255
  0
LINE
  8
0
 10
132
 11
132
 20
12
 21
58
  0
LINE
  8
0
 10
132
 11
174
 20
58
 21
58
  0
LINE
  8
0
 10
174
 11
174
 20
58
 21
12
  0
LINE
  8
0
 10
174
 11
132
 20
12
 21
12
  0
LINE
  8
0
 10
132
 11
132
 20
76
 21
122
  0
LINE
  8
0
 10
132
 11
174
 20
122
 21
122
  0
LINE
  8
0
 10
174
 11
174
 20
122
 21
76
  0
LINE
  8
0
 10
174
 11
132
 20
76
 21
76
  0
LINE
  8
0
 10
141
 11
141
 20
132
 21
300
  0
LINE
  8
0
 10
141
 11
235
 20
300
 21
300
  0
LINE
  8
0
 10
235
 11
235
 20
300
 21
132
  0
LINE
  8
0
 10
235
 11
141
 20
132
 21
132
  0
LINE
  8
0
 10
192
 11
192
 20
12
 21
58
  0
LINE
  8
0
 10
192
 11
234
 20
58
 21
58
  0
LINE
  8
0
 10
234
 11
234
 20
58
 21
12
  0
LINE
  8
0
 10
234
 11
192
 20
12
 21
12
  0
LINE
  8
0
 10
192
 11
192
 20
76
 21
122
  0
LINE
  8
0
 10
192
 11
234
 20
122
 21
122
  0
LINE
  8
0
 10
234
 11
234
 20
122
 21
76
  0
LINE
  8
0
 10
234
 11
192
 20
76
 21
76
  0
ENDSEC
  0
SECTION
  2
OBJECTS
  0
DICTIONARY
  0
ENDSEC
  0
EOF
