  0
SECTION
  2
BLOCKS
  0
ENDSEC
  0
SECTION
  2
ENTITIES
  0
LINE
  8
0
 10
0
 11
0
 20
0
 21
180
  0
LINE
  8
0
 10
0
 11
56
 20
180
 21
180
  0
LINE
  8
0
 10
56
 11
56
 20
180
 21
225
  0
LINE
  8
0
 10
56
 11
61
 20
225
 21
225
  0
LINE
  8
0
 10
61
 11
61
 20
225
 21
220
  0
LINE
  8
0
 10
61
 11
79
 20
220
 21
220
  0
LINE
  8
0
 10
79
 11
79
 20
220
 21
238
  0
LINE
  8
0
 10
79
 11
61
 20
238
 21
238
  0
LINE
  8
0
 10
61
 11
61
 20
238
 21
233
  0
LINE
  8
0
 10
61
 11
56
 20
233
 21
233
  0
LINE
  8
0
 10
56
 11
56
 20
233
 21
255
  0
LINE
  8
0
 10
56
 11
95
 20
255
 21
255
  0
LINE
  8
0
 10
95
 11
95
 20
255
 21
250
  0
LINE
  8
0
 10
95
 11
91
 20
250
 21
250
  0
LINE
  8
0
 10
91
 11
91
 20
250
 21
216
  0
LINE
  8
0
 10
91
 11
96
 20
216
 21
216
  0
LINE
  8
0
 10
96
 11
96
 20
216
 21
195
  0
LINE
  8
0
 10
96
 11
119
 20
195
 21
195
  0
LINE
  8
0
 10
119
 11
119
 20
195
 21
71
  0
LINE
  8
0
 10
119
 11
114
 20
71
 21
71
  0
LINE
  8
0
 10
114
 11
114
 20
71
 21
122
  0
LINE
  8
0
 10
114
 11
72
 20
122
 21
122
  0
LINE
  8
0
 10
72
 11
72
 20
122
 21
76
  0
LINE
  8
0
 10
72
 11
106
 20
76
 21
76
  0
LINE
  8
0
 10
106
 11
106
 20
76
 21
71
  0
LINE
  8
0
 10
106
 11
54
 20
71
 21
71
  0
LINE
  8
0
 10
54
 11
54
 20
71
 21
122
  0
LINE
  8
0
 10
54
 11
12
 20
122
 21
122
  0
LINE
  8
0
 10
12
 11
12
 20
122
 21
76
  0
LINE
  8
0
 10
12
 11
46
 20
76
 21
76
  0
LINE
  8
0
 10
46
 11
46
 20
76
 21
58
  0
LINE
  8
0
 10
46
 11
12
 20
58
 21
58
  0
LINE
  8
0
 10
12
 11
12
 20
58
 21
12
  0
LINE
  8
0
 10
12
 11
54
 20
12
 21
12
  0
LINE
  8
0
 10
54
 11
54
 20
12
 21
63
  0
LINE
  8
0
 10
54
 11
106
 20
63
 21
63
  0
LINE
  8
0
 10
106
 11
106
 20
63
 21
58
  0
LINE
  8
0
 10
106
 11
72
 20
58
 21
58
  0
LINE
  8
0
 10
72
 11
72
 20
58
 21
12
  0
LINE
  8
0
 10
72
 11
114
 20
12
 21
12
  0
LINE
  8
0
 10
114
 11
114
 20
12
 21
63
  0
LINE
  8
0
 10
114
 11
132
 20
63
 21
63
  0
LINE
  8
0
 10
132
 11
132
 20
63
 21
12
  0
LINE
  8
0
 10
132
 11
174
 20
12
 21
12
  0
LINE
  8
0
 10
174
 11
174
 20
12
 21
58
  0
LINE
  8
0
 10
174
 11
140
 20
58
 21
58
  0
LINE
  8
0
 10
140
 11
140
 20
58
 21
63
  0
LINE
  8
0
 10
140
 11
192
 20
63
 21
63
  0
LINE
  8
0
 10
192
 11
192
 20
63
 21
12
  0
LINE
  8
0
 10
192
 11
234
 20
12
 21
12
  0
LINE
  8
0
 10
234
 11
234
 20
12
 21
58
  0
LINE
  8
0
 10
234
 11
200
 20
58
 21
58
  0
LINE
  8
0
 10
200
 11
200
 20
58
 21
76
  0
LINE
  8
0
 10
200
 11
234
 20
76
 21
76
  0
LINE
  8
0
 10
234
 11
234
 20
76
 21
122
  0
LINE
  8
0
 10
234
 11
192
 20
122
 21
122
  0
LINE
  8
0
 10
192
 11
192
 20
122
 21
71
  0
LINE
  8
0
 10
192
 11
140
 20
71
 21
71
  0
LINE
  8
0
 10
140
 11
140
 20
71
 21
76
  0
LINE
  8
0
 10
140
 11
174
 20
76
 21
76
  0
LINE
  8
0
 10
174
 11
174
 20
76
 21
122
  0
LINE
  8
0
 10
174
 11
132
 20
122
 21
122
  0
LINE
  8
0
 10
132
 11
132
 20
122
 21
71
  0
LINE
  8
0
 10
132
 11
127
 20
71
 21
71
  0
LINE
  8
0
 10
127
 11
127
 20
71
 21
203
  0
LINE
  8
0
 10
127
 11
104
 20
203
 21
203
  0
LINE
  8
0
 10
104
 11
104
 20
203
 21
216
  0
LINE
  8
0
 10
104
 11
109
 20
216
 21
216
  0
LINE
  8
0
 10
109
 11
109
 20
216
 21
250
  0
LINE
  8
0
 10
109
 11
103
 20
250
 21
250
  0
LINE
  8
0
 10
103
 11
103
 20
250
 21
255
  0
LINE
  8
0
 10
103
 11
131
 20
255
 21
255
  0
LINE
  8
0
 10
131
 11
131
 20
255
 21
297
  0
LINE
  8
0
 10
131
 11
115
 20
297
 21
297
  0
LINE
  8
0
 10
115
 11
115
 20
297
 21
263
  0
LINE
  8
0
 10
115
 11
103
 20
263
 21
263
  0
LINE
  8
0
 10
103
 11
103
 20
263
 21
286
  0
LINE
  8
0
 10
103
 11
65
 20
286
 21
286
  0
LINE
  8
0
 10
65
 11
65
 20
286
 21
276
  0
LINE
  8
0
 10
65
 11
53
 20
276
 21
276
  0
LINE
  8
0
 10
53
 11
53
 20
276
 21
298
  0
LINE
  8
0
 10
53
 11
12
 20
298
 21
298
  0
LINE
  8
0
 10
12
 11
12
 20
298
 21
268
  0
LINE
  8
0
 10
12
 11
95
 20
268
 21
268
  0
LINE
  8
0
 10
95
 11
95
 20
268
 21
263
  0
LINE
  8
0
 10
95
 11
48
 20
263
 21
263
  0
LINE
  8
0
 10
48
 11
48
 20
263
 21
233
  0
LINE
  8
0
 10
48
 11
43
 20
233
 21
233
  0
LINE
  8
0
 10
43
 11
43
 20
233
 21
250
  0
LINE
  8
0
 10
43
 11
12
 20
250
 21
250
  0
LINE
  8
0
 10
12
 11
12
 20
250
 21
197
  0
LINE
  8
0
 10
12
 11
43
 20
197
 21
197
  0
LINE
  8
0
 10
43
 11
43
 20
197
 21
225
  0
LINE
  8
0
 10
43
 11
48
 20
225
 21
225
  0
LINE
  8
0
 10
48
 11
48
 20
225
 21
188
  0
LINE
  8
0
 10
48
 11
0
 20
188
 21
188
  0
LINE
  8
0
 10
0
 11
0
 20
188
 21
310
  0
LINE
  8
0
 10
0
 11
239.995
 20
310
 21
309.999
  0
LINE
  8
0
 10
239.995
 11
240
 20
309.999
 21
310
  0
LINE
  8
0
 10
240
 11
241.913
 20
310
 21
309.619
  0
LINE
  8
0
 10
241.913
 11
243.536
 20
309.619
 21
308.536
  0
LINE
  8
0
 10
243.536
 11
244.619
 20
308.536
 21
306.913
  0
LINE
  8
0
 10
244.619
 11
245
 20
306.913
 21
305
  0
LINE
  8
0
 10
245
 11
245
 20
305
 21
304.995
  0
LINE
  8
0
 10
245
 11
244.999
 20
304.995
 21
5.005
  0
LINE
  8
0
 10
244.999
 11
245
 20
5.005
 21
5
  0
LINE
  8
0
 10
245
 11
244.619
 20
5
 21
3.087
  0
LINE
  8
0
 10
244.619
 11
243.536
 20
3.087
 21
1.464
  0
LINE
  8
0
 10
243.536
 11
241.913
 20
1.464
 21
0.381
  0
LINE
  8
0
 10
241.913
 11
240
 20
0.381
 21
0
  0
LINE
  8
0
 10
240
 11
0
 20
0
 21
0
  0
LINE
  8
0
 10
12
 11
12
 20
132
 21
169
  0
LINE
  8
0
 10
12
 11
109
 20
169
 21
169
  0
LINE
  8
0
 10
109
 11
109
 20
169
 21
132
  0
LINE
  8
0
 10
109
 11
12
 20
132
 21
132
  0
LINE
  8
0
 10
141
 11
141
 20
132
 21
300
  0
LINE
  8
0
 10
141
 11
235
 20
300
 21
300
  0
LINE
  8
0
 10
235
 11
235
 20
300
 21
132
  0
LINE
  8
0
 10
235
 11
141
 20
132
 21
132
  0
ENDSEC
  0
SECTION
  2
OBJECTS
  0
DICTIONARY
  0
ENDSEC
  0
EOF
