solid OpenSCAD_Model
  facet normal -1 0 0
    outer loop
      vertex 0 0 0
      vertex 0 0 1
      vertex 0 180 0
    endloop
  endfacet
  facet normal -1 0 0
    outer loop
      vertex 0 180 0
      vertex 0 0 1
      vertex 0 180 1
    endloop
  endfacet
  facet normal 0 -1 0
    outer loop
      vertex 0 0 1
      vertex 0 0 0
      vertex 239.995 0 0
    endloop
  endfacet
  facet normal 0 -1 0
    outer loop
      vertex 239.995 0 1
      vertex 0 0 1
      vertex 239.995 0 0
    endloop
  endfacet
  facet normal 0 0 -1
    outer loop
      vertex 72 76 0
      vertex 54 122 0
      vertex 72 122 0
    endloop
  endfacet
  facet normal 0 0 -1
    outer loop
      vertex 140 71 0
      vertex 140 76 0
      vertex 174 76 0
    endloop
  endfacet
  facet normal 0 0 -1
    outer loop
      vertex 239.995 0.000994561 0
      vertex 244.619 3.08658 0
      vertex 243.536 1.46447 0
    endloop
  endfacet
  facet normal 0 0 -1
    outer loop
      vertex 141 132 0
      vertex 131 297 0
      vertex 141 300 0
    endloop
  endfacet
  facet normal 0 0 -1
    outer loop
      vertex 61 220 0
      vertex 56 225 0
      vertex 61 225 0
    endloop
  endfacet
  facet normal 0 0 -1
    outer loop
      vertex 56 233 0
      vertex 61 238 0
      vertex 61 233 0
    endloop
  endfacet
  facet normal 0 0 -1
    outer loop
      vertex 239.995 0.000994561 0
      vertex 243.536 308.536 0
      vertex 244.619 306.913 0
    endloop
  endfacet
  facet normal 0 0 -1
    outer loop
      vertex 91 216 0
      vertex 79 220 0
      vertex 79 238 0
    endloop
  endfacet
  facet normal 0 0 -1
    outer loop
      vertex 104 203 0
      vertex 109 216 0
      vertex 121 203 0
    endloop
  endfacet
  facet normal 0 0 -1
    outer loop
      vertex 43 225 0
      vertex 48 225 0
      vertex 43 197 0
    endloop
  endfacet
  facet normal 0 0 -1
    outer loop
      vertex 56 255 0
      vertex 61 238 0
      vertex 56 233 0
    endloop
  endfacet
  facet normal 0 0 -1
    outer loop
      vertex 61 238 0
      vertex 56 255 0
      vertex 79 238 0
    endloop
  endfacet
  facet normal 0 0 -1
    outer loop
      vertex 79 238 0
      vertex 56 255 0
      vertex 95 255 0
    endloop
  endfacet
  facet normal 0 0 -1
    outer loop
      vertex 200 58 0
      vertex 200 76 0
      vertex 234 58 0
    endloop
  endfacet
  facet normal 0 0 -1
    outer loop
      vertex 91 250 0
      vertex 95 255 0
      vertex 95 250 0
    endloop
  endfacet
  facet normal 0 0 -1
    outer loop
      vertex 79 238 0
      vertex 95 255 0
      vertex 91 250 0
    endloop
  endfacet
  facet normal 0 0 -1
    outer loop
      vertex 96 195 0
      vertex 79 220 0
      vertex 91 216 0
    endloop
  endfacet
  facet normal 0 0 -1
    outer loop
      vertex 109 250 0
      vertex 121 203 0
      vertex 109 216 0
    endloop
  endfacet
  facet normal 0 0 -1
    outer loop
      vertex 141 132 0
      vertex 131 255 0
      vertex 131 297 0
    endloop
  endfacet
  facet normal 0 0 -1
    outer loop
      vertex 174 122 0
      vertex 192 71 0
      vertex 174 76 0
    endloop
  endfacet
  facet normal 0 0 -1
    outer loop
      vertex 106 63 0
      vertex 72 58 0
      vertex 54 63 0
    endloop
  endfacet
  facet normal 0 0 -1
    outer loop
      vertex 239.995 0.000994561 0
      vertex 243.536 1.46447 0
      vertex 241.913 0.380602 0
    endloop
  endfacet
  facet normal 0 0 -1
    outer loop
      vertex 239.995 0.000994561 0
      vertex 241.913 0.380602 0
      vertex 240 1.11022e-015 0
    endloop
  endfacet
  facet normal 0 0 -1
    outer loop
      vertex 141 132 0
      vertex 127 203 0
      vertex 131 255 0
    endloop
  endfacet
  facet normal 0 0 -1
    outer loop
      vertex 12 122 0
      vertex 12 132 0
      vertex 54 122 0
    endloop
  endfacet
  facet normal 0 0 -1
    outer loop
      vertex 54 71 0
      vertex 72 76 0
      vertex 106 71 0
    endloop
  endfacet
  facet normal 0 0 -1
    outer loop
      vertex 54 12 0
      vertex 0 0 0
      vertex 12 12 0
    endloop
  endfacet
  facet normal 0 0 -1
    outer loop
      vertex 72 12 0
      vertex 54 12 0
      vertex 72 58 0
    endloop
  endfacet
  facet normal 0 0 -1
    outer loop
      vertex 46 58 0
      vertex 12 58 0
      vertex 12 76 0
    endloop
  endfacet
  facet normal 0 0 -1
    outer loop
      vertex 54 122 0
      vertex 72 76 0
      vertex 54 71 0
    endloop
  endfacet
  facet normal 0 0 -1
    outer loop
      vertex 109 132 0
      vertex 72 122 0
      vertex 54 122 0
    endloop
  endfacet
  facet normal 0 0 -1
    outer loop
      vertex 106 71 0
      vertex 72 76 0
      vertex 106 76 0
    endloop
  endfacet
  facet normal 0 0 -1
    outer loop
      vertex 0 0 0
      vertex 0 180 0
      vertex 12 122 0
    endloop
  endfacet
  facet normal 0 0 -1
    outer loop
      vertex 0 0 0
      vertex 12 122 0
      vertex 12 76 0
    endloop
  endfacet
  facet normal 0 0 -1
    outer loop
      vertex 12 12 0
      vertex 0 0 0
      vertex 12 58 0
    endloop
  endfacet
  facet normal 0 0 -1
    outer loop
      vertex 46 58 0
      vertex 12 76 0
      vertex 46 76 0
    endloop
  endfacet
  facet normal 0 0 -1
    outer loop
      vertex 0 0 0
      vertex 12 76 0
      vertex 12 58 0
    endloop
  endfacet
  facet normal 0 0 -1
    outer loop
      vertex 54 63 0
      vertex 72 58 0
      vertex 54 12 0
    endloop
  endfacet
  facet normal 0 0 -1
    outer loop
      vertex 174 58 0
      vertex 192 12 0
      vertex 174 12 0
    endloop
  endfacet
  facet normal 0 0 -1
    outer loop
      vertex 0 0 0
      vertex 54 12 0
      vertex 239.995 0 0
    endloop
  endfacet
  facet normal 0 0 -1
    outer loop
      vertex 234 12 0
      vertex 239.995 0 0
      vertex 192 12 0
    endloop
  endfacet
  facet normal 0 0 -1
    outer loop
      vertex 72 58 0
      vertex 106 63 0
      vertex 106 58 0
    endloop
  endfacet
  facet normal 0 0 -1
    outer loop
      vertex 234 76 0
      vertex 234 58 0
      vertex 200 76 0
    endloop
  endfacet
  facet normal 0 0 -1
    outer loop
      vertex 54 12 0
      vertex 72 12 0
      vertex 239.995 0 0
    endloop
  endfacet
  facet normal 0 0 -1
    outer loop
      vertex 72 12 0
      vertex 114 12 0
      vertex 239.995 0 0
    endloop
  endfacet
  facet normal 0 0 -1
    outer loop
      vertex 132 12 0
      vertex 114 63 0
      vertex 132 63 0
    endloop
  endfacet
  facet normal 0 0 -1
    outer loop
      vertex 114 12 0
      vertex 132 12 0
      vertex 239.995 0 0
    endloop
  endfacet
  facet normal 0 0 -1
    outer loop
      vertex 132 12 0
      vertex 174 12 0
      vertex 239.995 0 0
    endloop
  endfacet
  facet normal 0 0 -1
    outer loop
      vertex 239.995 0.000994561 0
      vertex 245 5 0
      vertex 244.619 3.08658 0
    endloop
  endfacet
  facet normal 0 0 -1
    outer loop
      vertex 12 132 0
      vertex 0 180 0
      vertex 12 169 0
    endloop
  endfacet
  facet normal 0 0 -1
    outer loop
      vertex 174 12 0
      vertex 192 12 0
      vertex 239.995 0 0
    endloop
  endfacet
  facet normal 0 0 -1
    outer loop
      vertex 239.995 0 0
      vertex 234 12 0
      vertex 234 58 0
    endloop
  endfacet
  facet normal 0 0 -1
    outer loop
      vertex 96 195 0
      vertex 91 216 0
      vertex 96 216 0
    endloop
  endfacet
  facet normal 0 0 -1
    outer loop
      vertex 115 263 0
      vertex 103 286 0
      vertex 115 297 0
    endloop
  endfacet
  facet normal 0 0 -1
    outer loop
      vertex 235 132 0
      vertex 192 122 0
      vertex 174 122 0
    endloop
  endfacet
  facet normal 0 0 -1
    outer loop
      vertex 132 122 0
      vertex 141 132 0
      vertex 174 122 0
    endloop
  endfacet
  facet normal 0 0 -1
    outer loop
      vertex 234 58 0
      vertex 234 76 0
      vertex 239.995 0 0
    endloop
  endfacet
  facet normal 0 0 -1
    outer loop
      vertex 234 76 0
      vertex 234 122 0
      vertex 239.995 0 0
    endloop
  endfacet
  facet normal 0 0 -1
    outer loop
      vertex 65 286 0
      vertex 115 297 0
      vertex 103 286 0
    endloop
  endfacet
  facet normal 0 0 -1
    outer loop
      vertex 109 132 0
      vertex 54 122 0
      vertex 12 132 0
    endloop
  endfacet
  facet normal 0 0 -1
    outer loop
      vertex 140 58 0
      vertex 140 63 0
      vertex 174 58 0
    endloop
  endfacet
  facet normal 0 0 -1
    outer loop
      vertex 192 63 0
      vertex 174 58 0
      vertex 140 63 0
    endloop
  endfacet
  facet normal 0 0 -1
    outer loop
      vertex 48 233 0
      vertex 43 250 0
      vertex 48 263 0
    endloop
  endfacet
  facet normal 0 0 -1
    outer loop
      vertex 114 122 0
      vertex 119 71 0
      vertex 114 71 0
    endloop
  endfacet
  facet normal 0 0 -1
    outer loop
      vertex 192 71 0
      vertex 174 122 0
      vertex 192 122 0
    endloop
  endfacet
  facet normal 0 0 -1
    outer loop
      vertex 235 132 0
      vertex 174 122 0
      vertex 141 132 0
    endloop
  endfacet
  facet normal 0 0 -1
    outer loop
      vertex 109 250 0
      vertex 127 203 0
      vertex 121 203 0
    endloop
  endfacet
  facet normal 0 0 -1
    outer loop
      vertex 103 255 0
      vertex 109 250 0
      vertex 103 250 0
    endloop
  endfacet
  facet normal 0 0 -1
    outer loop
      vertex 235 300 0
      vertex 239.995 309.999 0
      vertex 235 132 0
    endloop
  endfacet
  facet normal 0 0 -1
    outer loop
      vertex 109 250 0
      vertex 103 255 0
      vertex 115 255 0
    endloop
  endfacet
  facet normal 0 0 -1
    outer loop
      vertex 54 263 0
      vertex 95 268 0
      vertex 95 263 0
    endloop
  endfacet
  facet normal 0 0 -1
    outer loop
      vertex 235 300 0
      vertex 239.995 310 0
      vertex 239.995 309.999 0
    endloop
  endfacet
  facet normal 0 0 -1
    outer loop
      vertex 239.995 0.000994561 0
      vertex 241.913 309.619 0
      vertex 243.536 308.536 0
    endloop
  endfacet
  facet normal 0 0 -1
    outer loop
      vertex 103 286 0
      vertex 115 263 0
      vertex 103 263 0
    endloop
  endfacet
  facet normal 0 0 -1
    outer loop
      vertex 48 233 0
      vertex 43 233 0
      vertex 43 250 0
    endloop
  endfacet
  facet normal 0 0 -1
    outer loop
      vertex 115 297 0
      vertex 53 298 0
      vertex 131 297 0
    endloop
  endfacet
  facet normal 0 0 -1
    outer loop
      vertex 0 188 0
      vertex 12 197 0
      vertex 43 197 0
    endloop
  endfacet
  facet normal 0 0 -1
    outer loop
      vertex 53 276 0
      vertex 65 286 0
      vertex 65 276 0
    endloop
  endfacet
  facet normal 0 0 -1
    outer loop
      vertex 65 286 0
      vertex 53 276 0
      vertex 53 298 0
    endloop
  endfacet
  facet normal 0 0 -1
    outer loop
      vertex 65 286 0
      vertex 53 298 0
      vertex 115 297 0
    endloop
  endfacet
  facet normal 0 0 -1
    outer loop
      vertex 240 310 0
      vertex 239.995 0.000994561 0
      vertex 239.995 309.999 0
    endloop
  endfacet
  facet normal 0 0 -1
    outer loop
      vertex 53 298 0
      vertex 0 310 0
      vertex 131 297 0
    endloop
  endfacet
  facet normal 0 0 -1
    outer loop
      vertex 0 188 0
      vertex 12 250 0
      vertex 12 197 0
    endloop
  endfacet
  facet normal 0 0 -1
    outer loop
      vertex 95 268 0
      vertex 48 263 0
      vertex 12 268 0
    endloop
  endfacet
  facet normal 0 0 -1
    outer loop
      vertex 95 268 0
      vertex 54 263 0
      vertex 48 263 0
    endloop
  endfacet
  facet normal 0 0 -1
    outer loop
      vertex 0 188 0
      vertex 43 197 0
      vertex 48 188 0
    endloop
  endfacet
  facet normal 0 0 -1
    outer loop
      vertex 91 216 0
      vertex 79 238 0
      vertex 91 250 0
    endloop
  endfacet
  facet normal 0 0 -1
    outer loop
      vertex 12 250 0
      vertex 48 263 0
      vertex 43 250 0
    endloop
  endfacet
  facet normal 0 0 -1
    outer loop
      vertex 239.995 0.000994561 0
      vertex 244.619 306.913 0
      vertex 244.999 304.995 0
    endloop
  endfacet
  facet normal 0 0 -1
    outer loop
      vertex 48 263 0
      vertex 12 250 0
      vertex 12 268 0
    endloop
  endfacet
  facet normal 0 0 -1
    outer loop
      vertex 239.995 0.000994561 0
      vertex 244.999 5.005 0
      vertex 245 5 0
    endloop
  endfacet
  facet normal 0 0 -1
    outer loop
      vertex 48 188 0
      vertex 43 197 0
      vertex 48 225 0
    endloop
  endfacet
  facet normal 0 0 -1
    outer loop
      vertex 239.995 0.000994561 0
      vertex 244.999 304.995 0
      vertex 245 304.995 0
    endloop
  endfacet
  facet normal 0 0 -1
    outer loop
      vertex 0 188 0
      vertex 12 298 0
      vertex 12 268 0
    endloop
  endfacet
  facet normal 0 0 -1
    outer loop
      vertex 0 188 0
      vertex 12 268 0
      vertex 12 250 0
    endloop
  endfacet
  facet normal 0 0 -1
    outer loop
      vertex 239.995 0.000994561 0
      vertex 245 304.995 0
      vertex 244.999 5.005 0
    endloop
  endfacet
  facet normal 0 0 -1
    outer loop
      vertex 239.995 0.000994561 0
      vertex 239.995 0 0
      vertex 239.995 309.999 0
    endloop
  endfacet
  facet normal 0 0 -1
    outer loop
      vertex 12 298 0
      vertex 0 188 0
      vertex 0 310 0
    endloop
  endfacet
  facet normal 0 0 -1
    outer loop
      vertex 12 298 0
      vertex 0 310 0
      vertex 53 298 0
    endloop
  endfacet
  facet normal 0 0 -1
    outer loop
      vertex 141 300 0
      vertex 0 310 0
      vertex 239.995 310 0
    endloop
  endfacet
  facet normal 0 0 -1
    outer loop
      vertex 235 132 0
      vertex 239.995 309.999 0
      vertex 239.995 0 0
    endloop
  endfacet
  facet normal 0 0 -1
    outer loop
      vertex 109 132 0
      vertex 114 122 0
      vertex 72 122 0
    endloop
  endfacet
  facet normal 0 0 -1
    outer loop
      vertex 12 169 0
      vertex 50 180 0
      vertex 56 180 0
    endloop
  endfacet
  facet normal 0 0 -1
    outer loop
      vertex 56 180 0
      vertex 56 225 0
      vertex 61 220 0
    endloop
  endfacet
  facet normal 0 0 -1
    outer loop
      vertex 56 180 0
      vertex 61 220 0
      vertex 109 169 0
    endloop
  endfacet
  facet normal 0 0 -1
    outer loop
      vertex 244.999 304.995 0
      vertex 244.619 306.913 0
      vertex 245 305 0
    endloop
  endfacet
  facet normal 0 0 -1
    outer loop
      vertex 12 169 0
      vertex 56 180 0
      vertex 109 169 0
    endloop
  endfacet
  facet normal 0 0 -1
    outer loop
      vertex 244.999 5.005 0
      vertex 245 304.995 0
      vertex 245 5.005 0
    endloop
  endfacet
  facet normal 0 0 -1
    outer loop
      vertex 141 300 0
      vertex 239.995 310 0
      vertex 235 300 0
    endloop
  endfacet
  facet normal 0 0 -1
    outer loop
      vertex 239.995 0.000994561 0
      vertex 240 310 0
      vertex 241.913 309.619 0
    endloop
  endfacet
  facet normal 0 0 -1
    outer loop
      vertex 12 169 0
      vertex 0 180 0
      vertex 50 180 0
    endloop
  endfacet
  facet normal 0 0 -1
    outer loop
      vertex 114 63 0
      vertex 132 12 0
      vertex 114 12 0
    endloop
  endfacet
  facet normal 0 0 -1
    outer loop
      vertex 12 122 0
      vertex 0 180 0
      vertex 12 132 0
    endloop
  endfacet
  facet normal 0 0 -1
    outer loop
      vertex 131 297 0
      vertex 0 310 0
      vertex 141 300 0
    endloop
  endfacet
  facet normal 0 0 -1
    outer loop
      vertex 127 203 0
      vertex 109 250 0
      vertex 115 255 0
    endloop
  endfacet
  facet normal 0 0 -1
    outer loop
      vertex 234 122 0
      vertex 235 132 0
      vertex 239.995 0 0
    endloop
  endfacet
  facet normal 0 0 -1
    outer loop
      vertex 127 203 0
      vertex 115 255 0
      vertex 131 255 0
    endloop
  endfacet
  facet normal 0 0 -1
    outer loop
      vertex 79 220 0
      vertex 96 195 0
      vertex 109 169 0
    endloop
  endfacet
  facet normal 0 0 -1
    outer loop
      vertex 79 220 0
      vertex 109 169 0
      vertex 61 220 0
    endloop
  endfacet
  facet normal 0 0 -1
    outer loop
      vertex 114 122 0
      vertex 109 132 0
      vertex 109 169 0
    endloop
  endfacet
  facet normal 0 0 -1
    outer loop
      vertex 109 169 0
      vertex 96 195 0
      vertex 104 195 0
    endloop
  endfacet
  facet normal 0 0 -1
    outer loop
      vertex 109 169 0
      vertex 104 195 0
      vertex 119 195 0
    endloop
  endfacet
  facet normal 0 0 -1
    outer loop
      vertex 114 122 0
      vertex 109 169 0
      vertex 119 195 0
    endloop
  endfacet
  facet normal 0 0 -1
    outer loop
      vertex 119 71 0
      vertex 114 122 0
      vertex 119 195 0
    endloop
  endfacet
  facet normal 0 0 -1
    outer loop
      vertex 127 203 0
      vertex 132 71 0
      vertex 127 71 0
    endloop
  endfacet
  facet normal 0 0 -1
    outer loop
      vertex 192 12 0
      vertex 174 58 0
      vertex 192 63 0
    endloop
  endfacet
  facet normal 0 0 -1
    outer loop
      vertex 104 203 0
      vertex 104 216 0
      vertex 109 216 0
    endloop
  endfacet
  facet normal 0 0 -1
    outer loop
      vertex 127 203 0
      vertex 132 122 0
      vertex 132 71 0
    endloop
  endfacet
  facet normal 0 0 -1
    outer loop
      vertex 140 71 0
      vertex 174 76 0
      vertex 192 71 0
    endloop
  endfacet
  facet normal 0 0 -1
    outer loop
      vertex 127 203 0
      vertex 141 132 0
      vertex 132 122 0
    endloop
  endfacet
  facet normal 0 0 -1
    outer loop
      vertex 235 132 0
      vertex 234 122 0
      vertex 192 122 0
    endloop
  endfacet
  facet normal 0 1 0
    outer loop
      vertex 50 180 1
      vertex 50 180 0
      vertex 0 180 1
    endloop
  endfacet
  facet normal 0 1 0
    outer loop
      vertex 0 180 1
      vertex 50 180 0
      vertex 0 180 0
    endloop
  endfacet
  facet normal 0 0 1
    outer loop
      vertex 192 12 1
      vertex 0 0 1
      vertex 239.995 0 1
    endloop
  endfacet
  facet normal 0 0 1
    outer loop
      vertex 192 63 1
      vertex 140 63 1
      vertex 174 58 1
    endloop
  endfacet
  facet normal 0 0 1
    outer loop
      vertex 140 71 1
      vertex 174 76 1
      vertex 140 76 1
    endloop
  endfacet
  facet normal 0 0 1
    outer loop
      vertex 140 71 1
      vertex 192 71 1
      vertex 174 76 1
    endloop
  endfacet
  facet normal 0 0 1
    outer loop
      vertex 234 12 1
      vertex 192 12 1
      vertex 239.995 0 1
    endloop
  endfacet
  facet normal 0 0 1
    outer loop
      vertex 61 233 1
      vertex 61 238 1
      vertex 56 233 1
    endloop
  endfacet
  facet normal 0 0 1
    outer loop
      vertex 79 238 1
      vertex 91 250 1
      vertex 61 238 1
    endloop
  endfacet
  facet normal 0 0 1
    outer loop
      vertex 91 216 1
      vertex 91 250 1
      vertex 79 238 1
    endloop
  endfacet
  facet normal 0 0 1
    outer loop
      vertex 56 225 1
      vertex 61 220 1
      vertex 61 225 1
    endloop
  endfacet
  facet normal 0 0 1
    outer loop
      vertex 109 132 1
      vertex 12 132 1
      vertex 54 122 1
    endloop
  endfacet
  facet normal 0 0 1
    outer loop
      vertex 114 122 1
      vertex 109 169 1
      vertex 109 132 1
    endloop
  endfacet
  facet normal 0 0 1
    outer loop
      vertex 235 132 1
      vertex 141 132 1
      vertex 174 122 1
    endloop
  endfacet
  facet normal 0 0 1
    outer loop
      vertex 141 300 1
      vertex 235 300 1
      vertex 244.619 306.913 1
    endloop
  endfacet
  facet normal 0 0 1
    outer loop
      vertex 48 263 1
      vertex 12 268 1
      vertex 43 250 1
    endloop
  endfacet
  facet normal 0 0 1
    outer loop
      vertex 103 255 1
      vertex 103 250 1
      vertex 115 255 1
    endloop
  endfacet
  facet normal 0 0 1
    outer loop
      vertex 12 298 1
      vertex 53 298 1
      vertex 0 310 1
    endloop
  endfacet
  facet normal 0 0 1
    outer loop
      vertex 61 220 1
      vertex 96 195 1
      vertex 91 216 1
    endloop
  endfacet
  facet normal 0 0 1
    outer loop
      vertex 103 286 1
      vertex 115 297 1
      vertex 65 286 1
    endloop
  endfacet
  facet normal 0 0 1
    outer loop
      vertex 12 197 1
      vertex 12 250 1
      vertex 0 188 1
    endloop
  endfacet
  facet normal 0 0 1
    outer loop
      vertex 0 310 1
      vertex 0 188 1
      vertex 12 250 1
    endloop
  endfacet
  facet normal 0 0 1
    outer loop
      vertex 43 233 1
      vertex 48 233 1
      vertex 43 250 1
    endloop
  endfacet
  facet normal 0 0 1
    outer loop
      vertex 12 268 1
      vertex 12 298 1
      vertex 0 310 1
    endloop
  endfacet
  facet normal 0 0 1
    outer loop
      vertex 65 276 1
      vertex 65 286 1
      vertex 53 276 1
    endloop
  endfacet
  facet normal 0 0 1
    outer loop
      vertex 54 263 1
      vertex 95 263 1
      vertex 95 268 1
    endloop
  endfacet
  facet normal 0 0 1
    outer loop
      vertex 115 263 1
      vertex 103 286 1
      vertex 103 263 1
    endloop
  endfacet
  facet normal 0 0 1
    outer loop
      vertex 0 310 1
      vertex 12 250 1
      vertex 12 268 1
    endloop
  endfacet
  facet normal 0 0 1
    outer loop
      vertex 131 255 1
      vertex 115 255 1
      vertex 109 250 1
    endloop
  endfacet
  facet normal 0 0 1
    outer loop
      vertex 0 310 1
      vertex 53 298 1
      vertex 239.995 310 1
    endloop
  endfacet
  facet normal 0 0 1
    outer loop
      vertex 115 263 1
      vertex 115 297 1
      vertex 103 286 1
    endloop
  endfacet
  facet normal 0 0 1
    outer loop
      vertex 53 298 1
      vertex 53 276 1
      vertex 65 286 1
    endloop
  endfacet
  facet normal 0 0 1
    outer loop
      vertex 235 132 1
      vertex 192 122 1
      vertex 234 122 1
    endloop
  endfacet
  facet normal 0 0 1
    outer loop
      vertex 56 255 1
      vertex 91 250 1
      vertex 95 255 1
    endloop
  endfacet
  facet normal 0 0 1
    outer loop
      vertex 53 298 1
      vertex 65 286 1
      vertex 115 297 1
    endloop
  endfacet
  facet normal 0 0 1
    outer loop
      vertex 235 300 1
      vertex 235 132 1
      vertex 245 304.995 1
    endloop
  endfacet
  facet normal 0 0 1
    outer loop
      vertex 12 250 1
      vertex 43 250 1
      vertex 12 268 1
    endloop
  endfacet
  facet normal 0 0 1
    outer loop
      vertex 95 268 1
      vertex 48 263 1
      vertex 54 263 1
    endloop
  endfacet
  facet normal 0 0 1
    outer loop
      vertex 141 132 1
      vertex 131 297 1
      vertex 131 255 1
    endloop
  endfacet
  facet normal 0 0 1
    outer loop
      vertex 141 132 1
      vertex 141 300 1
      vertex 131 297 1
    endloop
  endfacet
  facet normal 0 0 1
    outer loop
      vertex 141 132 1
      vertex 131 255 1
      vertex 127 203 1
    endloop
  endfacet
  facet normal 0 0 1
    outer loop
      vertex 56 225 1
      vertex 109 169 1
      vertex 61 220 1
    endloop
  endfacet
  facet normal 0 0 1
    outer loop
      vertex 61 220 1
      vertex 109 169 1
      vertex 96 195 1
    endloop
  endfacet
  facet normal 0 0 1
    outer loop
      vertex 43 225 1
      vertex 43 197 1
      vertex 48 225 1
    endloop
  endfacet
  facet normal 0 0 1
    outer loop
      vertex 12 169 1
      vertex 109 169 1
      vertex 56 180 1
    endloop
  endfacet
  facet normal 0 0 1
    outer loop
      vertex 192 12 1
      vertex 192 63 1
      vertex 174 58 1
    endloop
  endfacet
  facet normal 0 0 1
    outer loop
      vertex 106 58 1
      vertex 106 63 1
      vertex 72 58 1
    endloop
  endfacet
  facet normal 0 0 1
    outer loop
      vertex 234 58 1
      vertex 244.999 5.005 1
      vertex 245 5.005 1
    endloop
  endfacet
  facet normal 0 0 1
    outer loop
      vertex 234 58 1
      vertex 245 5 1
      vertex 244.999 5.005 1
    endloop
  endfacet
  facet normal 0 0 1
    outer loop
      vertex 234 58 1
      vertex 234 12 1
      vertex 245 5 1
    endloop
  endfacet
  facet normal 0 0 1
    outer loop
      vertex 174 76 1
      vertex 192 71 1
      vertex 174 122 1
    endloop
  endfacet
  facet normal 0 0 1
    outer loop
      vertex 141 300 1
      vertex 239.995 309.999 1
      vertex 239.995 310 1
    endloop
  endfacet
  facet normal 0 0 1
    outer loop
      vertex 239.995 309.999 1
      vertex 241.913 309.619 1
      vertex 240 310 1
    endloop
  endfacet
  facet normal 0 0 1
    outer loop
      vertex 235 132 1
      vertex 234 122 1
      vertex 245 5.005 1
    endloop
  endfacet
  facet normal 0 0 1
    outer loop
      vertex 141 300 1
      vertex 241.913 309.619 1
      vertex 239.995 309.999 1
    endloop
  endfacet
  facet normal 0 0 1
    outer loop
      vertex 234 122 1
      vertex 234 76 1
      vertex 245 5.005 1
    endloop
  endfacet
  facet normal 0 0 1
    outer loop
      vertex 119 71 1
      vertex 119 195 1
      vertex 114 122 1
    endloop
  endfacet
  facet normal 0 0 1
    outer loop
      vertex 234 12 1
      vertex 241.913 0.380602 1
      vertex 243.536 1.46447 1
    endloop
  endfacet
  facet normal 0 0 1
    outer loop
      vertex 234 76 1
      vertex 234 58 1
      vertex 245 5.005 1
    endloop
  endfacet
  facet normal 0 0 1
    outer loop
      vertex 245 5 1
      vertex 234 12 1
      vertex 244.619 3.08658 1
    endloop
  endfacet
  facet normal 0 0 1
    outer loop
      vertex 174 12 1
      vertex 0 0 1
      vertex 192 12 1
    endloop
  endfacet
  facet normal 0 0 1
    outer loop
      vertex 234 12 1
      vertex 243.536 1.46447 1
      vertex 244.619 3.08658 1
    endloop
  endfacet
  facet normal 0 0 1
    outer loop
      vertex 54 71 1
      vertex 72 76 1
      vertex 54 122 1
    endloop
  endfacet
  facet normal 0 0 1
    outer loop
      vertex 132 12 1
      vertex 0 0 1
      vertex 174 12 1
    endloop
  endfacet
  facet normal 0 0 1
    outer loop
      vertex 114 12 1
      vertex 0 0 1
      vertex 132 12 1
    endloop
  endfacet
  facet normal 0 0 1
    outer loop
      vertex 106 76 1
      vertex 72 76 1
      vertex 106 71 1
    endloop
  endfacet
  facet normal 0 0 1
    outer loop
      vertex 114 63 1
      vertex 114 12 1
      vertex 132 63 1
    endloop
  endfacet
  facet normal 0 0 1
    outer loop
      vertex 72 12 1
      vertex 0 0 1
      vertex 114 12 1
    endloop
  endfacet
  facet normal 0 0 1
    outer loop
      vertex 54 12 1
      vertex 0 0 1
      vertex 72 12 1
    endloop
  endfacet
  facet normal 0 0 1
    outer loop
      vertex 54 12 1
      vertex 12 12 1
      vertex 0 0 1
    endloop
  endfacet
  facet normal 0 0 1
    outer loop
      vertex 46 58 1
      vertex 46 76 1
      vertex 12 58 1
    endloop
  endfacet
  facet normal 0 0 1
    outer loop
      vertex 12 12 1
      vertex 12 58 1
      vertex 0 0 1
    endloop
  endfacet
  facet normal 0 0 1
    outer loop
      vertex 0 180 1
      vertex 0 0 1
      vertex 12 58 1
    endloop
  endfacet
  facet normal 0 0 1
    outer loop
      vertex 56 180 1
      vertex 109 169 1
      vertex 56 225 1
    endloop
  endfacet
  facet normal 0 0 1
    outer loop
      vertex 12 76 1
      vertex 12 58 1
      vertex 46 76 1
    endloop
  endfacet
  facet normal 0 0 1
    outer loop
      vertex 0 180 1
      vertex 12 58 1
      vertex 12 76 1
    endloop
  endfacet
  facet normal 0 0 1
    outer loop
      vertex 72 76 1
      vertex 72 122 1
      vertex 54 122 1
    endloop
  endfacet
  facet normal 0 0 1
    outer loop
      vertex 0 180 1
      vertex 12 76 1
      vertex 12 122 1
    endloop
  endfacet
  facet normal 0 0 1
    outer loop
      vertex 12 132 1
      vertex 12 169 1
      vertex 0 180 1
    endloop
  endfacet
  facet normal 0 0 1
    outer loop
      vertex 54 63 1
      vertex 54 12 1
      vertex 72 58 1
    endloop
  endfacet
  facet normal 0 0 1
    outer loop
      vertex 54 71 1
      vertex 106 71 1
      vertex 72 76 1
    endloop
  endfacet
  facet normal 0 0 1
    outer loop
      vertex 12 122 1
      vertex 54 122 1
      vertex 12 132 1
    endloop
  endfacet
  facet normal 0 0 1
    outer loop
      vertex 12 169 1
      vertex 50 180 1
      vertex 0 180 1
    endloop
  endfacet
  facet normal 0 0 1
    outer loop
      vertex 114 122 1
      vertex 119 195 1
      vertex 109 169 1
    endloop
  endfacet
  facet normal 0 0 1
    outer loop
      vertex 132 122 1
      vertex 174 122 1
      vertex 141 132 1
    endloop
  endfacet
  facet normal 0 0 1
    outer loop
      vertex 72 12 1
      vertex 72 58 1
      vertex 54 12 1
    endloop
  endfacet
  facet normal 0 0 1
    outer loop
      vertex 235 132 1
      vertex 174 122 1
      vertex 192 122 1
    endloop
  endfacet
  facet normal 0 0 1
    outer loop
      vertex 114 122 1
      vertex 114 71 1
      vertex 119 71 1
    endloop
  endfacet
  facet normal 0 0 1
    outer loop
      vertex 104 216 1
      vertex 104 203 1
      vertex 109 216 1
    endloop
  endfacet
  facet normal 0 0 1
    outer loop
      vertex 104 203 1
      vertex 121 203 1
      vertex 109 216 1
    endloop
  endfacet
  facet normal 0 0 1
    outer loop
      vertex 200 58 1
      vertex 234 58 1
      vertex 200 76 1
    endloop
  endfacet
  facet normal 0 0 1
    outer loop
      vertex 96 195 1
      vertex 109 169 1
      vertex 104 195 1
    endloop
  endfacet
  facet normal 0 0 1
    outer loop
      vertex 131 297 1
      vertex 141 300 1
      vertex 115 297 1
    endloop
  endfacet
  facet normal 0 0 1
    outer loop
      vertex 103 250 1
      vertex 109 250 1
      vertex 115 255 1
    endloop
  endfacet
  facet normal 0 0 1
    outer loop
      vertex 56 255 1
      vertex 61 238 1
      vertex 91 250 1
    endloop
  endfacet
  facet normal 0 0 1
    outer loop
      vertex 95 250 1
      vertex 95 255 1
      vertex 91 250 1
    endloop
  endfacet
  facet normal 0 0 1
    outer loop
      vertex 56 255 1
      vertex 56 233 1
      vertex 61 238 1
    endloop
  endfacet
  facet normal 0 0 1
    outer loop
      vertex 91 216 1
      vertex 96 195 1
      vertex 96 216 1
    endloop
  endfacet
  facet normal 0 0 1
    outer loop
      vertex 127 203 1
      vertex 109 216 1
      vertex 121 203 1
    endloop
  endfacet
  facet normal 0 0 1
    outer loop
      vertex 48 233 1
      vertex 48 263 1
      vertex 43 250 1
    endloop
  endfacet
  facet normal 0 0 1
    outer loop
      vertex 127 203 1
      vertex 131 255 1
      vertex 109 216 1
    endloop
  endfacet
  facet normal 0 0 1
    outer loop
      vertex 12 169 1
      vertex 56 180 1
      vertex 50 180 1
    endloop
  endfacet
  facet normal 0 0 1
    outer loop
      vertex 0 180 1
      vertex 12 122 1
      vertex 12 132 1
    endloop
  endfacet
  facet normal 0 0 1
    outer loop
      vertex 141 300 1
      vertex 244.619 306.913 1
      vertex 243.536 308.536 1
    endloop
  endfacet
  facet normal 0 0 1
    outer loop
      vertex 53 298 1
      vertex 141 300 1
      vertex 239.995 310 1
    endloop
  endfacet
  facet normal 0 0 1
    outer loop
      vertex 53 298 1
      vertex 115 297 1
      vertex 141 300 1
    endloop
  endfacet
  facet normal 0 0 1
    outer loop
      vertex 244.619 306.913 1
      vertex 235 300 1
      vertex 245 305 1
    endloop
  endfacet
  facet normal 0 0 1
    outer loop
      vertex 245 304.995 1
      vertex 235 132 1
      vertex 245 5.005 1
    endloop
  endfacet
  facet normal 0 0 1
    outer loop
      vertex 141 300 1
      vertex 243.536 308.536 1
      vertex 241.913 309.619 1
    endloop
  endfacet
  facet normal 0 0 1
    outer loop
      vertex 95 268 1
      vertex 12 268 1
      vertex 48 263 1
    endloop
  endfacet
  facet normal 0 0 1
    outer loop
      vertex 109 250 1
      vertex 109 216 1
      vertex 131 255 1
    endloop
  endfacet
  facet normal 0 0 1
    outer loop
      vertex 119 195 1
      vertex 104 195 1
      vertex 109 169 1
    endloop
  endfacet
  facet normal 0 0 1
    outer loop
      vertex 235 300 1
      vertex 244.999 304.995 1
      vertex 245 305 1
    endloop
  endfacet
  facet normal 0 0 1
    outer loop
      vertex 235 300 1
      vertex 245 304.995 1
      vertex 244.999 304.995 1
    endloop
  endfacet
  facet normal 0 0 1
    outer loop
      vertex 234 76 1
      vertex 200 76 1
      vertex 234 58 1
    endloop
  endfacet
  facet normal 0 0 1
    outer loop
      vertex 0 188 1
      vertex 48 188 1
      vertex 43 197 1
    endloop
  endfacet
  facet normal 0 0 1
    outer loop
      vertex 61 220 1
      vertex 91 216 1
      vertex 79 220 1
    endloop
  endfacet
  facet normal 0 0 1
    outer loop
      vertex 109 132 1
      vertex 72 122 1
      vertex 114 122 1
    endloop
  endfacet
  facet normal 0 0 1
    outer loop
      vertex 109 132 1
      vertex 54 122 1
      vertex 72 122 1
    endloop
  endfacet
  facet normal 0 0 1
    outer loop
      vertex 43 197 1
      vertex 12 197 1
      vertex 0 188 1
    endloop
  endfacet
  facet normal 0 0 1
    outer loop
      vertex 48 188 1
      vertex 48 225 1
      vertex 43 197 1
    endloop
  endfacet
  facet normal 0 0 1
    outer loop
      vertex 127 203 1
      vertex 132 122 1
      vertex 141 132 1
    endloop
  endfacet
  facet normal 0 0 1
    outer loop
      vertex 192 71 1
      vertex 192 122 1
      vertex 174 122 1
    endloop
  endfacet
  facet normal 0 0 1
    outer loop
      vertex 132 12 1
      vertex 132 63 1
      vertex 114 12 1
    endloop
  endfacet
  facet normal 0 0 1
    outer loop
      vertex 174 58 1
      vertex 174 12 1
      vertex 192 12 1
    endloop
  endfacet
  facet normal 0 0 1
    outer loop
      vertex 140 58 1
      vertex 174 58 1
      vertex 140 63 1
    endloop
  endfacet
  facet normal 0 0 1
    outer loop
      vertex 91 216 1
      vertex 79 238 1
      vertex 79 220 1
    endloop
  endfacet
  facet normal 0 0 1
    outer loop
      vertex 106 63 1
      vertex 54 63 1
      vertex 72 58 1
    endloop
  endfacet
  facet normal 0 0 1
    outer loop
      vertex 234 12 1
      vertex 240 1.11022e-015 1
      vertex 241.913 0.380602 1
    endloop
  endfacet
  facet normal 0 0 1
    outer loop
      vertex 234 12 1
      vertex 239.995 0.000994561 1
      vertex 240 1.11022e-015 1
    endloop
  endfacet
  facet normal 0 0 1
    outer loop
      vertex 234 12 1
      vertex 239.995 0 1
      vertex 239.995 0.000994561 1
    endloop
  endfacet
  facet normal 0 0 1
    outer loop
      vertex 127 203 1
      vertex 132 71 1
      vertex 132 122 1
    endloop
  endfacet
  facet normal 0 0 1
    outer loop
      vertex 127 203 1
      vertex 127 71 1
      vertex 132 71 1
    endloop
  endfacet
  facet normal 1 -2.22045e-016 0
    outer loop
      vertex 239.995 0.000994561 0
      vertex 239.995 0.000994561 1
      vertex 239.995 0 1
    endloop
  endfacet
  facet normal 1 -2.22045e-016 0
    outer loop
      vertex 239.995 0 0
      vertex 239.995 0.000994561 0
      vertex 239.995 0 1
    endloop
  endfacet
  facet normal -0.19509 -0.980785 0
    outer loop
      vertex 239.995 0.000994561 1
      vertex 239.995 0.000994561 0
      vertex 240 1.11022e-015 0
    endloop
  endfacet
  facet normal -0.19509 -0.980785 0
    outer loop
      vertex 240 1.11022e-015 1
      vertex 239.995 0.000994561 1
      vertex 240 1.11022e-015 0
    endloop
  endfacet
  facet normal 0.19509 -0.980785 0
    outer loop
      vertex 240 1.11022e-015 1
      vertex 240 1.11022e-015 0
      vertex 241.913 0.380602 0
    endloop
  endfacet
  facet normal 0.19509 -0.980785 0
    outer loop
      vertex 241.913 0.380602 1
      vertex 240 1.11022e-015 1
      vertex 241.913 0.380602 0
    endloop
  endfacet
  facet normal 0.55557 -0.83147 0
    outer loop
      vertex 241.913 0.380602 1
      vertex 241.913 0.380602 0
      vertex 243.536 1.46447 0
    endloop
  endfacet
  facet normal 0.55557 -0.83147 0
    outer loop
      vertex 243.536 1.46447 1
      vertex 241.913 0.380602 1
      vertex 243.536 1.46447 0
    endloop
  endfacet
  facet normal 0.83147 -0.55557 0
    outer loop
      vertex 243.536 1.46447 1
      vertex 243.536 1.46447 0
      vertex 244.619 3.08658 0
    endloop
  endfacet
  facet normal 0.83147 -0.55557 0
    outer loop
      vertex 244.619 3.08658 1
      vertex 243.536 1.46447 1
      vertex 244.619 3.08658 0
    endloop
  endfacet
  facet normal 0.980785 -0.19509 0
    outer loop
      vertex 244.619 3.08658 1
      vertex 244.619 3.08658 0
      vertex 245 5 0
    endloop
  endfacet
  facet normal 0.980785 -0.19509 0
    outer loop
      vertex 245 5 1
      vertex 244.619 3.08658 1
      vertex 245 5 0
    endloop
  endfacet
  facet normal 0.980785 0.19509 0
    outer loop
      vertex 245 5 0
      vertex 244.999 5.005 0
      vertex 244.999 5.005 1
    endloop
  endfacet
  facet normal 0.980785 0.19509 0
    outer loop
      vertex 245 5 1
      vertex 245 5 0
      vertex 244.999 5.005 1
    endloop
  endfacet
  facet normal -2.22045e-016 -1 0
    outer loop
      vertex 245 5.005 0
      vertex 245 5.005 1
      vertex 244.999 5.005 1
    endloop
  endfacet
  facet normal -2.22045e-016 -1 0
    outer loop
      vertex 244.999 5.005 0
      vertex 245 5.005 0
      vertex 244.999 5.005 1
    endloop
  endfacet
  facet normal 1 0 0
    outer loop
      vertex 245 5.005 1
      vertex 245 5.005 0
      vertex 245 304.995 0
    endloop
  endfacet
  facet normal 1 0 0
    outer loop
      vertex 245 304.995 1
      vertex 245 5.005 1
      vertex 245 304.995 0
    endloop
  endfacet
  facet normal 1.22461e-016 1 0
    outer loop
      vertex 245 304.995 1
      vertex 245 304.995 0
      vertex 244.999 304.995 1
    endloop
  endfacet
  facet normal 1.22461e-016 1 0
    outer loop
      vertex 244.999 304.995 1
      vertex 245 304.995 0
      vertex 244.999 304.995 0
    endloop
  endfacet
  facet normal 0.980785 -0.19509 0
    outer loop
      vertex 244.999 304.995 1
      vertex 244.999 304.995 0
      vertex 245 305 0
    endloop
  endfacet
  facet normal 0.980785 -0.19509 0
    outer loop
      vertex 245 305 1
      vertex 244.999 304.995 1
      vertex 245 305 0
    endloop
  endfacet
  facet normal 0.980785 0.19509 0
    outer loop
      vertex 245 305 0
      vertex 244.619 306.913 0
      vertex 244.619 306.913 1
    endloop
  endfacet
  facet normal 0.980785 0.19509 0
    outer loop
      vertex 245 305 1
      vertex 245 305 0
      vertex 244.619 306.913 1
    endloop
  endfacet
  facet normal 0.83147 0.55557 0
    outer loop
      vertex 244.619 306.913 0
      vertex 243.536 308.536 0
      vertex 243.536 308.536 1
    endloop
  endfacet
  facet normal 0.83147 0.55557 0
    outer loop
      vertex 244.619 306.913 1
      vertex 244.619 306.913 0
      vertex 243.536 308.536 1
    endloop
  endfacet
  facet normal 0.55557 0.83147 0
    outer loop
      vertex 241.913 309.619 0
      vertex 241.913 309.619 1
      vertex 243.536 308.536 0
    endloop
  endfacet
  facet normal 0.55557 0.83147 0
    outer loop
      vertex 243.536 308.536 0
      vertex 241.913 309.619 1
      vertex 243.536 308.536 1
    endloop
  endfacet
  facet normal 0.19509 0.980785 0
    outer loop
      vertex 240 310 0
      vertex 240 310 1
      vertex 241.913 309.619 0
    endloop
  endfacet
  facet normal 0.19509 0.980785 0
    outer loop
      vertex 241.913 309.619 0
      vertex 240 310 1
      vertex 241.913 309.619 1
    endloop
  endfacet
  facet normal -0.19509 0.980785 0
    outer loop
      vertex 239.995 309.999 0
      vertex 239.995 309.999 1
      vertex 240 310 0
    endloop
  endfacet
  facet normal -0.19509 0.980785 0
    outer loop
      vertex 240 310 0
      vertex 239.995 309.999 1
      vertex 240 310 1
    endloop
  endfacet
  facet normal 1 -1.22461e-016 0
    outer loop
      vertex 239.995 310 0
      vertex 239.995 310 1
      vertex 239.995 309.999 1
    endloop
  endfacet
  facet normal 1 -1.22461e-016 0
    outer loop
      vertex 239.995 309.999 0
      vertex 239.995 310 0
      vertex 239.995 309.999 1
    endloop
  endfacet
  facet normal 0 1 0
    outer loop
      vertex 0 310 0
      vertex 0 310 1
      vertex 239.995 310 0
    endloop
  endfacet
  facet normal 0 1 0
    outer loop
      vertex 239.995 310 0
      vertex 0 310 1
      vertex 239.995 310 1
    endloop
  endfacet
  facet normal -1 0 0
    outer loop
      vertex 0 188 0
      vertex 0 188 1
      vertex 0 310 0
    endloop
  endfacet
  facet normal -1 0 0
    outer loop
      vertex 0 310 0
      vertex 0 188 1
      vertex 0 310 1
    endloop
  endfacet
  facet normal 0 -1 0
    outer loop
      vertex 48 188 0
      vertex 48 188 1
      vertex 0 188 1
    endloop
  endfacet
  facet normal 0 -1 0
    outer loop
      vertex 0 188 0
      vertex 48 188 0
      vertex 0 188 1
    endloop
  endfacet
  facet normal 1 -1.22461e-016 0
    outer loop
      vertex 48 225 0
      vertex 48 225 1
      vertex 48 188 1
    endloop
  endfacet
  facet normal 1 -1.22461e-016 0
    outer loop
      vertex 48 188 0
      vertex 48 225 0
      vertex 48 188 1
    endloop
  endfacet
  facet normal 0 1 0
    outer loop
      vertex 48 225 1
      vertex 48 225 0
      vertex 43 225 1
    endloop
  endfacet
  facet normal 0 1 0
    outer loop
      vertex 43 225 1
      vertex 48 225 0
      vertex 43 225 0
    endloop
  endfacet
  facet normal -1 0 0
    outer loop
      vertex 43 225 1
      vertex 43 225 0
      vertex 43 197 1
    endloop
  endfacet
  facet normal -1 0 0
    outer loop
      vertex 43 197 1
      vertex 43 225 0
      vertex 43 197 0
    endloop
  endfacet
  facet normal 0 1 0
    outer loop
      vertex 43 197 1
      vertex 43 197 0
      vertex 12 197 1
    endloop
  endfacet
  facet normal 0 1 0
    outer loop
      vertex 12 197 1
      vertex 43 197 0
      vertex 12 197 0
    endloop
  endfacet
  facet normal 1 0 0
    outer loop
      vertex 12 250 0
      vertex 12 250 1
      vertex 12 197 1
    endloop
  endfacet
  facet normal 1 0 0
    outer loop
      vertex 12 197 0
      vertex 12 250 0
      vertex 12 197 1
    endloop
  endfacet
  facet normal 0 -1 0
    outer loop
      vertex 43 250 0
      vertex 43 250 1
      vertex 12 250 1
    endloop
  endfacet
  facet normal 0 -1 0
    outer loop
      vertex 12 250 0
      vertex 43 250 0
      vertex 12 250 1
    endloop
  endfacet
  facet normal -1 0 0
    outer loop
      vertex 43 250 1
      vertex 43 250 0
      vertex 43 233 1
    endloop
  endfacet
  facet normal -1 0 0
    outer loop
      vertex 43 233 1
      vertex 43 250 0
      vertex 43 233 0
    endloop
  endfacet
  facet normal 0 -1 0
    outer loop
      vertex 48 233 0
      vertex 48 233 1
      vertex 43 233 1
    endloop
  endfacet
  facet normal 0 -1 0
    outer loop
      vertex 43 233 0
      vertex 48 233 0
      vertex 43 233 1
    endloop
  endfacet
  facet normal 1 -1.22461e-016 0
    outer loop
      vertex 48 263 0
      vertex 48 263 1
      vertex 48 233 1
    endloop
  endfacet
  facet normal 1 -1.22461e-016 0
    outer loop
      vertex 48 233 0
      vertex 48 263 0
      vertex 48 233 1
    endloop
  endfacet
  facet normal -1.22461e-016 -1 0
    outer loop
      vertex 54 263 0
      vertex 54 263 1
      vertex 48 263 1
    endloop
  endfacet
  facet normal -1.22461e-016 -1 0
    outer loop
      vertex 48 263 0
      vertex 54 263 0
      vertex 48 263 1
    endloop
  endfacet
  facet normal -1.22461e-016 -1 0
    outer loop
      vertex 95 263 0
      vertex 95 263 1
      vertex 54 263 1
    endloop
  endfacet
  facet normal -1.22461e-016 -1 0
    outer loop
      vertex 54 263 0
      vertex 95 263 0
      vertex 54 263 1
    endloop
  endfacet
  facet normal 1 0 0
    outer loop
      vertex 95 268 0
      vertex 95 268 1
      vertex 95 263 1
    endloop
  endfacet
  facet normal 1 0 0
    outer loop
      vertex 95 263 0
      vertex 95 268 0
      vertex 95 263 1
    endloop
  endfacet
  facet normal 0 1 0
    outer loop
      vertex 95 268 1
      vertex 95 268 0
      vertex 12 268 1
    endloop
  endfacet
  facet normal 0 1 0
    outer loop
      vertex 12 268 1
      vertex 95 268 0
      vertex 12 268 0
    endloop
  endfacet
  facet normal 1 0 0
    outer loop
      vertex 12 298 0
      vertex 12 298 1
      vertex 12 268 1
    endloop
  endfacet
  facet normal 1 0 0
    outer loop
      vertex 12 268 0
      vertex 12 298 0
      vertex 12 268 1
    endloop
  endfacet
  facet normal 0 -1 0
    outer loop
      vertex 53 298 0
      vertex 53 298 1
      vertex 12 298 1
    endloop
  endfacet
  facet normal 0 -1 0
    outer loop
      vertex 12 298 0
      vertex 53 298 0
      vertex 12 298 1
    endloop
  endfacet
  facet normal -1 0 0
    outer loop
      vertex 53 298 1
      vertex 53 298 0
      vertex 53 276 1
    endloop
  endfacet
  facet normal -1 0 0
    outer loop
      vertex 53 276 1
      vertex 53 298 0
      vertex 53 276 0
    endloop
  endfacet
  facet normal 0 -1 0
    outer loop
      vertex 65 276 0
      vertex 65 276 1
      vertex 53 276 1
    endloop
  endfacet
  facet normal 0 -1 0
    outer loop
      vertex 53 276 0
      vertex 65 276 0
      vertex 53 276 1
    endloop
  endfacet
  facet normal 1 0 0
    outer loop
      vertex 65 286 0
      vertex 65 286 1
      vertex 65 276 1
    endloop
  endfacet
  facet normal 1 0 0
    outer loop
      vertex 65 276 0
      vertex 65 286 0
      vertex 65 276 1
    endloop
  endfacet
  facet normal 0 -1 0
    outer loop
      vertex 103 286 0
      vertex 103 286 1
      vertex 65 286 1
    endloop
  endfacet
  facet normal 0 -1 0
    outer loop
      vertex 65 286 0
      vertex 103 286 0
      vertex 65 286 1
    endloop
  endfacet
  facet normal -1 0 0
    outer loop
      vertex 103 286 1
      vertex 103 286 0
      vertex 103 263 1
    endloop
  endfacet
  facet normal -1 0 0
    outer loop
      vertex 103 263 1
      vertex 103 286 0
      vertex 103 263 0
    endloop
  endfacet
  facet normal -1.22461e-016 -1 0
    outer loop
      vertex 115 263 0
      vertex 115 263 1
      vertex 103 263 1
    endloop
  endfacet
  facet normal -1.22461e-016 -1 0
    outer loop
      vertex 103 263 0
      vertex 115 263 0
      vertex 103 263 1
    endloop
  endfacet
  facet normal 1 0 0
    outer loop
      vertex 115 297 0
      vertex 115 297 1
      vertex 115 263 1
    endloop
  endfacet
  facet normal 1 0 0
    outer loop
      vertex 115 263 0
      vertex 115 297 0
      vertex 115 263 1
    endloop
  endfacet
  facet normal 0 -1 0
    outer loop
      vertex 131 297 0
      vertex 131 297 1
      vertex 115 297 1
    endloop
  endfacet
  facet normal 0 -1 0
    outer loop
      vertex 115 297 0
      vertex 131 297 0
      vertex 115 297 1
    endloop
  endfacet
  facet normal -1 0 0
    outer loop
      vertex 131 297 1
      vertex 131 297 0
      vertex 131 255 1
    endloop
  endfacet
  facet normal -1 0 0
    outer loop
      vertex 131 255 1
      vertex 131 297 0
      vertex 131 255 0
    endloop
  endfacet
  facet normal 0 1 0
    outer loop
      vertex 131 255 1
      vertex 131 255 0
      vertex 115 255 1
    endloop
  endfacet
  facet normal 0 1 0
    outer loop
      vertex 115 255 1
      vertex 131 255 0
      vertex 115 255 0
    endloop
  endfacet
  facet normal 1.22461e-016 1 0
    outer loop
      vertex 115 255 1
      vertex 115 255 0
      vertex 103 255 1
    endloop
  endfacet
  facet normal 1.22461e-016 1 0
    outer loop
      vertex 103 255 1
      vertex 115 255 0
      vertex 103 255 0
    endloop
  endfacet
  facet normal -1 0 0
    outer loop
      vertex 103 255 1
      vertex 103 255 0
      vertex 103 250 1
    endloop
  endfacet
  facet normal -1 0 0
    outer loop
      vertex 103 250 1
      vertex 103 255 0
      vertex 103 250 0
    endloop
  endfacet
  facet normal 0 -1 0
    outer loop
      vertex 109 250 0
      vertex 109 250 1
      vertex 103 250 1
    endloop
  endfacet
  facet normal 0 -1 0
    outer loop
      vertex 103 250 0
      vertex 109 250 0
      vertex 103 250 1
    endloop
  endfacet
  facet normal -1 0 0
    outer loop
      vertex 109 250 1
      vertex 109 250 0
      vertex 109 216 1
    endloop
  endfacet
  facet normal -1 0 0
    outer loop
      vertex 109 216 1
      vertex 109 250 0
      vertex 109 216 0
    endloop
  endfacet
  facet normal 0 1 0
    outer loop
      vertex 109 216 1
      vertex 109 216 0
      vertex 104 216 1
    endloop
  endfacet
  facet normal 0 1 0
    outer loop
      vertex 104 216 1
      vertex 109 216 0
      vertex 104 216 0
    endloop
  endfacet
  facet normal -1 0 0
    outer loop
      vertex 104 216 1
      vertex 104 216 0
      vertex 104 203 1
    endloop
  endfacet
  facet normal -1 0 0
    outer loop
      vertex 104 203 1
      vertex 104 216 0
      vertex 104 203 0
    endloop
  endfacet
  facet normal -1.22461e-016 -1 0
    outer loop
      vertex 121 203 0
      vertex 121 203 1
      vertex 104 203 1
    endloop
  endfacet
  facet normal -1.22461e-016 -1 0
    outer loop
      vertex 104 203 0
      vertex 121 203 0
      vertex 104 203 1
    endloop
  endfacet
  facet normal 0 -1 0
    outer loop
      vertex 127 203 0
      vertex 127 203 1
      vertex 121 203 1
    endloop
  endfacet
  facet normal 0 -1 0
    outer loop
      vertex 121 203 0
      vertex 127 203 0
      vertex 121 203 1
    endloop
  endfacet
  facet normal -1 0 0
    outer loop
      vertex 127 203 1
      vertex 127 203 0
      vertex 127 71 1
    endloop
  endfacet
  facet normal -1 0 0
    outer loop
      vertex 127 71 1
      vertex 127 203 0
      vertex 127 71 0
    endloop
  endfacet
  facet normal 0 -1 0
    outer loop
      vertex 132 71 0
      vertex 132 71 1
      vertex 127 71 1
    endloop
  endfacet
  facet normal 0 -1 0
    outer loop
      vertex 127 71 0
      vertex 132 71 0
      vertex 127 71 1
    endloop
  endfacet
  facet normal 1 0 0
    outer loop
      vertex 132 122 0
      vertex 132 122 1
      vertex 132 71 1
    endloop
  endfacet
  facet normal 1 0 0
    outer loop
      vertex 132 71 0
      vertex 132 122 0
      vertex 132 71 1
    endloop
  endfacet
  facet normal 0 -1 0
    outer loop
      vertex 174 122 0
      vertex 174 122 1
      vertex 132 122 1
    endloop
  endfacet
  facet normal 0 -1 0
    outer loop
      vertex 132 122 0
      vertex 174 122 0
      vertex 132 122 1
    endloop
  endfacet
  facet normal -1 0 0
    outer loop
      vertex 174 122 1
      vertex 174 122 0
      vertex 174 76 1
    endloop
  endfacet
  facet normal -1 0 0
    outer loop
      vertex 174 76 1
      vertex 174 122 0
      vertex 174 76 0
    endloop
  endfacet
  facet normal 0 1 0
    outer loop
      vertex 174 76 1
      vertex 174 76 0
      vertex 140 76 1
    endloop
  endfacet
  facet normal 0 1 0
    outer loop
      vertex 140 76 1
      vertex 174 76 0
      vertex 140 76 0
    endloop
  endfacet
  facet normal -1 0 0
    outer loop
      vertex 140 76 1
      vertex 140 76 0
      vertex 140 71 1
    endloop
  endfacet
  facet normal -1 0 0
    outer loop
      vertex 140 71 1
      vertex 140 76 0
      vertex 140 71 0
    endloop
  endfacet
  facet normal 0 -1 0
    outer loop
      vertex 192 71 0
      vertex 192 71 1
      vertex 140 71 1
    endloop
  endfacet
  facet normal 0 -1 0
    outer loop
      vertex 140 71 0
      vertex 192 71 0
      vertex 140 71 1
    endloop
  endfacet
  facet normal 1 0 0
    outer loop
      vertex 192 122 0
      vertex 192 122 1
      vertex 192 71 1
    endloop
  endfacet
  facet normal 1 0 0
    outer loop
      vertex 192 71 0
      vertex 192 122 0
      vertex 192 71 1
    endloop
  endfacet
  facet normal 0 -1 0
    outer loop
      vertex 234 122 0
      vertex 234 122 1
      vertex 192 122 1
    endloop
  endfacet
  facet normal 0 -1 0
    outer loop
      vertex 192 122 0
      vertex 234 122 0
      vertex 192 122 1
    endloop
  endfacet
  facet normal -1 0 0
    outer loop
      vertex 234 122 1
      vertex 234 122 0
      vertex 234 76 1
    endloop
  endfacet
  facet normal -1 0 0
    outer loop
      vertex 234 76 1
      vertex 234 122 0
      vertex 234 76 0
    endloop
  endfacet
  facet normal 0 1 0
    outer loop
      vertex 234 76 1
      vertex 234 76 0
      vertex 200 76 1
    endloop
  endfacet
  facet normal 0 1 0
    outer loop
      vertex 200 76 1
      vertex 234 76 0
      vertex 200 76 0
    endloop
  endfacet
  facet normal -1 0 0
    outer loop
      vertex 200 76 1
      vertex 200 76 0
      vertex 200 58 1
    endloop
  endfacet
  facet normal -1 0 0
    outer loop
      vertex 200 58 1
      vertex 200 76 0
      vertex 200 58 0
    endloop
  endfacet
  facet normal 0 -1 0
    outer loop
      vertex 200 58 1
      vertex 200 58 0
      vertex 234 58 0
    endloop
  endfacet
  facet normal 0 -1 0
    outer loop
      vertex 234 58 1
      vertex 200 58 1
      vertex 234 58 0
    endloop
  endfacet
  facet normal -1 0 0
    outer loop
      vertex 234 58 1
      vertex 234 58 0
      vertex 234 12 1
    endloop
  endfacet
  facet normal -1 0 0
    outer loop
      vertex 234 12 1
      vertex 234 58 0
      vertex 234 12 0
    endloop
  endfacet
  facet normal 0 1 0
    outer loop
      vertex 234 12 1
      vertex 234 12 0
      vertex 192 12 1
    endloop
  endfacet
  facet normal 0 1 0
    outer loop
      vertex 192 12 1
      vertex 234 12 0
      vertex 192 12 0
    endloop
  endfacet
  facet normal 1 0 0
    outer loop
      vertex 192 63 0
      vertex 192 63 1
      vertex 192 12 1
    endloop
  endfacet
  facet normal 1 0 0
    outer loop
      vertex 192 12 0
      vertex 192 63 0
      vertex 192 12 1
    endloop
  endfacet
  facet normal 0 1 0
    outer loop
      vertex 192 63 1
      vertex 192 63 0
      vertex 140 63 1
    endloop
  endfacet
  facet normal 0 1 0
    outer loop
      vertex 140 63 1
      vertex 192 63 0
      vertex 140 63 0
    endloop
  endfacet
  facet normal -1 0 0
    outer loop
      vertex 140 63 1
      vertex 140 63 0
      vertex 140 58 1
    endloop
  endfacet
  facet normal -1 0 0
    outer loop
      vertex 140 58 1
      vertex 140 63 0
      vertex 140 58 0
    endloop
  endfacet
  facet normal 0 -1 0
    outer loop
      vertex 140 58 1
      vertex 140 58 0
      vertex 174 58 0
    endloop
  endfacet
  facet normal 0 -1 0
    outer loop
      vertex 174 58 1
      vertex 140 58 1
      vertex 174 58 0
    endloop
  endfacet
  facet normal -1 0 0
    outer loop
      vertex 174 58 1
      vertex 174 58 0
      vertex 174 12 1
    endloop
  endfacet
  facet normal -1 0 0
    outer loop
      vertex 174 12 1
      vertex 174 58 0
      vertex 174 12 0
    endloop
  endfacet
  facet normal 0 1 0
    outer loop
      vertex 174 12 1
      vertex 174 12 0
      vertex 132 12 1
    endloop
  endfacet
  facet normal 0 1 0
    outer loop
      vertex 132 12 1
      vertex 174 12 0
      vertex 132 12 0
    endloop
  endfacet
  facet normal 1 0 0
    outer loop
      vertex 132 63 0
      vertex 132 63 1
      vertex 132 12 1
    endloop
  endfacet
  facet normal 1 0 0
    outer loop
      vertex 132 12 0
      vertex 132 63 0
      vertex 132 12 1
    endloop
  endfacet
  facet normal 0 1 0
    outer loop
      vertex 132 63 1
      vertex 132 63 0
      vertex 114 63 1
    endloop
  endfacet
  facet normal 0 1 0
    outer loop
      vertex 114 63 1
      vertex 132 63 0
      vertex 114 63 0
    endloop
  endfacet
  facet normal -1 0 0
    outer loop
      vertex 114 63 1
      vertex 114 63 0
      vertex 114 12 1
    endloop
  endfacet
  facet normal -1 0 0
    outer loop
      vertex 114 12 1
      vertex 114 63 0
      vertex 114 12 0
    endloop
  endfacet
  facet normal 0 1 0
    outer loop
      vertex 114 12 1
      vertex 114 12 0
      vertex 72 12 1
    endloop
  endfacet
  facet normal 0 1 0
    outer loop
      vertex 72 12 1
      vertex 114 12 0
      vertex 72 12 0
    endloop
  endfacet
  facet normal 1 0 0
    outer loop
      vertex 72 58 0
      vertex 72 58 1
      vertex 72 12 1
    endloop
  endfacet
  facet normal 1 0 0
    outer loop
      vertex 72 12 0
      vertex 72 58 0
      vertex 72 12 1
    endloop
  endfacet
  facet normal 0 -1 0
    outer loop
      vertex 72 58 1
      vertex 72 58 0
      vertex 106 58 0
    endloop
  endfacet
  facet normal 0 -1 0
    outer loop
      vertex 106 58 1
      vertex 72 58 1
      vertex 106 58 0
    endloop
  endfacet
  facet normal 1 0 0
    outer loop
      vertex 106 63 0
      vertex 106 63 1
      vertex 106 58 1
    endloop
  endfacet
  facet normal 1 0 0
    outer loop
      vertex 106 58 0
      vertex 106 63 0
      vertex 106 58 1
    endloop
  endfacet
  facet normal 0 1 0
    outer loop
      vertex 106 63 1
      vertex 106 63 0
      vertex 54 63 1
    endloop
  endfacet
  facet normal 0 1 0
    outer loop
      vertex 54 63 1
      vertex 106 63 0
      vertex 54 63 0
    endloop
  endfacet
  facet normal -1 0 0
    outer loop
      vertex 54 63 1
      vertex 54 63 0
      vertex 54 12 1
    endloop
  endfacet
  facet normal -1 0 0
    outer loop
      vertex 54 12 1
      vertex 54 63 0
      vertex 54 12 0
    endloop
  endfacet
  facet normal 0 1 0
    outer loop
      vertex 54 12 1
      vertex 54 12 0
      vertex 12 12 1
    endloop
  endfacet
  facet normal 0 1 0
    outer loop
      vertex 12 12 1
      vertex 54 12 0
      vertex 12 12 0
    endloop
  endfacet
  facet normal 1 0 0
    outer loop
      vertex 12 58 0
      vertex 12 58 1
      vertex 12 12 1
    endloop
  endfacet
  facet normal 1 0 0
    outer loop
      vertex 12 12 0
      vertex 12 58 0
      vertex 12 12 1
    endloop
  endfacet
  facet normal 0 -1 0
    outer loop
      vertex 12 58 1
      vertex 12 58 0
      vertex 46 58 0
    endloop
  endfacet
  facet normal 0 -1 0
    outer loop
      vertex 46 58 1
      vertex 12 58 1
      vertex 46 58 0
    endloop
  endfacet
  facet normal 1 0 0
    outer loop
      vertex 46 76 0
      vertex 46 76 1
      vertex 46 58 1
    endloop
  endfacet
  facet normal 1 0 0
    outer loop
      vertex 46 58 0
      vertex 46 76 0
      vertex 46 58 1
    endloop
  endfacet
  facet normal 0 1 0
    outer loop
      vertex 46 76 1
      vertex 46 76 0
      vertex 12 76 1
    endloop
  endfacet
  facet normal 0 1 0
    outer loop
      vertex 12 76 1
      vertex 46 76 0
      vertex 12 76 0
    endloop
  endfacet
  facet normal 1 0 0
    outer loop
      vertex 12 122 0
      vertex 12 122 1
      vertex 12 76 1
    endloop
  endfacet
  facet normal 1 0 0
    outer loop
      vertex 12 76 0
      vertex 12 122 0
      vertex 12 76 1
    endloop
  endfacet
  facet normal 0 -1 0
    outer loop
      vertex 54 122 0
      vertex 54 122 1
      vertex 12 122 1
    endloop
  endfacet
  facet normal 0 -1 0
    outer loop
      vertex 12 122 0
      vertex 54 122 0
      vertex 12 122 1
    endloop
  endfacet
  facet normal -1 0 0
    outer loop
      vertex 54 122 1
      vertex 54 122 0
      vertex 54 71 1
    endloop
  endfacet
  facet normal -1 0 0
    outer loop
      vertex 54 71 1
      vertex 54 122 0
      vertex 54 71 0
    endloop
  endfacet
  facet normal 0 -1 0
    outer loop
      vertex 106 71 0
      vertex 106 71 1
      vertex 54 71 1
    endloop
  endfacet
  facet normal 0 -1 0
    outer loop
      vertex 54 71 0
      vertex 106 71 0
      vertex 54 71 1
    endloop
  endfacet
  facet normal 1 0 0
    outer loop
      vertex 106 76 0
      vertex 106 76 1
      vertex 106 71 1
    endloop
  endfacet
  facet normal 1 0 0
    outer loop
      vertex 106 71 0
      vertex 106 76 0
      vertex 106 71 1
    endloop
  endfacet
  facet normal 0 1 0
    outer loop
      vertex 106 76 1
      vertex 106 76 0
      vertex 72 76 1
    endloop
  endfacet
  facet normal 0 1 0
    outer loop
      vertex 72 76 1
      vertex 106 76 0
      vertex 72 76 0
    endloop
  endfacet
  facet normal 1 0 0
    outer loop
      vertex 72 122 0
      vertex 72 122 1
      vertex 72 76 1
    endloop
  endfacet
  facet normal 1 0 0
    outer loop
      vertex 72 76 0
      vertex 72 122 0
      vertex 72 76 1
    endloop
  endfacet
  facet normal 0 -1 0
    outer loop
      vertex 114 122 0
      vertex 114 122 1
      vertex 72 122 1
    endloop
  endfacet
  facet normal 0 -1 0
    outer loop
      vertex 72 122 0
      vertex 114 122 0
      vertex 72 122 1
    endloop
  endfacet
  facet normal -1 0 0
    outer loop
      vertex 114 122 1
      vertex 114 122 0
      vertex 114 71 1
    endloop
  endfacet
  facet normal -1 0 0
    outer loop
      vertex 114 71 1
      vertex 114 122 0
      vertex 114 71 0
    endloop
  endfacet
  facet normal 0 -1 0
    outer loop
      vertex 119 71 0
      vertex 119 71 1
      vertex 114 71 1
    endloop
  endfacet
  facet normal 0 -1 0
    outer loop
      vertex 114 71 0
      vertex 119 71 0
      vertex 114 71 1
    endloop
  endfacet
  facet normal 1 0 0
    outer loop
      vertex 119 195 0
      vertex 119 195 1
      vertex 119 71 1
    endloop
  endfacet
  facet normal 1 0 0
    outer loop
      vertex 119 71 0
      vertex 119 195 0
      vertex 119 71 1
    endloop
  endfacet
  facet normal 1.22461e-016 1 0
    outer loop
      vertex 119 195 1
      vertex 119 195 0
      vertex 104 195 1
    endloop
  endfacet
  facet normal 1.22461e-016 1 0
    outer loop
      vertex 104 195 1
      vertex 119 195 0
      vertex 104 195 0
    endloop
  endfacet
  facet normal 0 1 0
    outer loop
      vertex 104 195 1
      vertex 104 195 0
      vertex 96 195 1
    endloop
  endfacet
  facet normal 0 1 0
    outer loop
      vertex 96 195 1
      vertex 104 195 0
      vertex 96 195 0
    endloop
  endfacet
  facet normal 1 0 0
    outer loop
      vertex 96 216 0
      vertex 96 216 1
      vertex 96 195 1
    endloop
  endfacet
  facet normal 1 0 0
    outer loop
      vertex 96 195 0
      vertex 96 216 0
      vertex 96 195 1
    endloop
  endfacet
  facet normal 0 1 0
    outer loop
      vertex 96 216 1
      vertex 96 216 0
      vertex 91 216 1
    endloop
  endfacet
  facet normal 0 1 0
    outer loop
      vertex 91 216 1
      vertex 96 216 0
      vertex 91 216 0
    endloop
  endfacet
  facet normal 1 0 0
    outer loop
      vertex 91 250 0
      vertex 91 250 1
      vertex 91 216 1
    endloop
  endfacet
  facet normal 1 0 0
    outer loop
      vertex 91 216 0
      vertex 91 250 0
      vertex 91 216 1
    endloop
  endfacet
  facet normal 0 -1 0
    outer loop
      vertex 95 250 0
      vertex 95 250 1
      vertex 91 250 1
    endloop
  endfacet
  facet normal 0 -1 0
    outer loop
      vertex 91 250 0
      vertex 95 250 0
      vertex 91 250 1
    endloop
  endfacet
  facet normal 1 0 0
    outer loop
      vertex 95 255 0
      vertex 95 255 1
      vertex 95 250 1
    endloop
  endfacet
  facet normal 1 0 0
    outer loop
      vertex 95 250 0
      vertex 95 255 0
      vertex 95 250 1
    endloop
  endfacet
  facet normal 1.22461e-016 1 0
    outer loop
      vertex 95 255 1
      vertex 95 255 0
      vertex 56 255 1
    endloop
  endfacet
  facet normal 1.22461e-016 1 0
    outer loop
      vertex 56 255 1
      vertex 95 255 0
      vertex 56 255 0
    endloop
  endfacet
  facet normal -1 1.22461e-016 0
    outer loop
      vertex 56 255 1
      vertex 56 255 0
      vertex 56 233 1
    endloop
  endfacet
  facet normal -1 1.22461e-016 0
    outer loop
      vertex 56 233 1
      vertex 56 255 0
      vertex 56 233 0
    endloop
  endfacet
  facet normal 0 -1 0
    outer loop
      vertex 61 233 0
      vertex 61 233 1
      vertex 56 233 1
    endloop
  endfacet
  facet normal 0 -1 0
    outer loop
      vertex 56 233 0
      vertex 61 233 0
      vertex 56 233 1
    endloop
  endfacet
  facet normal 1 0 0
    outer loop
      vertex 61 238 0
      vertex 61 238 1
      vertex 61 233 1
    endloop
  endfacet
  facet normal 1 0 0
    outer loop
      vertex 61 233 0
      vertex 61 238 0
      vertex 61 233 1
    endloop
  endfacet
  facet normal 0 -1 0
    outer loop
      vertex 79 238 0
      vertex 79 238 1
      vertex 61 238 1
    endloop
  endfacet
  facet normal 0 -1 0
    outer loop
      vertex 61 238 0
      vertex 79 238 0
      vertex 61 238 1
    endloop
  endfacet
  facet normal -1 0 0
    outer loop
      vertex 79 238 1
      vertex 79 238 0
      vertex 79 220 1
    endloop
  endfacet
  facet normal -1 0 0
    outer loop
      vertex 79 220 1
      vertex 79 238 0
      vertex 79 220 0
    endloop
  endfacet
  facet normal 0 1 0
    outer loop
      vertex 79 220 1
      vertex 79 220 0
      vertex 61 220 1
    endloop
  endfacet
  facet normal 0 1 0
    outer loop
      vertex 61 220 1
      vertex 79 220 0
      vertex 61 220 0
    endloop
  endfacet
  facet normal 1 0 0
    outer loop
      vertex 61 225 0
      vertex 61 225 1
      vertex 61 220 1
    endloop
  endfacet
  facet normal 1 0 0
    outer loop
      vertex 61 220 0
      vertex 61 225 0
      vertex 61 220 1
    endloop
  endfacet
  facet normal 0 1 0
    outer loop
      vertex 61 225 1
      vertex 61 225 0
      vertex 56 225 1
    endloop
  endfacet
  facet normal 0 1 0
    outer loop
      vertex 56 225 1
      vertex 61 225 0
      vertex 56 225 0
    endloop
  endfacet
  facet normal -1 1.22461e-016 0
    outer loop
      vertex 56 225 1
      vertex 56 225 0
      vertex 56 180 1
    endloop
  endfacet
  facet normal -1 1.22461e-016 0
    outer loop
      vertex 56 180 1
      vertex 56 225 0
      vertex 56 180 0
    endloop
  endfacet
  facet normal 1.22461e-016 1 0
    outer loop
      vertex 56 180 1
      vertex 56 180 0
      vertex 50 180 1
    endloop
  endfacet
  facet normal 1.22461e-016 1 0
    outer loop
      vertex 50 180 1
      vertex 56 180 0
      vertex 50 180 0
    endloop
  endfacet
  facet normal 1 0 0
    outer loop
      vertex 12 169 0
      vertex 12 169 1
      vertex 12 132 1
    endloop
  endfacet
  facet normal 1 0 0
    outer loop
      vertex 12 132 0
      vertex 12 169 0
      vertex 12 132 1
    endloop
  endfacet
  facet normal 0 -1 0
    outer loop
      vertex 109 169 0
      vertex 109 169 1
      vertex 12 169 1
    endloop
  endfacet
  facet normal 0 -1 0
    outer loop
      vertex 12 169 0
      vertex 109 169 0
      vertex 12 169 1
    endloop
  endfacet
  facet normal -1 0 0
    outer loop
      vertex 109 169 1
      vertex 109 169 0
      vertex 109 132 1
    endloop
  endfacet
  facet normal -1 0 0
    outer loop
      vertex 109 132 1
      vertex 109 169 0
      vertex 109 132 0
    endloop
  endfacet
  facet normal 0 1 0
    outer loop
      vertex 109 132 1
      vertex 109 132 0
      vertex 12 132 1
    endloop
  endfacet
  facet normal 0 1 0
    outer loop
      vertex 12 132 1
      vertex 109 132 0
      vertex 12 132 0
    endloop
  endfacet
  facet normal 1 0 0
    outer loop
      vertex 141 300 0
      vertex 141 300 1
      vertex 141 132 1
    endloop
  endfacet
  facet normal 1 0 0
    outer loop
      vertex 141 132 0
      vertex 141 300 0
      vertex 141 132 1
    endloop
  endfacet
  facet normal 0 -1 0
    outer loop
      vertex 235 300 0
      vertex 235 300 1
      vertex 141 300 1
    endloop
  endfacet
  facet normal 0 -1 0
    outer loop
      vertex 141 300 0
      vertex 235 300 0
      vertex 141 300 1
    endloop
  endfacet
  facet normal -1 0 0
    outer loop
      vertex 235 300 1
      vertex 235 300 0
      vertex 235 132 1
    endloop
  endfacet
  facet normal -1 0 0
    outer loop
      vertex 235 132 1
      vertex 235 300 0
      vertex 235 132 0
    endloop
  endfacet
  facet normal 0 1 0
    outer loop
      vertex 235 132 1
      vertex 235 132 0
      vertex 141 132 1
    endloop
  endfacet
  facet normal 0 1 0
    outer loop
      vertex 141 132 1
      vertex 235 132 0
      vertex 141 132 0
    endloop
  endfacet
endsolid OpenSCAD_Model
