  0
SECTION
  2
BLOCKS
  0
ENDSEC
  0
SECTION
  2
ENTITIES
  0
LINE
  8
0
 10
0
 11
0
 20
-24
 21
-3
  0
LINE
  8
0
 10
0
 11
0.209
 20
-3
 21
-2.984
  0
LINE
  8
0
 10
0.209
 11
0.416
 20
-2.984
 21
-2.934
  0
LINE
  8
0
 10
0.416
 11
0.618
 20
-2.934
 21
-2.853
  0
LINE
  8
0
 10
0.618
 11
0.813
 20
-2.853
 21
-2.741
  0
LINE
  8
0
 10
0.813
 11
1
 20
-2.741
 21
-2.598
  0
LINE
  8
0
 10
1
 11
1.176
 20
-2.598
 21
-2.427
  0
LINE
  8
0
 10
1.176
 11
1.338
 20
-2.427
 21
-2.229
  0
LINE
  8
0
 10
1.338
 11
1.486
 20
-2.229
 21
-2.007
  0
LINE
  8
0
 10
1.486
 11
1.618
 20
-2.007
 21
-1.763
  0
LINE
  8
0
 10
1.618
 11
1.732
 20
-1.763
 21
-1.5
  0
LINE
  8
0
 10
1.732
 11
1.827
 20
-1.5
 21
-1.22
  0
LINE
  8
0
 10
1.827
 11
1.902
 20
-1.22
 21
-0.927
  0
LINE
  8
0
 10
1.902
 11
1.956
 20
-0.927
 21
-0.624
  0
LINE
  8
0
 10
1.956
 11
1.989
 20
-0.624
 21
-0.314
  0
LINE
  8
0
 10
1.989
 11
2
 20
-0.314
 21
0
  0
LINE
  8
0
 10
2
 11
1.989
 20
0
 21
0.314
  0
LINE
  8
0
 10
1.989
 11
1.956
 20
0.314
 21
0.624
  0
LINE
  8
0
 10
1.956
 11
1.902
 20
0.624
 21
0.927
  0
LINE
  8
0
 10
1.902
 11
1.827
 20
0.927
 21
1.22
  0
LINE
  8
0
 10
1.827
 11
1.732
 20
1.22
 21
1.5
  0
LINE
  8
0
 10
1.732
 11
1.618
 20
1.5
 21
1.763
  0
LINE
  8
0
 10
1.618
 11
1.486
 20
1.763
 21
2.007
  0
LINE
  8
0
 10
1.486
 11
1.338
 20
2.007
 21
2.229
  0
LINE
  8
0
 10
1.338
 11
1.176
 20
2.229
 21
2.427
  0
LINE
  8
0
 10
1.176
 11
1
 20
2.427
 21
2.598
  0
LINE
  8
0
 10
1
 11
0.813
 20
2.598
 21
2.741
  0
LINE
  8
0
 10
0.813
 11
0.618
 20
2.741
 21
2.853
  0
LINE
  8
0
 10
0.618
 11
0.416
 20
2.853
 21
2.934
  0
LINE
  8
0
 10
0.416
 11
0.209
 20
2.934
 21
2.984
  0
LINE
  8
0
 10
0.209
 11
0
 20
2.984
 21
3
  0
LINE
  8
0
 10
0
 11
0
 20
3
 21
26
  0
LINE
  8
0
 10
0
 11
50
 20
26
 21
26
  0
LINE
  8
0
 10
50
 11
50
 20
26
 21
-24
  0
LINE
  8
0
 10
50
 11
28
 20
-24
 21
-24
  0
LINE
  8
0
 10
28
 11
27.984
 20
-24
 21
-23.749
  0
LINE
  8
0
 10
27.984
 11
27.934
 20
-23.749
 21
-23.501
  0
LINE
  8
0
 10
27.934
 11
27.853
 20
-23.501
 21
-23.258
  0
LINE
  8
0
 10
27.853
 11
27.741
 20
-23.258
 21
-23.024
  0
LINE
  8
0
 10
27.741
 11
27.598
 20
-23.024
 21
-22.8
  0
LINE
  8
0
 10
27.598
 11
27.427
 20
-22.8
 21
-22.589
  0
LINE
  8
0
 10
27.427
 11
27.229
 20
-22.589
 21
-22.394
  0
LINE
  8
0
 10
27.229
 11
27.007
 20
-22.394
 21
-22.216
  0
LINE
  8
0
 10
27.007
 11
26.763
 20
-22.216
 21
-22.058
  0
LINE
  8
0
 10
26.763
 11
26.5
 20
-22.058
 21
-21.922
  0
LINE
  8
0
 10
26.5
 11
26.22
 20
-21.922
 21
-21.807
  0
LINE
  8
0
 10
26.22
 11
25.927
 20
-21.807
 21
-21.717
  0
LINE
  8
0
 10
25.927
 11
25.624
 20
-21.717
 21
-21.652
  0
LINE
  8
0
 10
25.624
 11
25.314
 20
-21.652
 21
-21.613
  0
LINE
  8
0
 10
25.314
 11
25
 20
-21.613
 21
-21.6
  0
LINE
  8
0
 10
25
 11
24.686
 20
-21.6
 21
-21.613
  0
LINE
  8
0
 10
24.686
 11
24.376
 20
-21.613
 21
-21.652
  0
LINE
  8
0
 10
24.376
 11
24.073
 20
-21.652
 21
-21.717
  0
LINE
  8
0
 10
24.073
 11
23.78
 20
-21.717
 21
-21.807
  0
LINE
  8
0
 10
23.78
 11
23.5
 20
-21.807
 21
-21.922
  0
LINE
  8
0
 10
23.5
 11
23.237
 20
-21.922
 21
-22.058
  0
LINE
  8
0
 10
23.237
 11
22.993
 20
-22.058
 21
-22.216
  0
LINE
  8
0
 10
22.993
 11
22.771
 20
-22.216
 21
-22.394
  0
LINE
  8
0
 10
22.771
 11
22.573
 20
-22.394
 21
-22.589
  0
LINE
  8
0
 10
22.573
 11
22.402
 20
-22.589
 21
-22.8
  0
LINE
  8
0
 10
22.402
 11
22.259
 20
-22.8
 21
-23.024
  0
LINE
  8
0
 10
22.259
 11
22.147
 20
-23.024
 21
-23.258
  0
LINE
  8
0
 10
22.147
 11
22.066
 20
-23.258
 21
-23.501
  0
LINE
  8
0
 10
22.066
 11
22.016
 20
-23.501
 21
-23.749
  0
LINE
  8
0
 10
22.016
 11
22
 20
-23.749
 21
-24
  0
LINE
  8
0
 10
22
 11
0
 20
-24
 21
-24
  0
ENDSEC
  0
SECTION
  2
OBJECTS
  0
DICTIONARY
  0
ENDSEC
  0
EOF
