  0
SECTION
  2
BLOCKS
  0
ENDSEC
  0
SECTION
  2
ENTITIES
  0
LINE
  8
0
 10
0
 11
0
 20
5
 21
239
  0
LINE
  8
0
 10
0
 11
0.027
 20
239
 21
239.523
  0
LINE
  8
0
 10
0.027
 11
0.109
 20
239.523
 21
240.04
  0
LINE
  8
0
 10
0.109
 11
0.245
 20
240.04
 21
240.545
  0
LINE
  8
0
 10
0.245
 11
0.432
 20
240.545
 21
241.034
  0
LINE
  8
0
 10
0.432
 11
0.67
 20
241.034
 21
241.5
  0
LINE
  8
0
 10
0.67
 11
0.955
 20
241.5
 21
241.939
  0
LINE
  8
0
 10
0.955
 11
1.284
 20
241.939
 21
242.346
  0
LINE
  8
0
 10
1.284
 11
1.654
 20
242.346
 21
242.716
  0
LINE
  8
0
 10
1.654
 11
2.061
 20
242.716
 21
243.045
  0
LINE
  8
0
 10
2.061
 11
2.5
 20
243.045
 21
243.33
  0
LINE
  8
0
 10
2.5
 11
2.966
 20
243.33
 21
243.568
  0
LINE
  8
0
 10
2.966
 11
3.455
 20
243.568
 21
243.755
  0
LINE
  8
0
 10
3.455
 11
3.96
 20
243.755
 21
243.891
  0
LINE
  8
0
 10
3.96
 11
4.477
 20
243.891
 21
243.973
  0
LINE
  8
0
 10
4.477
 11
5
 20
243.973
 21
244
  0
LINE
  8
0
 10
5
 11
305
 20
244
 21
244
  0
LINE
  8
0
 10
305
 11
305.523
 20
244
 21
243.973
  0
LINE
  8
0
 10
305.523
 11
306.04
 20
243.973
 21
243.891
  0
LINE
  8
0
 10
306.04
 11
306.545
 20
243.891
 21
243.755
  0
LINE
  8
0
 10
306.545
 11
307.034
 20
243.755
 21
243.568
  0
LINE
  8
0
 10
307.034
 11
307.5
 20
243.568
 21
243.33
  0
LINE
  8
0
 10
307.5
 11
307.939
 20
243.33
 21
243.045
  0
LINE
  8
0
 10
307.939
 11
308.346
 20
243.045
 21
242.716
  0
LINE
  8
0
 10
308.346
 11
308.716
 20
242.716
 21
242.346
  0
LINE
  8
0
 10
308.716
 11
309.045
 20
242.346
 21
241.939
  0
LINE
  8
0
 10
309.045
 11
309.33
 20
241.939
 21
241.5
  0
LINE
  8
0
 10
309.33
 11
309.568
 20
241.5
 21
241.034
  0
LINE
  8
0
 10
309.568
 11
309.755
 20
241.034
 21
240.545
  0
LINE
  8
0
 10
309.755
 11
309.891
 20
240.545
 21
240.04
  0
LINE
  8
0
 10
309.891
 11
309.973
 20
240.04
 21
239.523
  0
LINE
  8
0
 10
309.973
 11
310
 20
239.523
 21
239
  0
LINE
  8
0
 10
310
 11
310
 20
239
 21
5
  0
LINE
  8
0
 10
310
 11
309.973
 20
5
 21
4.477
  0
LINE
  8
0
 10
309.973
 11
309.891
 20
4.477
 21
3.96
  0
LINE
  8
0
 10
309.891
 11
309.755
 20
3.96
 21
3.455
  0
LINE
  8
0
 10
309.755
 11
309.568
 20
3.455
 21
2.966
  0
LINE
  8
0
 10
309.568
 11
309.33
 20
2.966
 21
2.5
  0
LINE
  8
0
 10
309.33
 11
309.045
 20
2.5
 21
2.061
  0
LINE
  8
0
 10
309.045
 11
308.716
 20
2.061
 21
1.654
  0
LINE
  8
0
 10
308.716
 11
308.346
 20
1.654
 21
1.284
  0
LINE
  8
0
 10
308.346
 11
307.939
 20
1.284
 21
0.955
  0
LINE
  8
0
 10
307.939
 11
307.5
 20
0.955
 21
0.67
  0
LINE
  8
0
 10
307.5
 11
307.034
 20
0.67
 21
0.432
  0
LINE
  8
0
 10
307.034
 11
306.545
 20
0.432
 21
0.245
  0
LINE
  8
0
 10
306.545
 11
306.04
 20
0.245
 21
0.109
  0
LINE
  8
0
 10
306.04
 11
305.523
 20
0.109
 21
0.027
  0
LINE
  8
0
 10
305.523
 11
305
 20
0.027
 21
0
  0
LINE
  8
0
 10
305
 11
5
 20
0
 21
0
  0
LINE
  8
0
 10
5
 11
4.477
 20
0
 21
0.027
  0
LINE
  8
0
 10
4.477
 11
3.96
 20
0.027
 21
0.109
  0
LINE
  8
0
 10
3.96
 11
3.455
 20
0.109
 21
0.245
  0
LINE
  8
0
 10
3.455
 11
2.966
 20
0.245
 21
0.432
  0
LINE
  8
0
 10
2.966
 11
2.5
 20
0.432
 21
0.67
  0
LINE
  8
0
 10
2.5
 11
2.061
 20
0.67
 21
0.955
  0
LINE
  8
0
 10
2.061
 11
1.654
 20
0.955
 21
1.284
  0
LINE
  8
0
 10
1.654
 11
1.284
 20
1.284
 21
1.654
  0
LINE
  8
0
 10
1.284
 11
0.955
 20
1.654
 21
2.061
  0
LINE
  8
0
 10
0.955
 11
0.67
 20
2.061
 21
2.5
  0
LINE
  8
0
 10
0.67
 11
0.432
 20
2.5
 21
2.966
  0
LINE
  8
0
 10
0.432
 11
0.245
 20
2.966
 21
3.455
  0
LINE
  8
0
 10
0.245
 11
0.109
 20
3.455
 21
3.96
  0
LINE
  8
0
 10
0.109
 11
0.027
 20
3.96
 21
4.477
  0
LINE
  8
0
 10
0.027
 11
0
 20
4.477
 21
5
  0
LINE
  8
0
 10
82.4
 11
82.409
 20
10
 21
10.167
  0
LINE
  8
0
 10
82.409
 11
82.435
 20
10.167
 21
10.333
  0
LINE
  8
0
 10
82.435
 11
82.478
 20
10.333
 21
10.494
  0
LINE
  8
0
 10
82.478
 11
82.538
 20
10.494
 21
10.651
  0
LINE
  8
0
 10
82.538
 11
82.614
 20
10.651
 21
10.8
  0
LINE
  8
0
 10
82.614
 11
82.706
 20
10.8
 21
10.94
  0
LINE
  8
0
 10
82.706
 11
82.811
 20
10.94
 21
11.071
  0
LINE
  8
0
 10
82.811
 11
82.929
 20
11.071
 21
11.189
  0
LINE
  8
0
 10
82.929
 11
83.06
 20
11.189
 21
11.294
  0
LINE
  8
0
 10
83.06
 11
83.2
 20
11.294
 21
11.386
  0
LINE
  8
0
 10
83.2
 11
83.349
 20
11.386
 21
11.462
  0
LINE
  8
0
 10
83.349
 11
83.506
 20
11.462
 21
11.522
  0
LINE
  8
0
 10
83.506
 11
83.667
 20
11.522
 21
11.565
  0
LINE
  8
0
 10
83.667
 11
83.833
 20
11.565
 21
11.591
  0
LINE
  8
0
 10
83.833
 11
84
 20
11.591
 21
11.6
  0
LINE
  8
0
 10
84
 11
84.167
 20
11.6
 21
11.591
  0
LINE
  8
0
 10
84.167
 11
84.333
 20
11.591
 21
11.565
  0
LINE
  8
0
 10
84.333
 11
84.494
 20
11.565
 21
11.522
  0
LINE
  8
0
 10
84.494
 11
84.651
 20
11.522
 21
11.462
  0
LINE
  8
0
 10
84.651
 11
84.8
 20
11.462
 21
11.386
  0
LINE
  8
0
 10
84.8
 11
84.94
 20
11.386
 21
11.294
  0
LINE
  8
0
 10
84.94
 11
85.071
 20
11.294
 21
11.189
  0
LINE
  8
0
 10
85.071
 11
85.189
 20
11.189
 21
11.071
  0
LINE
  8
0
 10
85.189
 11
85.294
 20
11.071
 21
10.94
  0
LINE
  8
0
 10
85.294
 11
85.386
 20
10.94
 21
10.8
  0
LINE
  8
0
 10
85.386
 11
85.462
 20
10.8
 21
10.651
  0
LINE
  8
0
 10
85.462
 11
85.522
 20
10.651
 21
10.494
  0
LINE
  8
0
 10
85.522
 11
85.565
 20
10.494
 21
10.333
  0
LINE
  8
0
 10
85.565
 11
85.591
 20
10.333
 21
10.167
  0
LINE
  8
0
 10
85.591
 11
85.6
 20
10.167
 21
10
  0
LINE
  8
0
 10
85.6
 11
85.591
 20
10
 21
9.833
  0
LINE
  8
0
 10
85.591
 11
85.565
 20
9.833
 21
9.667
  0
LINE
  8
0
 10
85.565
 11
85.522
 20
9.667
 21
9.506
  0
LINE
  8
0
 10
85.522
 11
85.462
 20
9.506
 21
9.349
  0
LINE
  8
0
 10
85.462
 11
85.386
 20
9.349
 21
9.2
  0
LINE
  8
0
 10
85.386
 11
85.294
 20
9.2
 21
9.06
  0
LINE
  8
0
 10
85.294
 11
85.189
 20
9.06
 21
8.929
  0
LINE
  8
0
 10
85.189
 11
85.071
 20
8.929
 21
8.811
  0
LINE
  8
0
 10
85.071
 11
84.94
 20
8.811
 21
8.706
  0
LINE
  8
0
 10
84.94
 11
84.8
 20
8.706
 21
8.614
  0
LINE
  8
0
 10
84.8
 11
84.651
 20
8.614
 21
8.538
  0
LINE
  8
0
 10
84.651
 11
84.494
 20
8.538
 21
8.478
  0
LINE
  8
0
 10
84.494
 11
84.333
 20
8.478
 21
8.435
  0
LINE
  8
0
 10
84.333
 11
84.167
 20
8.435
 21
8.409
  0
LINE
  8
0
 10
84.167
 11
84
 20
8.409
 21
8.4
  0
LINE
  8
0
 10
84
 11
83.833
 20
8.4
 21
8.409
  0
LINE
  8
0
 10
83.833
 11
83.667
 20
8.409
 21
8.435
  0
LINE
  8
0
 10
83.667
 11
83.506
 20
8.435
 21
8.478
  0
LINE
  8
0
 10
83.506
 11
83.349
 20
8.478
 21
8.538
  0
LINE
  8
0
 10
83.349
 11
83.2
 20
8.538
 21
8.614
  0
LINE
  8
0
 10
83.2
 11
83.06
 20
8.614
 21
8.706
  0
LINE
  8
0
 10
83.06
 11
82.929
 20
8.706
 21
8.811
  0
LINE
  8
0
 10
82.929
 11
82.811
 20
8.811
 21
8.929
  0
LINE
  8
0
 10
82.811
 11
82.706
 20
8.929
 21
9.06
  0
LINE
  8
0
 10
82.706
 11
82.614
 20
9.06
 21
9.2
  0
LINE
  8
0
 10
82.614
 11
82.538
 20
9.2
 21
9.349
  0
LINE
  8
0
 10
82.538
 11
82.478
 20
9.349
 21
9.506
  0
LINE
  8
0
 10
82.478
 11
82.435
 20
9.506
 21
9.667
  0
LINE
  8
0
 10
82.435
 11
82.409
 20
9.667
 21
9.833
  0
LINE
  8
0
 10
82.409
 11
82.4
 20
9.833
 21
10
  0
LINE
  8
0
 10
82.4
 11
82.409
 20
95
 21
95.167
  0
LINE
  8
0
 10
82.409
 11
82.435
 20
95.167
 21
95.333
  0
LINE
  8
0
 10
82.435
 11
82.478
 20
95.333
 21
95.494
  0
LINE
  8
0
 10
82.478
 11
82.538
 20
95.494
 21
95.651
  0
LINE
  8
0
 10
82.538
 11
82.614
 20
95.651
 21
95.8
  0
LINE
  8
0
 10
82.614
 11
82.706
 20
95.8
 21
95.94
  0
LINE
  8
0
 10
82.706
 11
82.811
 20
95.94
 21
96.071
  0
LINE
  8
0
 10
82.811
 11
82.929
 20
96.071
 21
96.189
  0
LINE
  8
0
 10
82.929
 11
83.06
 20
96.189
 21
96.294
  0
LINE
  8
0
 10
83.06
 11
83.2
 20
96.294
 21
96.386
  0
LINE
  8
0
 10
83.2
 11
83.349
 20
96.386
 21
96.462
  0
LINE
  8
0
 10
83.349
 11
83.506
 20
96.462
 21
96.522
  0
LINE
  8
0
 10
83.506
 11
83.667
 20
96.522
 21
96.565
  0
LINE
  8
0
 10
83.667
 11
83.833
 20
96.565
 21
96.591
  0
LINE
  8
0
 10
83.833
 11
84
 20
96.591
 21
96.6
  0
LINE
  8
0
 10
84
 11
84.167
 20
96.6
 21
96.591
  0
LINE
  8
0
 10
84.167
 11
84.333
 20
96.591
 21
96.565
  0
LINE
  8
0
 10
84.333
 11
84.494
 20
96.565
 21
96.522
  0
LINE
  8
0
 10
84.494
 11
84.651
 20
96.522
 21
96.462
  0
LINE
  8
0
 10
84.651
 11
84.8
 20
96.462
 21
96.386
  0
LINE
  8
0
 10
84.8
 11
84.94
 20
96.386
 21
96.294
  0
LINE
  8
0
 10
84.94
 11
85.071
 20
96.294
 21
96.189
  0
LINE
  8
0
 10
85.071
 11
85.189
 20
96.189
 21
96.071
  0
LINE
  8
0
 10
85.189
 11
85.294
 20
96.071
 21
95.94
  0
LINE
  8
0
 10
85.294
 11
85.386
 20
95.94
 21
95.8
  0
LINE
  8
0
 10
85.386
 11
85.462
 20
95.8
 21
95.651
  0
LINE
  8
0
 10
85.462
 11
85.522
 20
95.651
 21
95.494
  0
LINE
  8
0
 10
85.522
 11
85.565
 20
95.494
 21
95.333
  0
LINE
  8
0
 10
85.565
 11
85.591
 20
95.333
 21
95.167
  0
LINE
  8
0
 10
85.591
 11
85.6
 20
95.167
 21
95
  0
LINE
  8
0
 10
85.6
 11
85.591
 20
95
 21
94.833
  0
LINE
  8
0
 10
85.591
 11
85.565
 20
94.833
 21
94.667
  0
LINE
  8
0
 10
85.565
 11
85.522
 20
94.667
 21
94.506
  0
LINE
  8
0
 10
85.522
 11
85.462
 20
94.506
 21
94.349
  0
LINE
  8
0
 10
85.462
 11
85.386
 20
94.349
 21
94.2
  0
LINE
  8
0
 10
85.386
 11
85.294
 20
94.2
 21
94.06
  0
LINE
  8
0
 10
85.294
 11
85.189
 20
94.06
 21
93.929
  0
LINE
  8
0
 10
85.189
 11
85.071
 20
93.929
 21
93.811
  0
LINE
  8
0
 10
85.071
 11
84.94
 20
93.811
 21
93.706
  0
LINE
  8
0
 10
84.94
 11
84.8
 20
93.706
 21
93.614
  0
LINE
  8
0
 10
84.8
 11
84.651
 20
93.614
 21
93.538
  0
LINE
  8
0
 10
84.651
 11
84.494
 20
93.538
 21
93.478
  0
LINE
  8
0
 10
84.494
 11
84.333
 20
93.478
 21
93.435
  0
LINE
  8
0
 10
84.333
 11
84.167
 20
93.435
 21
93.409
  0
LINE
  8
0
 10
84.167
 11
84
 20
93.409
 21
93.4
  0
LINE
  8
0
 10
84
 11
83.833
 20
93.4
 21
93.409
  0
LINE
  8
0
 10
83.833
 11
83.667
 20
93.409
 21
93.435
  0
LINE
  8
0
 10
83.667
 11
83.506
 20
93.435
 21
93.478
  0
LINE
  8
0
 10
83.506
 11
83.349
 20
93.478
 21
93.538
  0
LINE
  8
0
 10
83.349
 11
83.2
 20
93.538
 21
93.614
  0
LINE
  8
0
 10
83.2
 11
83.06
 20
93.614
 21
93.706
  0
LINE
  8
0
 10
83.06
 11
82.929
 20
93.706
 21
93.811
  0
LINE
  8
0
 10
82.929
 11
82.811
 20
93.811
 21
93.929
  0
LINE
  8
0
 10
82.811
 11
82.706
 20
93.929
 21
94.06
  0
LINE
  8
0
 10
82.706
 11
82.614
 20
94.06
 21
94.2
  0
LINE
  8
0
 10
82.614
 11
82.538
 20
94.2
 21
94.349
  0
LINE
  8
0
 10
82.538
 11
82.478
 20
94.349
 21
94.506
  0
LINE
  8
0
 10
82.478
 11
82.435
 20
94.506
 21
94.667
  0
LINE
  8
0
 10
82.435
 11
82.409
 20
94.667
 21
94.833
  0
LINE
  8
0
 10
82.409
 11
82.4
 20
94.833
 21
95
  0
LINE
  8
0
 10
98.4
 11
98.409
 20
95
 21
95.167
  0
LINE
  8
0
 10
98.409
 11
98.435
 20
95.167
 21
95.333
  0
LINE
  8
0
 10
98.435
 11
98.478
 20
95.333
 21
95.494
  0
LINE
  8
0
 10
98.478
 11
98.538
 20
95.494
 21
95.651
  0
LINE
  8
0
 10
98.538
 11
98.614
 20
95.651
 21
95.8
  0
LINE
  8
0
 10
98.614
 11
98.706
 20
95.8
 21
95.94
  0
LINE
  8
0
 10
98.706
 11
98.811
 20
95.94
 21
96.071
  0
LINE
  8
0
 10
98.811
 11
98.929
 20
96.071
 21
96.189
  0
LINE
  8
0
 10
98.929
 11
99.06
 20
96.189
 21
96.294
  0
LINE
  8
0
 10
99.06
 11
99.2
 20
96.294
 21
96.386
  0
LINE
  8
0
 10
99.2
 11
99.349
 20
96.386
 21
96.462
  0
LINE
  8
0
 10
99.349
 11
99.506
 20
96.462
 21
96.522
  0
LINE
  8
0
 10
99.506
 11
99.667
 20
96.522
 21
96.565
  0
LINE
  8
0
 10
99.667
 11
99.833
 20
96.565
 21
96.591
  0
LINE
  8
0
 10
99.833
 11
100
 20
96.591
 21
96.6
  0
LINE
  8
0
 10
100
 11
100.167
 20
96.6
 21
96.591
  0
LINE
  8
0
 10
100.167
 11
100.333
 20
96.591
 21
96.565
  0
LINE
  8
0
 10
100.333
 11
100.494
 20
96.565
 21
96.522
  0
LINE
  8
0
 10
100.494
 11
100.651
 20
96.522
 21
96.462
  0
LINE
  8
0
 10
100.651
 11
100.8
 20
96.462
 21
96.386
  0
LINE
  8
0
 10
100.8
 11
100.94
 20
96.386
 21
96.294
  0
LINE
  8
0
 10
100.94
 11
101.071
 20
96.294
 21
96.189
  0
LINE
  8
0
 10
101.071
 11
101.189
 20
96.189
 21
96.071
  0
LINE
  8
0
 10
101.189
 11
101.294
 20
96.071
 21
95.94
  0
LINE
  8
0
 10
101.294
 11
101.386
 20
95.94
 21
95.8
  0
LINE
  8
0
 10
101.386
 11
101.462
 20
95.8
 21
95.651
  0
LINE
  8
0
 10
101.462
 11
101.522
 20
95.651
 21
95.494
  0
LINE
  8
0
 10
101.522
 11
101.565
 20
95.494
 21
95.333
  0
LINE
  8
0
 10
101.565
 11
101.591
 20
95.333
 21
95.167
  0
LINE
  8
0
 10
101.591
 11
101.6
 20
95.167
 21
95
  0
LINE
  8
0
 10
101.6
 11
101.591
 20
95
 21
94.833
  0
LINE
  8
0
 10
101.591
 11
101.565
 20
94.833
 21
94.667
  0
LINE
  8
0
 10
101.565
 11
101.522
 20
94.667
 21
94.506
  0
LINE
  8
0
 10
101.522
 11
101.462
 20
94.506
 21
94.349
  0
LINE
  8
0
 10
101.462
 11
101.386
 20
94.349
 21
94.2
  0
LINE
  8
0
 10
101.386
 11
101.294
 20
94.2
 21
94.06
  0
LINE
  8
0
 10
101.294
 11
101.189
 20
94.06
 21
93.929
  0
LINE
  8
0
 10
101.189
 11
101.071
 20
93.929
 21
93.811
  0
LINE
  8
0
 10
101.071
 11
100.94
 20
93.811
 21
93.706
  0
LINE
  8
0
 10
100.94
 11
100.8
 20
93.706
 21
93.614
  0
LINE
  8
0
 10
100.8
 11
100.651
 20
93.614
 21
93.538
  0
LINE
  8
0
 10
100.651
 11
100.494
 20
93.538
 21
93.478
  0
LINE
  8
0
 10
100.494
 11
100.333
 20
93.478
 21
93.435
  0
LINE
  8
0
 10
100.333
 11
100.167
 20
93.435
 21
93.409
  0
LINE
  8
0
 10
100.167
 11
100
 20
93.409
 21
93.4
  0
LINE
  8
0
 10
100
 11
99.833
 20
93.4
 21
93.409
  0
LINE
  8
0
 10
99.833
 11
99.667
 20
93.409
 21
93.435
  0
LINE
  8
0
 10
99.667
 11
99.506
 20
93.435
 21
93.478
  0
LINE
  8
0
 10
99.506
 11
99.349
 20
93.478
 21
93.538
  0
LINE
  8
0
 10
99.349
 11
99.2
 20
93.538
 21
93.614
  0
LINE
  8
0
 10
99.2
 11
99.06
 20
93.614
 21
93.706
  0
LINE
  8
0
 10
99.06
 11
98.929
 20
93.706
 21
93.811
  0
LINE
  8
0
 10
98.929
 11
98.811
 20
93.811
 21
93.929
  0
LINE
  8
0
 10
98.811
 11
98.706
 20
93.929
 21
94.06
  0
LINE
  8
0
 10
98.706
 11
98.614
 20
94.06
 21
94.2
  0
LINE
  8
0
 10
98.614
 11
98.538
 20
94.2
 21
94.349
  0
LINE
  8
0
 10
98.538
 11
98.478
 20
94.349
 21
94.506
  0
LINE
  8
0
 10
98.478
 11
98.435
 20
94.506
 21
94.667
  0
LINE
  8
0
 10
98.435
 11
98.409
 20
94.667
 21
94.833
  0
LINE
  8
0
 10
98.409
 11
98.4
 20
94.833
 21
95
  0
LINE
  8
0
 10
198.4
 11
198.409
 20
95
 21
95.167
  0
LINE
  8
0
 10
198.409
 11
198.435
 20
95.167
 21
95.333
  0
LINE
  8
0
 10
198.435
 11
198.478
 20
95.333
 21
95.494
  0
LINE
  8
0
 10
198.478
 11
198.538
 20
95.494
 21
95.651
  0
LINE
  8
0
 10
198.538
 11
198.614
 20
95.651
 21
95.8
  0
LINE
  8
0
 10
198.614
 11
198.706
 20
95.8
 21
95.94
  0
LINE
  8
0
 10
198.706
 11
198.811
 20
95.94
 21
96.071
  0
LINE
  8
0
 10
198.811
 11
198.929
 20
96.071
 21
96.189
  0
LINE
  8
0
 10
198.929
 11
199.06
 20
96.189
 21
96.294
  0
LINE
  8
0
 10
199.06
 11
199.2
 20
96.294
 21
96.386
  0
LINE
  8
0
 10
199.2
 11
199.349
 20
96.386
 21
96.462
  0
LINE
  8
0
 10
199.349
 11
199.506
 20
96.462
 21
96.522
  0
LINE
  8
0
 10
199.506
 11
199.667
 20
96.522
 21
96.565
  0
LINE
  8
0
 10
199.667
 11
199.833
 20
96.565
 21
96.591
  0
LINE
  8
0
 10
199.833
 11
200
 20
96.591
 21
96.6
  0
LINE
  8
0
 10
200
 11
200.167
 20
96.6
 21
96.591
  0
LINE
  8
0
 10
200.167
 11
200.333
 20
96.591
 21
96.565
  0
LINE
  8
0
 10
200.333
 11
200.494
 20
96.565
 21
96.522
  0
LINE
  8
0
 10
200.494
 11
200.651
 20
96.522
 21
96.462
  0
LINE
  8
0
 10
200.651
 11
200.8
 20
96.462
 21
96.386
  0
LINE
  8
0
 10
200.8
 11
200.94
 20
96.386
 21
96.294
  0
LINE
  8
0
 10
200.94
 11
201.071
 20
96.294
 21
96.189
  0
LINE
  8
0
 10
201.071
 11
201.189
 20
96.189
 21
96.071
  0
LINE
  8
0
 10
201.189
 11
201.294
 20
96.071
 21
95.94
  0
LINE
  8
0
 10
201.294
 11
201.386
 20
95.94
 21
95.8
  0
LINE
  8
0
 10
201.386
 11
201.462
 20
95.8
 21
95.651
  0
LINE
  8
0
 10
201.462
 11
201.522
 20
95.651
 21
95.494
  0
LINE
  8
0
 10
201.522
 11
201.565
 20
95.494
 21
95.333
  0
LINE
  8
0
 10
201.565
 11
201.591
 20
95.333
 21
95.167
  0
LINE
  8
0
 10
201.591
 11
201.6
 20
95.167
 21
95
  0
LINE
  8
0
 10
201.6
 11
201.591
 20
95
 21
94.833
  0
LINE
  8
0
 10
201.591
 11
201.565
 20
94.833
 21
94.667
  0
LINE
  8
0
 10
201.565
 11
201.522
 20
94.667
 21
94.506
  0
LINE
  8
0
 10
201.522
 11
201.462
 20
94.506
 21
94.349
  0
LINE
  8
0
 10
201.462
 11
201.386
 20
94.349
 21
94.2
  0
LINE
  8
0
 10
201.386
 11
201.294
 20
94.2
 21
94.06
  0
LINE
  8
0
 10
201.294
 11
201.189
 20
94.06
 21
93.929
  0
LINE
  8
0
 10
201.189
 11
201.071
 20
93.929
 21
93.811
  0
LINE
  8
0
 10
201.071
 11
200.94
 20
93.811
 21
93.706
  0
LINE
  8
0
 10
200.94
 11
200.8
 20
93.706
 21
93.614
  0
LINE
  8
0
 10
200.8
 11
200.651
 20
93.614
 21
93.538
  0
LINE
  8
0
 10
200.651
 11
200.494
 20
93.538
 21
93.478
  0
LINE
  8
0
 10
200.494
 11
200.333
 20
93.478
 21
93.435
  0
LINE
  8
0
 10
200.333
 11
200.167
 20
93.435
 21
93.409
  0
LINE
  8
0
 10
200.167
 11
200
 20
93.409
 21
93.4
  0
LINE
  8
0
 10
200
 11
199.833
 20
93.4
 21
93.409
  0
LINE
  8
0
 10
199.833
 11
199.667
 20
93.409
 21
93.435
  0
LINE
  8
0
 10
199.667
 11
199.506
 20
93.435
 21
93.478
  0
LINE
  8
0
 10
199.506
 11
199.349
 20
93.478
 21
93.538
  0
LINE
  8
0
 10
199.349
 11
199.2
 20
93.538
 21
93.614
  0
LINE
  8
0
 10
199.2
 11
199.06
 20
93.614
 21
93.706
  0
LINE
  8
0
 10
199.06
 11
198.929
 20
93.706
 21
93.811
  0
LINE
  8
0
 10
198.929
 11
198.811
 20
93.811
 21
93.929
  0
LINE
  8
0
 10
198.811
 11
198.706
 20
93.929
 21
94.06
  0
LINE
  8
0
 10
198.706
 11
198.614
 20
94.06
 21
94.2
  0
LINE
  8
0
 10
198.614
 11
198.538
 20
94.2
 21
94.349
  0
LINE
  8
0
 10
198.538
 11
198.478
 20
94.349
 21
94.506
  0
LINE
  8
0
 10
198.478
 11
198.435
 20
94.506
 21
94.667
  0
LINE
  8
0
 10
198.435
 11
198.409
 20
94.667
 21
94.833
  0
LINE
  8
0
 10
198.409
 11
198.4
 20
94.833
 21
95
  0
LINE
  8
0
 10
224.4
 11
224.409
 20
10
 21
10.167
  0
LINE
  8
0
 10
224.409
 11
224.435
 20
10.167
 21
10.333
  0
LINE
  8
0
 10
224.435
 11
224.478
 20
10.333
 21
10.494
  0
LINE
  8
0
 10
224.478
 11
224.538
 20
10.494
 21
10.651
  0
LINE
  8
0
 10
224.538
 11
224.614
 20
10.651
 21
10.8
  0
LINE
  8
0
 10
224.614
 11
224.706
 20
10.8
 21
10.94
  0
LINE
  8
0
 10
224.706
 11
224.811
 20
10.94
 21
11.071
  0
LINE
  8
0
 10
224.811
 11
224.929
 20
11.071
 21
11.189
  0
LINE
  8
0
 10
224.929
 11
225.06
 20
11.189
 21
11.294
  0
LINE
  8
0
 10
225.06
 11
225.2
 20
11.294
 21
11.386
  0
LINE
  8
0
 10
225.2
 11
225.349
 20
11.386
 21
11.462
  0
LINE
  8
0
 10
225.349
 11
225.506
 20
11.462
 21
11.522
  0
LINE
  8
0
 10
225.506
 11
225.667
 20
11.522
 21
11.565
  0
LINE
  8
0
 10
225.667
 11
225.833
 20
11.565
 21
11.591
  0
LINE
  8
0
 10
225.833
 11
226
 20
11.591
 21
11.6
  0
LINE
  8
0
 10
226
 11
226.167
 20
11.6
 21
11.591
  0
LINE
  8
0
 10
226.167
 11
226.333
 20
11.591
 21
11.565
  0
LINE
  8
0
 10
226.333
 11
226.494
 20
11.565
 21
11.522
  0
LINE
  8
0
 10
226.494
 11
226.651
 20
11.522
 21
11.462
  0
LINE
  8
0
 10
226.651
 11
226.8
 20
11.462
 21
11.386
  0
LINE
  8
0
 10
226.8
 11
226.94
 20
11.386
 21
11.294
  0
LINE
  8
0
 10
226.94
 11
227.071
 20
11.294
 21
11.189
  0
LINE
  8
0
 10
227.071
 11
227.189
 20
11.189
 21
11.071
  0
LINE
  8
0
 10
227.189
 11
227.294
 20
11.071
 21
10.94
  0
LINE
  8
0
 10
227.294
 11
227.386
 20
10.94
 21
10.8
  0
LINE
  8
0
 10
227.386
 11
227.462
 20
10.8
 21
10.651
  0
LINE
  8
0
 10
227.462
 11
227.522
 20
10.651
 21
10.494
  0
LINE
  8
0
 10
227.522
 11
227.565
 20
10.494
 21
10.333
  0
LINE
  8
0
 10
227.565
 11
227.591
 20
10.333
 21
10.167
  0
LINE
  8
0
 10
227.591
 11
227.6
 20
10.167
 21
10
  0
LINE
  8
0
 10
227.6
 11
227.591
 20
10
 21
9.833
  0
LINE
  8
0
 10
227.591
 11
227.565
 20
9.833
 21
9.667
  0
LINE
  8
0
 10
227.565
 11
227.522
 20
9.667
 21
9.506
  0
LINE
  8
0
 10
227.522
 11
227.462
 20
9.506
 21
9.349
  0
LINE
  8
0
 10
227.462
 11
227.386
 20
9.349
 21
9.2
  0
LINE
  8
0
 10
227.386
 11
227.294
 20
9.2
 21
9.06
  0
LINE
  8
0
 10
227.294
 11
227.189
 20
9.06
 21
8.929
  0
LINE
  8
0
 10
227.189
 11
227.071
 20
8.929
 21
8.811
  0
LINE
  8
0
 10
227.071
 11
226.94
 20
8.811
 21
8.706
  0
LINE
  8
0
 10
226.94
 11
226.8
 20
8.706
 21
8.614
  0
LINE
  8
0
 10
226.8
 11
226.651
 20
8.614
 21
8.538
  0
LINE
  8
0
 10
226.651
 11
226.494
 20
8.538
 21
8.478
  0
LINE
  8
0
 10
226.494
 11
226.333
 20
8.478
 21
8.435
  0
LINE
  8
0
 10
226.333
 11
226.167
 20
8.435
 21
8.409
  0
LINE
  8
0
 10
226.167
 11
226
 20
8.409
 21
8.4
  0
LINE
  8
0
 10
226
 11
225.833
 20
8.4
 21
8.409
  0
LINE
  8
0
 10
225.833
 11
225.667
 20
8.409
 21
8.435
  0
LINE
  8
0
 10
225.667
 11
225.506
 20
8.435
 21
8.478
  0
LINE
  8
0
 10
225.506
 11
225.349
 20
8.478
 21
8.538
  0
LINE
  8
0
 10
225.349
 11
225.2
 20
8.538
 21
8.614
  0
LINE
  8
0
 10
225.2
 11
225.06
 20
8.614
 21
8.706
  0
LINE
  8
0
 10
225.06
 11
224.929
 20
8.706
 21
8.811
  0
LINE
  8
0
 10
224.929
 11
224.811
 20
8.811
 21
8.929
  0
LINE
  8
0
 10
224.811
 11
224.706
 20
8.929
 21
9.06
  0
LINE
  8
0
 10
224.706
 11
224.614
 20
9.06
 21
9.2
  0
LINE
  8
0
 10
224.614
 11
224.538
 20
9.2
 21
9.349
  0
LINE
  8
0
 10
224.538
 11
224.478
 20
9.349
 21
9.506
  0
LINE
  8
0
 10
224.478
 11
224.435
 20
9.506
 21
9.667
  0
LINE
  8
0
 10
224.435
 11
224.409
 20
9.667
 21
9.833
  0
LINE
  8
0
 10
224.409
 11
224.4
 20
9.833
 21
10
  0
LINE
  8
0
 10
224.4
 11
224.409
 20
95
 21
95.167
  0
LINE
  8
0
 10
224.409
 11
224.435
 20
95.167
 21
95.333
  0
LINE
  8
0
 10
224.435
 11
224.478
 20
95.333
 21
95.494
  0
LINE
  8
0
 10
224.478
 11
224.538
 20
95.494
 21
95.651
  0
LINE
  8
0
 10
224.538
 11
224.614
 20
95.651
 21
95.8
  0
LINE
  8
0
 10
224.614
 11
224.706
 20
95.8
 21
95.94
  0
LINE
  8
0
 10
224.706
 11
224.811
 20
95.94
 21
96.071
  0
LINE
  8
0
 10
224.811
 11
224.929
 20
96.071
 21
96.189
  0
LINE
  8
0
 10
224.929
 11
225.06
 20
96.189
 21
96.294
  0
LINE
  8
0
 10
225.06
 11
225.2
 20
96.294
 21
96.386
  0
LINE
  8
0
 10
225.2
 11
225.349
 20
96.386
 21
96.462
  0
LINE
  8
0
 10
225.349
 11
225.506
 20
96.462
 21
96.522
  0
LINE
  8
0
 10
225.506
 11
225.667
 20
96.522
 21
96.565
  0
LINE
  8
0
 10
225.667
 11
225.833
 20
96.565
 21
96.591
  0
LINE
  8
0
 10
225.833
 11
226
 20
96.591
 21
96.6
  0
LINE
  8
0
 10
226
 11
226.167
 20
96.6
 21
96.591
  0
LINE
  8
0
 10
226.167
 11
226.333
 20
96.591
 21
96.565
  0
LINE
  8
0
 10
226.333
 11
226.494
 20
96.565
 21
96.522
  0
LINE
  8
0
 10
226.494
 11
226.651
 20
96.522
 21
96.462
  0
LINE
  8
0
 10
226.651
 11
226.8
 20
96.462
 21
96.386
  0
LINE
  8
0
 10
226.8
 11
226.94
 20
96.386
 21
96.294
  0
LINE
  8
0
 10
226.94
 11
227.071
 20
96.294
 21
96.189
  0
LINE
  8
0
 10
227.071
 11
227.189
 20
96.189
 21
96.071
  0
LINE
  8
0
 10
227.189
 11
227.294
 20
96.071
 21
95.94
  0
LINE
  8
0
 10
227.294
 11
227.386
 20
95.94
 21
95.8
  0
LINE
  8
0
 10
227.386
 11
227.462
 20
95.8
 21
95.651
  0
LINE
  8
0
 10
227.462
 11
227.522
 20
95.651
 21
95.494
  0
LINE
  8
0
 10
227.522
 11
227.565
 20
95.494
 21
95.333
  0
LINE
  8
0
 10
227.565
 11
227.591
 20
95.333
 21
95.167
  0
LINE
  8
0
 10
227.591
 11
227.6
 20
95.167
 21
95
  0
LINE
  8
0
 10
227.6
 11
227.591
 20
95
 21
94.833
  0
LINE
  8
0
 10
227.591
 11
227.565
 20
94.833
 21
94.667
  0
LINE
  8
0
 10
227.565
 11
227.522
 20
94.667
 21
94.506
  0
LINE
  8
0
 10
227.522
 11
227.462
 20
94.506
 21
94.349
  0
LINE
  8
0
 10
227.462
 11
227.386
 20
94.349
 21
94.2
  0
LINE
  8
0
 10
227.386
 11
227.294
 20
94.2
 21
94.06
  0
LINE
  8
0
 10
227.294
 11
227.189
 20
94.06
 21
93.929
  0
LINE
  8
0
 10
227.189
 11
227.071
 20
93.929
 21
93.811
  0
LINE
  8
0
 10
227.071
 11
226.94
 20
93.811
 21
93.706
  0
LINE
  8
0
 10
226.94
 11
226.8
 20
93.706
 21
93.614
  0
LINE
  8
0
 10
226.8
 11
226.651
 20
93.614
 21
93.538
  0
LINE
  8
0
 10
226.651
 11
226.494
 20
93.538
 21
93.478
  0
LINE
  8
0
 10
226.494
 11
226.333
 20
93.478
 21
93.435
  0
LINE
  8
0
 10
226.333
 11
226.167
 20
93.435
 21
93.409
  0
LINE
  8
0
 10
226.167
 11
226
 20
93.409
 21
93.4
  0
LINE
  8
0
 10
226
 11
225.833
 20
93.4
 21
93.409
  0
LINE
  8
0
 10
225.833
 11
225.667
 20
93.409
 21
93.435
  0
LINE
  8
0
 10
225.667
 11
225.506
 20
93.435
 21
93.478
  0
LINE
  8
0
 10
225.506
 11
225.349
 20
93.478
 21
93.538
  0
LINE
  8
0
 10
225.349
 11
225.2
 20
93.538
 21
93.614
  0
LINE
  8
0
 10
225.2
 11
225.06
 20
93.614
 21
93.706
  0
LINE
  8
0
 10
225.06
 11
224.929
 20
93.706
 21
93.811
  0
LINE
  8
0
 10
224.929
 11
224.811
 20
93.811
 21
93.929
  0
LINE
  8
0
 10
224.811
 11
224.706
 20
93.929
 21
94.06
  0
LINE
  8
0
 10
224.706
 11
224.614
 20
94.06
 21
94.2
  0
LINE
  8
0
 10
224.614
 11
224.538
 20
94.2
 21
94.349
  0
LINE
  8
0
 10
224.538
 11
224.478
 20
94.349
 21
94.506
  0
LINE
  8
0
 10
224.478
 11
224.435
 20
94.506
 21
94.667
  0
LINE
  8
0
 10
224.435
 11
224.409
 20
94.667
 21
94.833
  0
LINE
  8
0
 10
224.409
 11
224.4
 20
94.833
 21
95
  0
ENDSEC
  0
SECTION
  2
OBJECTS
  0
DICTIONARY
  0
ENDSEC
  0
EOF
