  0
SECTION
  2
BLOCKS
  0
ENDSEC
  0
SECTION
  2
ENTITIES
  0
LINE
  8
0
 10
-3
 11
-3
 20
2
 21
22
  0
LINE
  8
0
 10
-3
 11
0
 20
22
 21
22
  0
LINE
  8
0
 10
0
 11
0
 20
22
 21
82
  0
LINE
  8
0
 10
0
 11
-3
 20
82
 21
82
  0
LINE
  8
0
 10
-3
 11
-3
 20
82
 21
102
  0
LINE
  8
0
 10
-3
 11
0
 20
102
 21
102
  0
LINE
  8
0
 10
0
 11
0
 20
102
 21
142
  0
LINE
  8
0
 10
0
 11
-3
 20
142
 21
142
  0
LINE
  8
0
 10
-3
 11
-3
 20
142
 21
162
  0
LINE
  8
0
 10
-3
 11
0
 20
162
 21
162
  0
LINE
  8
0
 10
0
 11
0
 20
162
 21
222
  0
LINE
  8
0
 10
0
 11
-3
 20
222
 21
222
  0
LINE
  8
0
 10
-3
 11
-3
 20
222
 21
242
  0
LINE
  8
0
 10
-3
 11
0
 20
242
 21
242
  0
LINE
  8
0
 10
0
 11
0
 20
242
 21
244
  0
LINE
  8
0
 10
0
 11
40
 20
244
 21
244
  0
LINE
  8
0
 10
40
 11
40
 20
244
 21
247
  0
LINE
  8
0
 10
40
 11
60
 20
247
 21
247
  0
LINE
  8
0
 10
60
 11
60
 20
247
 21
244
  0
LINE
  8
0
 10
60
 11
305
 20
244
 21
244
  0
LINE
  8
0
 10
305
 11
306.913
 20
244
 21
243.619
  0
LINE
  8
0
 10
306.913
 11
308.536
 20
243.619
 21
242.536
  0
LINE
  8
0
 10
308.536
 11
309.619
 20
242.536
 21
240.913
  0
LINE
  8
0
 10
309.619
 11
310
 20
240.913
 21
239
  0
LINE
  8
0
 10
310
 11
310
 20
239
 21
5
  0
LINE
  8
0
 10
310
 11
309.619
 20
5
 21
3.087
  0
LINE
  8
0
 10
309.619
 11
308.536
 20
3.087
 21
1.464
  0
LINE
  8
0
 10
308.536
 11
306.913
 20
1.464
 21
0.381
  0
LINE
  8
0
 10
306.913
 11
305
 20
0.381
 21
0
  0
LINE
  8
0
 10
305
 11
60
 20
0
 21
0
  0
LINE
  8
0
 10
60
 11
60
 20
0
 21
-3
  0
LINE
  8
0
 10
60
 11
40
 20
-3
 21
-3
  0
LINE
  8
0
 10
40
 11
40
 20
-3
 21
0
  0
LINE
  8
0
 10
40
 11
0
 20
0
 21
0
  0
LINE
  8
0
 10
0
 11
0
 20
0
 21
2
  0
LINE
  8
0
 10
0
 11
-3
 20
2
 21
2
  0
ENDSEC
  0
SECTION
  2
OBJECTS
  0
DICTIONARY
  0
ENDSEC
  0
EOF
