  0
SECTION
  2
BLOCKS
  0
ENDSEC
  0
SECTION
  2
ENTITIES
  0
LINE
  8
0
 10
0
 11
0
 20
0
 21
10
  0
LINE
  8
0
 10
0
 11
3
 20
10
 21
10
  0
LINE
  8
0
 10
3
 11
3
 20
10
 21
20
  0
LINE
  8
0
 10
3
 11
0
 20
20
 21
20
  0
LINE
  8
0
 10
0
 11
0
 20
20
 21
30
  0
LINE
  8
0
 10
0
 11
3
 20
30
 21
30
  0
LINE
  8
0
 10
3
 11
3
 20
30
 21
40
  0
LINE
  8
0
 10
3
 11
0
 20
40
 21
40
  0
LINE
  8
0
 10
0
 11
0
 20
40
 21
50
  0
LINE
  8
0
 10
0
 11
10
 20
50
 21
50
  0
LINE
  8
0
 10
10
 11
10
 20
50
 21
47
  0
LINE
  8
0
 10
10
 11
20
 20
47
 21
47
  0
LINE
  8
0
 10
20
 11
20
 20
47
 21
50
  0
LINE
  8
0
 10
20
 11
30
 20
50
 21
50
  0
LINE
  8
0
 10
30
 11
30
 20
50
 21
47
  0
LINE
  8
0
 10
30
 11
40
 20
47
 21
47
  0
LINE
  8
0
 10
40
 11
40
 20
47
 21
50
  0
LINE
  8
0
 10
40
 11
50
 20
50
 21
50
  0
LINE
  8
0
 10
50
 11
50
 20
50
 21
47
  0
LINE
  8
0
 10
50
 11
60
 20
47
 21
47
  0
LINE
  8
0
 10
60
 11
60
 20
47
 21
50
  0
LINE
  8
0
 10
60
 11
70
 20
50
 21
50
  0
LINE
  8
0
 10
70
 11
70
 20
50
 21
47
  0
LINE
  8
0
 10
70
 11
80
 20
47
 21
47
  0
LINE
  8
0
 10
80
 11
80
 20
47
 21
50
  0
LINE
  8
0
 10
80
 11
90
 20
50
 21
50
  0
LINE
  8
0
 10
90
 11
90
 20
50
 21
47
  0
LINE
  8
0
 10
90
 11
100
 20
47
 21
47
  0
LINE
  8
0
 10
100
 11
100
 20
47
 21
50
  0
LINE
  8
0
 10
100
 11
110
 20
50
 21
50
  0
LINE
  8
0
 10
110
 11
110
 20
50
 21
47
  0
LINE
  8
0
 10
110
 11
120
 20
47
 21
47
  0
LINE
  8
0
 10
120
 11
120
 20
47
 21
50
  0
LINE
  8
0
 10
120
 11
130
 20
50
 21
50
  0
LINE
  8
0
 10
130
 11
130
 20
50
 21
47
  0
LINE
  8
0
 10
130
 11
140
 20
47
 21
47
  0
LINE
  8
0
 10
140
 11
140
 20
47
 21
50
  0
LINE
  8
0
 10
140
 11
150
 20
50
 21
50
  0
LINE
  8
0
 10
150
 11
150
 20
50
 21
47
  0
LINE
  8
0
 10
150
 11
160
 20
47
 21
47
  0
LINE
  8
0
 10
160
 11
160
 20
47
 21
50
  0
LINE
  8
0
 10
160
 11
170
 20
50
 21
50
  0
LINE
  8
0
 10
170
 11
170
 20
50
 21
47
  0
LINE
  8
0
 10
170
 11
180
 20
47
 21
47
  0
LINE
  8
0
 10
180
 11
180
 20
47
 21
50
  0
LINE
  8
0
 10
180
 11
190
 20
50
 21
50
  0
LINE
  8
0
 10
190
 11
190
 20
50
 21
47
  0
LINE
  8
0
 10
190
 11
200
 20
47
 21
47
  0
LINE
  8
0
 10
200
 11
200
 20
47
 21
50
  0
LINE
  8
0
 10
200
 11
210
 20
50
 21
50
  0
LINE
  8
0
 10
210
 11
210
 20
50
 21
47
  0
LINE
  8
0
 10
210
 11
220
 20
47
 21
47
  0
LINE
  8
0
 10
220
 11
220
 20
47
 21
50
  0
LINE
  8
0
 10
220
 11
230
 20
50
 21
50
  0
LINE
  8
0
 10
230
 11
230
 20
50
 21
47
  0
LINE
  8
0
 10
230
 11
240
 20
47
 21
47
  0
LINE
  8
0
 10
240
 11
240
 20
47
 21
50
  0
LINE
  8
0
 10
240
 11
250
 20
50
 21
50
  0
LINE
  8
0
 10
250
 11
250
 20
50
 21
40
  0
LINE
  8
0
 10
250
 11
247
 20
40
 21
40
  0
LINE
  8
0
 10
247
 11
247
 20
40
 21
30
  0
LINE
  8
0
 10
247
 11
250
 20
30
 21
30
  0
LINE
  8
0
 10
250
 11
250
 20
30
 21
20
  0
LINE
  8
0
 10
250
 11
247
 20
20
 21
20
  0
LINE
  8
0
 10
247
 11
247
 20
20
 21
10
  0
LINE
  8
0
 10
247
 11
250
 20
10
 21
10
  0
LINE
  8
0
 10
250
 11
250
 20
10
 21
0
  0
LINE
  8
0
 10
250
 11
240
 20
0
 21
0
  0
LINE
  8
0
 10
240
 11
240
 20
0
 21
3
  0
LINE
  8
0
 10
240
 11
245
 20
3
 21
3
  0
LINE
  8
0
 10
245
 11
245
 20
3
 21
6
  0
LINE
  8
0
 10
245
 11
225
 20
6
 21
6
  0
LINE
  8
0
 10
225
 11
225
 20
6
 21
3
  0
LINE
  8
0
 10
225
 11
230
 20
3
 21
3
  0
LINE
  8
0
 10
230
 11
230
 20
3
 21
0
  0
LINE
  8
0
 10
230
 11
220
 20
0
 21
0
  0
LINE
  8
0
 10
220
 11
220
 20
0
 21
3
  0
LINE
  8
0
 10
220
 11
210
 20
3
 21
3
  0
LINE
  8
0
 10
210
 11
210
 20
3
 21
0
  0
LINE
  8
0
 10
210
 11
200
 20
0
 21
0
  0
LINE
  8
0
 10
200
 11
200
 20
0
 21
3
  0
LINE
  8
0
 10
200
 11
190
 20
3
 21
3
  0
LINE
  8
0
 10
190
 11
190
 20
3
 21
0
  0
LINE
  8
0
 10
190
 11
180
 20
0
 21
0
  0
LINE
  8
0
 10
180
 11
180
 20
0
 21
3
  0
LINE
  8
0
 10
180
 11
170
 20
3
 21
3
  0
LINE
  8
0
 10
170
 11
170
 20
3
 21
0
  0
LINE
  8
0
 10
170
 11
160
 20
0
 21
0
  0
LINE
  8
0
 10
160
 11
160
 20
0
 21
3
  0
LINE
  8
0
 10
160
 11
165
 20
3
 21
3
  0
LINE
  8
0
 10
165
 11
165
 20
3
 21
6
  0
LINE
  8
0
 10
165
 11
145
 20
6
 21
6
  0
LINE
  8
0
 10
145
 11
145
 20
6
 21
3
  0
LINE
  8
0
 10
145
 11
150
 20
3
 21
3
  0
LINE
  8
0
 10
150
 11
150
 20
3
 21
0
  0
LINE
  8
0
 10
150
 11
140
 20
0
 21
0
  0
LINE
  8
0
 10
140
 11
140
 20
0
 21
3
  0
LINE
  8
0
 10
140
 11
130
 20
3
 21
3
  0
LINE
  8
0
 10
130
 11
130
 20
3
 21
0
  0
LINE
  8
0
 10
130
 11
120
 20
0
 21
0
  0
LINE
  8
0
 10
120
 11
120
 20
0
 21
3
  0
LINE
  8
0
 10
120
 11
110
 20
3
 21
3
  0
LINE
  8
0
 10
110
 11
110
 20
3
 21
0
  0
LINE
  8
0
 10
110
 11
100
 20
0
 21
0
  0
LINE
  8
0
 10
100
 11
100
 20
0
 21
3
  0
LINE
  8
0
 10
100
 11
105
 20
3
 21
3
  0
LINE
  8
0
 10
105
 11
105
 20
3
 21
6
  0
LINE
  8
0
 10
105
 11
85
 20
6
 21
6
  0
LINE
  8
0
 10
85
 11
85
 20
6
 21
3
  0
LINE
  8
0
 10
85
 11
90
 20
3
 21
3
  0
LINE
  8
0
 10
90
 11
90
 20
3
 21
0
  0
LINE
  8
0
 10
90
 11
80
 20
0
 21
0
  0
LINE
  8
0
 10
80
 11
80
 20
0
 21
3
  0
LINE
  8
0
 10
80
 11
70
 20
3
 21
3
  0
LINE
  8
0
 10
70
 11
70
 20
3
 21
0
  0
LINE
  8
0
 10
70
 11
60
 20
0
 21
0
  0
LINE
  8
0
 10
60
 11
60
 20
0
 21
3
  0
LINE
  8
0
 10
60
 11
50
 20
3
 21
3
  0
LINE
  8
0
 10
50
 11
50
 20
3
 21
0
  0
LINE
  8
0
 10
50
 11
40
 20
0
 21
0
  0
LINE
  8
0
 10
40
 11
40
 20
0
 21
3
  0
LINE
  8
0
 10
40
 11
30
 20
3
 21
3
  0
LINE
  8
0
 10
30
 11
30
 20
3
 21
0
  0
LINE
  8
0
 10
30
 11
20
 20
0
 21
0
  0
LINE
  8
0
 10
20
 11
20
 20
0
 21
3
  0
LINE
  8
0
 10
20
 11
25
 20
3
 21
3
  0
LINE
  8
0
 10
25
 11
25
 20
3
 21
6
  0
LINE
  8
0
 10
25
 11
5
 20
6
 21
6
  0
LINE
  8
0
 10
5
 11
5
 20
6
 21
3
  0
LINE
  8
0
 10
5
 11
10
 20
3
 21
3
  0
LINE
  8
0
 10
10
 11
10
 20
3
 21
0
  0
LINE
  8
0
 10
10
 11
0
 20
0
 21
0
  0
ENDSEC
  0
SECTION
  2
OBJECTS
  0
DICTIONARY
  0
ENDSEC
  0
EOF
