  0
SECTION
  2
BLOCKS
  0
ENDSEC
  0
SECTION
  2
ENTITIES
  0
LINE
  8
0
 10
0
 11
0
 20
-65.535
 21
0
  0
LINE
  8
0
 10
0
 11
10
 20
0
 21
0
  0
LINE
  8
0
 10
10
 11
10
 20
0
 21
3
  0
LINE
  8
0
 10
10
 11
3
 20
3
 21
3
  0
LINE
  8
0
 10
3
 11
3
 20
3
 21
9
  0
LINE
  8
0
 10
3
 11
0
 20
9
 21
9
  0
LINE
  8
0
 10
0
 11
0
 20
9
 21
19
  0
LINE
  8
0
 10
0
 11
3
 20
19
 21
19
  0
LINE
  8
0
 10
3
 11
3
 20
19
 21
25
  0
LINE
  8
0
 10
3
 11
10
 20
25
 21
25
  0
LINE
  8
0
 10
10
 11
10
 20
25
 21
28
  0
LINE
  8
0
 10
10
 11
20
 20
28
 21
28
  0
LINE
  8
0
 10
20
 11
20
 20
28
 21
25
  0
LINE
  8
0
 10
20
 11
30
 20
25
 21
25
  0
LINE
  8
0
 10
30
 11
30
 20
25
 21
28
  0
LINE
  8
0
 10
30
 11
40
 20
28
 21
28
  0
LINE
  8
0
 10
40
 11
40
 20
28
 21
25
  0
LINE
  8
0
 10
40
 11
47
 20
25
 21
25
  0
LINE
  8
0
 10
47
 11
47
 20
25
 21
19
  0
LINE
  8
0
 10
47
 11
50
 20
19
 21
19
  0
LINE
  8
0
 10
50
 11
50
 20
19
 21
9
  0
LINE
  8
0
 10
50
 11
47
 20
9
 21
9
  0
LINE
  8
0
 10
47
 11
47
 20
9
 21
3
  0
LINE
  8
0
 10
47
 11
40
 20
3
 21
3
  0
LINE
  8
0
 10
40
 11
40
 20
3
 21
0
  0
LINE
  8
0
 10
40
 11
30
 20
0
 21
0
  0
LINE
  8
0
 10
30
 11
30
 20
0
 21
3
  0
LINE
  8
0
 10
30
 11
20
 20
3
 21
3
  0
LINE
  8
0
 10
20
 11
20
 20
3
 21
0
  0
LINE
  8
0
 10
20
 11
18.965
 20
0
 21
0
  0
LINE
  8
0
 10
18.965
 11
17.658
 20
0
 21
-0.244
  0
LINE
  8
0
 10
17.658
 11
16.064
 20
-0.244
 21
-1.231
  0
LINE
  8
0
 10
16.064
 11
14.935
 20
-1.231
 21
-2.727
  0
LINE
  8
0
 10
14.935
 11
14.694
 20
-2.727
 21
-3.574
  0
LINE
  8
0
 10
14.694
 11
9.2
 20
-3.574
 21
-67.667
  0
LINE
  8
0
 10
9.2
 11
9.2
 20
-67.667
 21
-65.746
  0
LINE
  8
0
 10
9.2
 11
8.765
 20
-65.746
 21
-67.273
  0
LINE
  8
0
 10
8.765
 11
7.636
 20
-67.273
 21
-68.769
  0
LINE
  8
0
 10
7.636
 11
6.042
 20
-68.769
 21
-69.756
  0
LINE
  8
0
 10
6.042
 11
4.735
 20
-69.756
 21
-70
  0
LINE
  8
0
 10
4.735
 11
4.254
 20
-70
 21
-70
  0
LINE
  8
0
 10
4.254
 11
2.727
 20
-70
 21
-69.565
  0
LINE
  8
0
 10
2.727
 11
1.231
 20
-69.565
 21
-68.436
  0
LINE
  8
0
 10
1.231
 11
0.244
 20
-68.436
 21
-66.842
  0
LINE
  8
0
 10
0.244
 11
0
 20
-66.842
 21
-65.535
  0
LINE
  8
0
 10
3
 11
3
 20
-60
 21
-40
  0
LINE
  8
0
 10
3
 11
6
 20
-40
 21
-40
  0
LINE
  8
0
 10
6
 11
6
 20
-40
 21
-60
  0
LINE
  8
0
 10
6
 11
3
 20
-60
 21
-60
  0
ENDSEC
  0
SECTION
  2
OBJECTS
  0
DICTIONARY
  0
ENDSEC
  0
EOF
