  0
SECTION
  2
BLOCKS
  0
ENDSEC
  0
SECTION
  2
ENTITIES
  0
LINE
  8
0
 10
0
 11
0
 20
5
 21
239
  0
LINE
  8
0
 10
0
 11
0.027
 20
239
 21
239.523
  0
LINE
  8
0
 10
0.027
 11
0.109
 20
239.523
 21
240.04
  0
LINE
  8
0
 10
0.109
 11
0.245
 20
240.04
 21
240.545
  0
LINE
  8
0
 10
0.245
 11
0.432
 20
240.545
 21
241.034
  0
LINE
  8
0
 10
0.432
 11
0.67
 20
241.034
 21
241.5
  0
LINE
  8
0
 10
0.67
 11
0.955
 20
241.5
 21
241.939
  0
LINE
  8
0
 10
0.955
 11
1.284
 20
241.939
 21
242.346
  0
LINE
  8
0
 10
1.284
 11
1.654
 20
242.346
 21
242.716
  0
LINE
  8
0
 10
1.654
 11
2.061
 20
242.716
 21
243.045
  0
LINE
  8
0
 10
2.061
 11
2.5
 20
243.045
 21
243.33
  0
LINE
  8
0
 10
2.5
 11
2.966
 20
243.33
 21
243.568
  0
LINE
  8
0
 10
2.966
 11
3.455
 20
243.568
 21
243.755
  0
LINE
  8
0
 10
3.455
 11
3.96
 20
243.755
 21
243.891
  0
LINE
  8
0
 10
3.96
 11
4.477
 20
243.891
 21
243.973
  0
LINE
  8
0
 10
4.477
 11
5
 20
243.973
 21
244
  0
LINE
  8
0
 10
5
 11
305
 20
244
 21
244
  0
LINE
  8
0
 10
305
 11
305.523
 20
244
 21
243.973
  0
LINE
  8
0
 10
305.523
 11
306.04
 20
243.973
 21
243.891
  0
LINE
  8
0
 10
306.04
 11
306.545
 20
243.891
 21
243.755
  0
LINE
  8
0
 10
306.545
 11
307.034
 20
243.755
 21
243.568
  0
LINE
  8
0
 10
307.034
 11
307.5
 20
243.568
 21
243.33
  0
LINE
  8
0
 10
307.5
 11
307.939
 20
243.33
 21
243.045
  0
LINE
  8
0
 10
307.939
 11
308.346
 20
243.045
 21
242.716
  0
LINE
  8
0
 10
308.346
 11
308.716
 20
242.716
 21
242.346
  0
LINE
  8
0
 10
308.716
 11
309.045
 20
242.346
 21
241.939
  0
LINE
  8
0
 10
309.045
 11
309.33
 20
241.939
 21
241.5
  0
LINE
  8
0
 10
309.33
 11
309.568
 20
241.5
 21
241.034
  0
LINE
  8
0
 10
309.568
 11
309.755
 20
241.034
 21
240.545
  0
LINE
  8
0
 10
309.755
 11
309.891
 20
240.545
 21
240.04
  0
LINE
  8
0
 10
309.891
 11
309.973
 20
240.04
 21
239.523
  0
LINE
  8
0
 10
309.973
 11
310
 20
239.523
 21
239
  0
LINE
  8
0
 10
310
 11
310
 20
239
 21
5
  0
LINE
  8
0
 10
310
 11
309.973
 20
5
 21
4.477
  0
LINE
  8
0
 10
309.973
 11
309.891
 20
4.477
 21
3.96
  0
LINE
  8
0
 10
309.891
 11
309.755
 20
3.96
 21
3.455
  0
LINE
  8
0
 10
309.755
 11
309.568
 20
3.455
 21
2.966
  0
LINE
  8
0
 10
309.568
 11
309.33
 20
2.966
 21
2.5
  0
LINE
  8
0
 10
309.33
 11
309.045
 20
2.5
 21
2.061
  0
LINE
  8
0
 10
309.045
 11
308.716
 20
2.061
 21
1.654
  0
LINE
  8
0
 10
308.716
 11
308.346
 20
1.654
 21
1.284
  0
LINE
  8
0
 10
308.346
 11
307.939
 20
1.284
 21
0.955
  0
LINE
  8
0
 10
307.939
 11
307.5
 20
0.955
 21
0.67
  0
LINE
  8
0
 10
307.5
 11
307.034
 20
0.67
 21
0.432
  0
LINE
  8
0
 10
307.034
 11
306.545
 20
0.432
 21
0.245
  0
LINE
  8
0
 10
306.545
 11
306.04
 20
0.245
 21
0.109
  0
LINE
  8
0
 10
306.04
 11
305.523
 20
0.109
 21
0.027
  0
LINE
  8
0
 10
305.523
 11
305
 20
0.027
 21
0
  0
LINE
  8
0
 10
305
 11
235
 20
0
 21
0
  0
LINE
  8
0
 10
235
 11
235
 20
0
 21
15
  0
LINE
  8
0
 10
235
 11
230
 20
15
 21
15
  0
LINE
  8
0
 10
230
 11
230
 20
15
 21
108.4
  0
LINE
  8
0
 10
230
 11
230.167
 20
108.4
 21
108.409
  0
LINE
  8
0
 10
230.167
 11
230.333
 20
108.409
 21
108.435
  0
LINE
  8
0
 10
230.333
 11
230.494
 20
108.435
 21
108.478
  0
LINE
  8
0
 10
230.494
 11
230.651
 20
108.478
 21
108.538
  0
LINE
  8
0
 10
230.651
 11
230.8
 20
108.538
 21
108.614
  0
LINE
  8
0
 10
230.8
 11
230.94
 20
108.614
 21
108.706
  0
LINE
  8
0
 10
230.94
 11
231.071
 20
108.706
 21
108.811
  0
LINE
  8
0
 10
231.071
 11
231.189
 20
108.811
 21
108.929
  0
LINE
  8
0
 10
231.189
 11
231.294
 20
108.929
 21
109.06
  0
LINE
  8
0
 10
231.294
 11
231.386
 20
109.06
 21
109.2
  0
LINE
  8
0
 10
231.386
 11
231.462
 20
109.2
 21
109.349
  0
LINE
  8
0
 10
231.462
 11
231.522
 20
109.349
 21
109.506
  0
LINE
  8
0
 10
231.522
 11
231.565
 20
109.506
 21
109.667
  0
LINE
  8
0
 10
231.565
 11
231.591
 20
109.667
 21
109.833
  0
LINE
  8
0
 10
231.591
 11
231.6
 20
109.833
 21
110
  0
LINE
  8
0
 10
231.6
 11
231.591
 20
110
 21
110.167
  0
LINE
  8
0
 10
231.591
 11
231.565
 20
110.167
 21
110.333
  0
LINE
  8
0
 10
231.565
 11
231.522
 20
110.333
 21
110.494
  0
LINE
  8
0
 10
231.522
 11
231.462
 20
110.494
 21
110.651
  0
LINE
  8
0
 10
231.462
 11
231.386
 20
110.651
 21
110.8
  0
LINE
  8
0
 10
231.386
 11
231.294
 20
110.8
 21
110.94
  0
LINE
  8
0
 10
231.294
 11
231.189
 20
110.94
 21
111.071
  0
LINE
  8
0
 10
231.189
 11
231.071
 20
111.071
 21
111.189
  0
LINE
  8
0
 10
231.071
 11
230.94
 20
111.189
 21
111.294
  0
LINE
  8
0
 10
230.94
 11
230.8
 20
111.294
 21
111.386
  0
LINE
  8
0
 10
230.8
 11
230.651
 20
111.386
 21
111.462
  0
LINE
  8
0
 10
230.651
 11
230.494
 20
111.462
 21
111.522
  0
LINE
  8
0
 10
230.494
 11
230.333
 20
111.522
 21
111.565
  0
LINE
  8
0
 10
230.333
 11
230.167
 20
111.565
 21
111.591
  0
LINE
  8
0
 10
230.167
 11
230
 20
111.591
 21
111.6
  0
LINE
  8
0
 10
230
 11
230
 20
111.6
 21
115
  0
LINE
  8
0
 10
230
 11
80
 20
115
 21
115
  0
LINE
  8
0
 10
80
 11
80
 20
115
 21
111.6
  0
LINE
  8
0
 10
80
 11
79.833
 20
111.6
 21
111.591
  0
LINE
  8
0
 10
79.833
 11
79.667
 20
111.591
 21
111.565
  0
LINE
  8
0
 10
79.667
 11
79.506
 20
111.565
 21
111.522
  0
LINE
  8
0
 10
79.506
 11
79.349
 20
111.522
 21
111.462
  0
LINE
  8
0
 10
79.349
 11
79.2
 20
111.462
 21
111.386
  0
LINE
  8
0
 10
79.2
 11
79.06
 20
111.386
 21
111.294
  0
LINE
  8
0
 10
79.06
 11
78.929
 20
111.294
 21
111.189
  0
LINE
  8
0
 10
78.929
 11
78.811
 20
111.189
 21
111.071
  0
LINE
  8
0
 10
78.811
 11
78.706
 20
111.071
 21
110.94
  0
LINE
  8
0
 10
78.706
 11
78.614
 20
110.94
 21
110.8
  0
LINE
  8
0
 10
78.614
 11
78.538
 20
110.8
 21
110.651
  0
LINE
  8
0
 10
78.538
 11
78.478
 20
110.651
 21
110.494
  0
LINE
  8
0
 10
78.478
 11
78.435
 20
110.494
 21
110.333
  0
LINE
  8
0
 10
78.435
 11
78.409
 20
110.333
 21
110.167
  0
LINE
  8
0
 10
78.409
 11
78.4
 20
110.167
 21
110
  0
LINE
  8
0
 10
78.4
 11
78.409
 20
110
 21
109.833
  0
LINE
  8
0
 10
78.409
 11
78.435
 20
109.833
 21
109.667
  0
LINE
  8
0
 10
78.435
 11
78.478
 20
109.667
 21
109.506
  0
LINE
  8
0
 10
78.478
 11
78.538
 20
109.506
 21
109.349
  0
LINE
  8
0
 10
78.538
 11
78.614
 20
109.349
 21
109.2
  0
LINE
  8
0
 10
78.614
 11
78.706
 20
109.2
 21
109.06
  0
LINE
  8
0
 10
78.706
 11
78.811
 20
109.06
 21
108.929
  0
LINE
  8
0
 10
78.811
 11
78.929
 20
108.929
 21
108.811
  0
LINE
  8
0
 10
78.929
 11
79.06
 20
108.811
 21
108.706
  0
LINE
  8
0
 10
79.06
 11
79.2
 20
108.706
 21
108.614
  0
LINE
  8
0
 10
79.2
 11
79.349
 20
108.614
 21
108.538
  0
LINE
  8
0
 10
79.349
 11
79.506
 20
108.538
 21
108.478
  0
LINE
  8
0
 10
79.506
 11
79.667
 20
108.478
 21
108.435
  0
LINE
  8
0
 10
79.667
 11
79.833
 20
108.435
 21
108.409
  0
LINE
  8
0
 10
79.833
 11
80
 20
108.409
 21
108.4
  0
LINE
  8
0
 10
80
 11
80
 20
108.4
 21
15
  0
LINE
  8
0
 10
80
 11
75
 20
15
 21
15
  0
LINE
  8
0
 10
75
 11
75
 20
15
 21
0
  0
LINE
  8
0
 10
75
 11
5
 20
0
 21
0
  0
LINE
  8
0
 10
5
 11
4.477
 20
0
 21
0.027
  0
LINE
  8
0
 10
4.477
 11
3.96
 20
0.027
 21
0.109
  0
LINE
  8
0
 10
3.96
 11
3.455
 20
0.109
 21
0.245
  0
LINE
  8
0
 10
3.455
 11
2.966
 20
0.245
 21
0.432
  0
LINE
  8
0
 10
2.966
 11
2.5
 20
0.432
 21
0.67
  0
LINE
  8
0
 10
2.5
 11
2.061
 20
0.67
 21
0.955
  0
LINE
  8
0
 10
2.061
 11
1.654
 20
0.955
 21
1.284
  0
LINE
  8
0
 10
1.654
 11
1.284
 20
1.284
 21
1.654
  0
LINE
  8
0
 10
1.284
 11
0.955
 20
1.654
 21
2.061
  0
LINE
  8
0
 10
0.955
 11
0.67
 20
2.061
 21
2.5
  0
LINE
  8
0
 10
0.67
 11
0.432
 20
2.5
 21
2.966
  0
LINE
  8
0
 10
0.432
 11
0.245
 20
2.966
 21
3.455
  0
LINE
  8
0
 10
0.245
 11
0.109
 20
3.455
 21
3.96
  0
LINE
  8
0
 10
0.109
 11
0.027
 20
3.96
 21
4.477
  0
LINE
  8
0
 10
0.027
 11
0
 20
4.477
 21
5
  0
ENDSEC
  0
SECTION
  2
OBJECTS
  0
DICTIONARY
  0
ENDSEC
  0
EOF
