  0
SECTION
  2
BLOCKS
  0
ENDSEC
  0
SECTION
  2
ENTITIES
  0
LINE
  8
0
 10
0
 11
0
 20
5
 21
239
  0
LINE
  8
0
 10
0
 11
0.381
 20
239
 21
240.913
  0
LINE
  8
0
 10
0.381
 11
1.464
 20
240.913
 21
242.536
  0
LINE
  8
0
 10
1.464
 11
3.087
 20
242.536
 21
243.619
  0
LINE
  8
0
 10
3.087
 11
5
 20
243.619
 21
244
  0
LINE
  8
0
 10
5
 11
305
 20
244
 21
244
  0
LINE
  8
0
 10
305
 11
306.913
 20
244
 21
243.619
  0
LINE
  8
0
 10
306.913
 11
308.536
 20
243.619
 21
242.536
  0
LINE
  8
0
 10
308.536
 11
309.619
 20
242.536
 21
240.913
  0
LINE
  8
0
 10
309.619
 11
310
 20
240.913
 21
239
  0
LINE
  8
0
 10
310
 11
310
 20
239
 21
5
  0
LINE
  8
0
 10
310
 11
309.619
 20
5
 21
3.087
  0
LINE
  8
0
 10
309.619
 11
308.536
 20
3.087
 21
1.464
  0
LINE
  8
0
 10
308.536
 11
306.913
 20
1.464
 21
0.381
  0
LINE
  8
0
 10
306.913
 11
305
 20
0.381
 21
0
  0
LINE
  8
0
 10
305
 11
224.9
 20
0
 21
0
  0
LINE
  8
0
 10
224.9
 11
224.9
 20
0
 21
35.1
  0
LINE
  8
0
 10
224.9
 11
215
 20
35.1
 21
45
  0
LINE
  8
0
 10
215
 11
230
 20
45
 21
45
  0
LINE
  8
0
 10
230
 11
230
 20
45
 21
30
  0
LINE
  8
0
 10
230
 11
235
 20
30
 21
30
  0
LINE
  8
0
 10
235
 11
235
 20
30
 21
47
  0
LINE
  8
0
 10
235
 11
224.9
 20
47
 21
47
  0
LINE
  8
0
 10
224.9
 11
224.9
 20
47
 21
100
  0
LINE
  8
0
 10
224.9
 11
210
 20
100
 21
100
  0
LINE
  8
0
 10
210
 11
210
 20
100
 21
90
  0
LINE
  8
0
 10
210
 11
180
 20
90
 21
90
  0
LINE
  8
0
 10
180
 11
180
 20
90
 21
100
  0
LINE
  8
0
 10
180
 11
85
 20
100
 21
100
  0
LINE
  8
0
 10
85
 11
85
 20
100
 21
47
  0
LINE
  8
0
 10
85
 11
75
 20
47
 21
47
  0
LINE
  8
0
 10
75
 11
75
 20
47
 21
30
  0
LINE
  8
0
 10
75
 11
80
 20
30
 21
30
  0
LINE
  8
0
 10
80
 11
80
 20
30
 21
45
  0
LINE
  8
0
 10
80
 11
95
 20
45
 21
45
  0
LINE
  8
0
 10
95
 11
85
 20
45
 21
35
  0
LINE
  8
0
 10
85
 11
85
 20
35
 21
0
  0
LINE
  8
0
 10
85
 11
5
 20
0
 21
0
  0
LINE
  8
0
 10
5
 11
3.087
 20
0
 21
0.381
  0
LINE
  8
0
 10
3.087
 11
1.464
 20
0.381
 21
1.464
  0
LINE
  8
0
 10
1.464
 11
0.381
 20
1.464
 21
3.087
  0
LINE
  8
0
 10
0.381
 11
0
 20
3.087
 21
5
  0
ENDSEC
  0
SECTION
  2
OBJECTS
  0
DICTIONARY
  0
ENDSEC
  0
EOF
