  0
SECTION
  2
BLOCKS
  0
ENDSEC
  0
SECTION
  2
ENTITIES
  0
LINE
  8
0
 10
0
 11
0
 20
0
 21
52
  0
LINE
  8
0
 10
0
 11
30
 20
52
 21
52
  0
LINE
  8
0
 10
30
 11
30
 20
52
 21
0
  0
LINE
  8
0
 10
30
 11
0
 20
0
 21
0
  0
LINE
  8
0
 10
12.1
 11
12.654
 20
8
 21
9.705
  0
LINE
  8
0
 10
12.654
 11
14.104
 20
9.705
 21
10.758
  0
LINE
  8
0
 10
14.104
 11
15.896
 20
10.758
 21
10.758
  0
LINE
  8
0
 10
15.896
 11
17.346
 20
10.758
 21
9.705
  0
LINE
  8
0
 10
17.346
 11
17.9
 20
9.705
 21
8
  0
LINE
  8
0
 10
17.9
 11
17.346
 20
8
 21
6.295
  0
LINE
  8
0
 10
17.346
 11
15.896
 20
6.295
 21
5.242
  0
LINE
  8
0
 10
15.896
 11
14.104
 20
5.242
 21
5.242
  0
LINE
  8
0
 10
14.104
 11
12.654
 20
5.242
 21
6.295
  0
LINE
  8
0
 10
12.654
 11
12.1
 20
6.295
 21
8
  0
LINE
  8
0
 10
12.369
 11
12.369
 20
15.042
 21
16.958
  0
LINE
  8
0
 10
12.369
 11
13.6
 20
16.958
 21
18.425
  0
LINE
  8
0
 10
13.6
 11
15.486
 20
18.425
 21
18.757
  0
LINE
  8
0
 10
15.486
 11
17.145
 20
18.757
 21
17.8
  0
LINE
  8
0
 10
17.145
 11
17.8
 20
17.8
 21
16
  0
LINE
  8
0
 10
17.8
 11
17.145
 20
16
 21
14.2
  0
LINE
  8
0
 10
17.145
 11
15.486
 20
14.2
 21
13.243
  0
LINE
  8
0
 10
15.486
 11
13.6
 20
13.243
 21
13.575
  0
LINE
  8
0
 10
13.6
 11
12.369
 20
13.575
 21
15.042
  0
LINE
  8
0
 10
12.463
 11
12.463
 20
23.077
 21
24.923
  0
LINE
  8
0
 10
12.463
 11
13.65
 20
24.923
 21
26.338
  0
LINE
  8
0
 10
13.65
 11
15.469
 20
26.338
 21
26.659
  0
LINE
  8
0
 10
15.469
 11
17.068
 20
26.659
 21
25.736
  0
LINE
  8
0
 10
17.068
 11
17.7
 20
25.736
 21
24
  0
LINE
  8
0
 10
17.7
 11
17.068
 20
24
 21
22.264
  0
LINE
  8
0
 10
17.068
 11
15.469
 20
22.264
 21
21.341
  0
LINE
  8
0
 10
15.469
 11
13.65
 20
21.341
 21
21.662
  0
LINE
  8
0
 10
13.65
 11
12.463
 20
21.662
 21
23.077
  0
LINE
  8
0
 10
12.557
 11
12.557
 20
31.111
 21
32.889
  0
LINE
  8
0
 10
12.557
 11
13.7
 20
32.889
 21
34.252
  0
LINE
  8
0
 10
13.7
 11
15.451
 20
34.252
 21
34.561
  0
LINE
  8
0
 10
15.451
 11
16.992
 20
34.561
 21
33.671
  0
LINE
  8
0
 10
16.992
 11
17.6
 20
33.671
 21
32
  0
LINE
  8
0
 10
17.6
 11
16.992
 20
32
 21
30.329
  0
LINE
  8
0
 10
16.992
 11
15.451
 20
30.329
 21
29.44
  0
LINE
  8
0
 10
15.451
 11
13.7
 20
29.44
 21
29.748
  0
LINE
  8
0
 10
13.7
 11
12.557
 20
29.748
 21
31.111
  0
LINE
  8
0
 10
12.557
 11
12.557
 20
39.111
 21
40.889
  0
LINE
  8
0
 10
12.557
 11
13.7
 20
40.889
 21
42.252
  0
LINE
  8
0
 10
13.7
 11
15.451
 20
42.252
 21
42.561
  0
LINE
  8
0
 10
15.451
 11
16.992
 20
42.561
 21
41.671
  0
LINE
  8
0
 10
16.992
 11
17.6
 20
41.671
 21
40
  0
LINE
  8
0
 10
17.6
 11
16.992
 20
40
 21
38.329
  0
LINE
  8
0
 10
16.992
 11
15.451
 20
38.329
 21
37.439
  0
LINE
  8
0
 10
15.451
 11
13.7
 20
37.439
 21
37.748
  0
LINE
  8
0
 10
13.7
 11
12.557
 20
37.748
 21
39.111
  0
ENDSEC
  0
SECTION
  2
OBJECTS
  0
DICTIONARY
  0
ENDSEC
  0
EOF
