  0
SECTION
  2
BLOCKS
  0
ENDSEC
  0
SECTION
  2
ENTITIES
  0
LINE
  8
0
 10
13
 11
13
 20
0
 21
3
  0
LINE
  8
0
 10
13
 11
33
 20
3
 21
3
  0
LINE
  8
0
 10
33
 11
33
 20
3
 21
0
  0
LINE
  8
0
 10
33
 11
13
 20
0
 21
0
  0
LINE
  8
0
 10
0
 11
3
 20
0
 21
0
  0
LINE
  8
0
 10
3
 11
3
 20
0
 21
6
  0
LINE
  8
0
 10
3
 11
0
 20
6
 21
6
  0
LINE
  8
0
 10
0
 11
0
 20
6
 21
22
  0
LINE
  8
0
 10
0
 11
3
 20
22
 21
22
  0
LINE
  8
0
 10
3
 11
3
 20
22
 21
28
  0
LINE
  8
0
 10
3
 11
13
 20
28
 21
28
  0
LINE
  8
0
 10
13
 11
13
 20
28
 21
25
  0
LINE
  8
0
 10
13
 11
33
 20
25
 21
25
  0
LINE
  8
0
 10
33
 11
33
 20
25
 21
28
  0
LINE
  8
0
 10
33
 11
43
 20
28
 21
28
  0
LINE
  8
0
 10
43
 11
43
 20
28
 21
22
  0
LINE
  8
0
 10
43
 11
46
 20
22
 21
22
  0
LINE
  8
0
 10
46
 11
46
 20
22
 21
6
  0
LINE
  8
0
 10
46
 11
43
 20
6
 21
6
  0
LINE
  8
0
 10
43
 11
43
 20
6
 21
0
  0
LINE
  8
0
 10
43
 11
46
 20
0
 21
0
  0
LINE
  8
0
 10
46
 11
45.999
 20
0
 21
-74.995
  0
LINE
  8
0
 10
45.999
 11
46
 20
-74.995
 21
-75
  0
LINE
  8
0
 10
46
 11
45.619
 20
-75
 21
-76.913
  0
LINE
  8
0
 10
45.619
 11
44.536
 20
-76.913
 21
-78.536
  0
LINE
  8
0
 10
44.536
 11
42.913
 20
-78.536
 21
-79.619
  0
LINE
  8
0
 10
42.913
 11
41
 20
-79.619
 21
-80
  0
LINE
  8
0
 10
41
 11
30.799
 20
-80
 21
-80
  0
LINE
  8
0
 10
30.799
 11
30.052
 20
-80
 21
-79.905
  0
LINE
  8
0
 10
30.052
 11
28.359
 20
-79.905
 21
-78.937
  0
LINE
  8
0
 10
28.359
 11
27.164
 20
-78.937
 21
-77.394
  0
LINE
  8
0
 10
27.164
 11
26.651
 20
-77.394
 21
-75.512
  0
LINE
  8
0
 10
26.651
 11
26.652
 20
-75.512
 21
-75.507
  0
LINE
  8
0
 10
26.652
 11
26.646
 20
-75.507
 21
-75.508
  0
LINE
  8
0
 10
26.646
 11
26.7
 20
-75.508
 21
-76.287
  0
LINE
  8
0
 10
26.7
 11
0
 20
-76.287
 21
0
  0
LINE
  8
0
 10
40
 11
40
 20
-60
 21
-40
  0
LINE
  8
0
 10
40
 11
43
 20
-40
 21
-40
  0
LINE
  8
0
 10
43
 11
43
 20
-40
 21
-60
  0
LINE
  8
0
 10
43
 11
40
 20
-60
 21
-60
  0
ENDSEC
  0
SECTION
  2
OBJECTS
  0
DICTIONARY
  0
ENDSEC
  0
EOF
