  0
SECTION
  2
BLOCKS
  0
ENDSEC
  0
SECTION
  2
ENTITIES
  0
LINE
  8
0
 10
0
 11
0
 20
0
 21
13
  0
LINE
  8
0
 10
0
 11
3
 20
13
 21
13
  0
LINE
  8
0
 10
3
 11
3
 20
13
 21
23
  0
LINE
  8
0
 10
3
 11
0
 20
23
 21
23
  0
LINE
  8
0
 10
0
 11
0
 20
23
 21
33
  0
LINE
  8
0
 10
0
 11
3
 20
33
 21
33
  0
LINE
  8
0
 10
3
 11
3
 20
33
 21
43
  0
LINE
  8
0
 10
3
 11
0
 20
43
 21
43
  0
LINE
  8
0
 10
0
 11
0
 20
43
 21
53
  0
LINE
  8
0
 10
0
 11
3
 20
53
 21
53
  0
LINE
  8
0
 10
3
 11
3
 20
53
 21
63
  0
LINE
  8
0
 10
3
 11
0
 20
63
 21
63
  0
LINE
  8
0
 10
0
 11
0
 20
63
 21
73
  0
LINE
  8
0
 10
0
 11
3
 20
73
 21
73
  0
LINE
  8
0
 10
3
 11
3
 20
73
 21
83
  0
LINE
  8
0
 10
3
 11
0
 20
83
 21
83
  0
LINE
  8
0
 10
0
 11
0
 20
83
 21
93
  0
LINE
  8
0
 10
0
 11
3
 20
93
 21
93
  0
LINE
  8
0
 10
3
 11
3
 20
93
 21
103
  0
LINE
  8
0
 10
3
 11
0
 20
103
 21
103
  0
LINE
  8
0
 10
0
 11
0
 20
103
 21
113
  0
LINE
  8
0
 10
0
 11
3
 20
113
 21
113
  0
LINE
  8
0
 10
3
 11
3
 20
113
 21
123
  0
LINE
  8
0
 10
3
 11
0
 20
123
 21
123
  0
LINE
  8
0
 10
0
 11
0
 20
123
 21
133
  0
LINE
  8
0
 10
0
 11
3
 20
133
 21
133
  0
LINE
  8
0
 10
3
 11
3
 20
133
 21
143
  0
LINE
  8
0
 10
3
 11
0
 20
143
 21
143
  0
LINE
  8
0
 10
0
 11
0
 20
143
 21
153
  0
LINE
  8
0
 10
0
 11
3
 20
153
 21
153
  0
LINE
  8
0
 10
3
 11
3
 20
153
 21
163
  0
LINE
  8
0
 10
3
 11
0
 20
163
 21
163
  0
LINE
  8
0
 10
0
 11
0
 20
163
 21
173
  0
LINE
  8
0
 10
0
 11
3
 20
173
 21
173
  0
LINE
  8
0
 10
3
 11
3
 20
173
 21
183
  0
LINE
  8
0
 10
3
 11
0
 20
183
 21
183
  0
LINE
  8
0
 10
0
 11
0
 20
183
 21
193
  0
LINE
  8
0
 10
0
 11
3
 20
193
 21
193
  0
LINE
  8
0
 10
3
 11
3
 20
193
 21
203
  0
LINE
  8
0
 10
3
 11
0
 20
203
 21
203
  0
LINE
  8
0
 10
0
 11
0
 20
203
 21
213
  0
LINE
  8
0
 10
0
 11
3
 20
213
 21
213
  0
LINE
  8
0
 10
3
 11
3
 20
213
 21
223
  0
LINE
  8
0
 10
3
 11
0
 20
223
 21
223
  0
LINE
  8
0
 10
0
 11
0
 20
223
 21
233
  0
LINE
  8
0
 10
0
 11
3
 20
233
 21
233
  0
LINE
  8
0
 10
3
 11
3
 20
233
 21
243
  0
LINE
  8
0
 10
3
 11
0
 20
243
 21
243
  0
LINE
  8
0
 10
0
 11
0
 20
243
 21
253
  0
LINE
  8
0
 10
0
 11
3
 20
253
 21
253
  0
LINE
  8
0
 10
3
 11
3
 20
253
 21
263
  0
LINE
  8
0
 10
3
 11
0
 20
263
 21
263
  0
LINE
  8
0
 10
0
 11
0
 20
263
 21
273
  0
LINE
  8
0
 10
0
 11
3
 20
273
 21
273
  0
LINE
  8
0
 10
3
 11
3
 20
273
 21
283
  0
LINE
  8
0
 10
3
 11
0
 20
283
 21
283
  0
LINE
  8
0
 10
0
 11
0
 20
283
 21
293
  0
LINE
  8
0
 10
0
 11
3
 20
293
 21
293
  0
LINE
  8
0
 10
3
 11
3
 20
293
 21
303
  0
LINE
  8
0
 10
3
 11
0
 20
303
 21
303
  0
LINE
  8
0
 10
0
 11
0
 20
303
 21
316
  0
LINE
  8
0
 10
0
 11
6
 20
316
 21
316
  0
LINE
  8
0
 10
6
 11
6
 20
316
 21
313
  0
LINE
  8
0
 10
6
 11
22
 20
313
 21
313
  0
LINE
  8
0
 10
22
 11
22
 20
313
 21
316
  0
LINE
  8
0
 10
22
 11
28
 20
316
 21
316
  0
LINE
  8
0
 10
28
 11
28
 20
316
 21
303
  0
LINE
  8
0
 10
28
 11
25
 20
303
 21
303
  0
LINE
  8
0
 10
25
 11
25
 20
303
 21
293
  0
LINE
  8
0
 10
25
 11
28
 20
293
 21
293
  0
LINE
  8
0
 10
28
 11
28
 20
293
 21
283
  0
LINE
  8
0
 10
28
 11
25
 20
283
 21
283
  0
LINE
  8
0
 10
25
 11
25
 20
283
 21
273
  0
LINE
  8
0
 10
25
 11
28
 20
273
 21
273
  0
LINE
  8
0
 10
28
 11
28
 20
273
 21
263
  0
LINE
  8
0
 10
28
 11
25
 20
263
 21
263
  0
LINE
  8
0
 10
25
 11
25
 20
263
 21
253
  0
LINE
  8
0
 10
25
 11
28
 20
253
 21
253
  0
LINE
  8
0
 10
28
 11
28
 20
253
 21
243
  0
LINE
  8
0
 10
28
 11
25
 20
243
 21
243
  0
LINE
  8
0
 10
25
 11
25
 20
243
 21
233
  0
LINE
  8
0
 10
25
 11
28
 20
233
 21
233
  0
LINE
  8
0
 10
28
 11
28
 20
233
 21
223
  0
LINE
  8
0
 10
28
 11
25
 20
223
 21
223
  0
LINE
  8
0
 10
25
 11
25
 20
223
 21
213
  0
LINE
  8
0
 10
25
 11
28
 20
213
 21
213
  0
LINE
  8
0
 10
28
 11
28
 20
213
 21
203
  0
LINE
  8
0
 10
28
 11
25
 20
203
 21
203
  0
LINE
  8
0
 10
25
 11
25
 20
203
 21
193
  0
LINE
  8
0
 10
25
 11
28
 20
193
 21
193
  0
LINE
  8
0
 10
28
 11
28
 20
193
 21
183
  0
LINE
  8
0
 10
28
 11
25
 20
183
 21
183
  0
LINE
  8
0
 10
25
 11
25
 20
183
 21
173
  0
LINE
  8
0
 10
25
 11
28
 20
173
 21
173
  0
LINE
  8
0
 10
28
 11
28
 20
173
 21
163
  0
LINE
  8
0
 10
28
 11
25
 20
163
 21
163
  0
LINE
  8
0
 10
25
 11
25
 20
163
 21
153
  0
LINE
  8
0
 10
25
 11
28
 20
153
 21
153
  0
LINE
  8
0
 10
28
 11
28
 20
153
 21
143
  0
LINE
  8
0
 10
28
 11
25
 20
143
 21
143
  0
LINE
  8
0
 10
25
 11
25
 20
143
 21
133
  0
LINE
  8
0
 10
25
 11
28
 20
133
 21
133
  0
LINE
  8
0
 10
28
 11
28
 20
133
 21
123
  0
LINE
  8
0
 10
28
 11
25
 20
123
 21
123
  0
LINE
  8
0
 10
25
 11
25
 20
123
 21
113
  0
LINE
  8
0
 10
25
 11
28
 20
113
 21
113
  0
LINE
  8
0
 10
28
 11
28
 20
113
 21
103
  0
LINE
  8
0
 10
28
 11
25
 20
103
 21
103
  0
LINE
  8
0
 10
25
 11
25
 20
103
 21
93
  0
LINE
  8
0
 10
25
 11
28
 20
93
 21
93
  0
LINE
  8
0
 10
28
 11
28
 20
93
 21
83
  0
LINE
  8
0
 10
28
 11
25
 20
83
 21
83
  0
LINE
  8
0
 10
25
 11
25
 20
83
 21
73
  0
LINE
  8
0
 10
25
 11
28
 20
73
 21
73
  0
LINE
  8
0
 10
28
 11
28
 20
73
 21
63
  0
LINE
  8
0
 10
28
 11
25
 20
63
 21
63
  0
LINE
  8
0
 10
25
 11
25
 20
63
 21
53
  0
LINE
  8
0
 10
25
 11
28
 20
53
 21
53
  0
LINE
  8
0
 10
28
 11
28
 20
53
 21
43
  0
LINE
  8
0
 10
28
 11
25
 20
43
 21
43
  0
LINE
  8
0
 10
25
 11
25
 20
43
 21
33
  0
LINE
  8
0
 10
25
 11
28
 20
33
 21
33
  0
LINE
  8
0
 10
28
 11
28
 20
33
 21
23
  0
LINE
  8
0
 10
28
 11
25
 20
23
 21
23
  0
LINE
  8
0
 10
25
 11
25
 20
23
 21
13
  0
LINE
  8
0
 10
25
 11
28
 20
13
 21
13
  0
LINE
  8
0
 10
28
 11
28
 20
13
 21
0
  0
LINE
  8
0
 10
28
 11
22
 20
0
 21
0
  0
LINE
  8
0
 10
22
 11
22
 20
0
 21
6
  0
LINE
  8
0
 10
22
 11
6
 20
6
 21
6
  0
LINE
  8
0
 10
6
 11
6
 20
6
 21
0
  0
LINE
  8
0
 10
6
 11
0
 20
0
 21
0
  0
LINE
  8
0
 10
6
 11
6
 20
186
 21
189
  0
LINE
  8
0
 10
6
 11
22
 20
189
 21
189
  0
LINE
  8
0
 10
22
 11
22
 20
189
 21
186
  0
LINE
  8
0
 10
22
 11
6
 20
186
 21
186
  0
ENDSEC
  0
SECTION
  2
OBJECTS
  0
DICTIONARY
  0
ENDSEC
  0
EOF
