  0
SECTION
  2
BLOCKS
  0
ENDSEC
  0
SECTION
  2
ENTITIES
  0
LINE
  8
0
 10
0
 11
0
 20
0
 21
10
  0
LINE
  8
0
 10
0
 11
3
 20
10
 21
10
  0
LINE
  8
0
 10
3
 11
3
 20
10
 21
20
  0
LINE
  8
0
 10
3
 11
0
 20
20
 21
20
  0
LINE
  8
0
 10
0
 11
0
 20
20
 21
30
  0
LINE
  8
0
 10
0
 11
3
 20
30
 21
30
  0
LINE
  8
0
 10
3
 11
3
 20
30
 21
40
  0
LINE
  8
0
 10
3
 11
0
 20
40
 21
40
  0
LINE
  8
0
 10
0
 11
0
 20
40
 21
50
  0
LINE
  8
0
 10
0
 11
3
 20
50
 21
50
  0
LINE
  8
0
 10
3
 11
3
 20
50
 21
60
  0
LINE
  8
0
 10
3
 11
0
 20
60
 21
60
  0
LINE
  8
0
 10
0
 11
0
 20
60
 21
70
  0
LINE
  8
0
 10
0
 11
3
 20
70
 21
70
  0
LINE
  8
0
 10
3
 11
3
 20
70
 21
80
  0
LINE
  8
0
 10
3
 11
0
 20
80
 21
80
  0
LINE
  8
0
 10
0
 11
0
 20
80
 21
90
  0
LINE
  8
0
 10
0
 11
3
 20
90
 21
90
  0
LINE
  8
0
 10
3
 11
3
 20
90
 21
100
  0
LINE
  8
0
 10
3
 11
0
 20
100
 21
100
  0
LINE
  8
0
 10
0
 11
0
 20
100
 21
110
  0
LINE
  8
0
 10
0
 11
3
 20
110
 21
110
  0
LINE
  8
0
 10
3
 11
3
 20
110
 21
120
  0
LINE
  8
0
 10
3
 11
0
 20
120
 21
120
  0
LINE
  8
0
 10
0
 11
0
 20
120
 21
130
  0
LINE
  8
0
 10
0
 11
3
 20
130
 21
130
  0
LINE
  8
0
 10
3
 11
3
 20
130
 21
140
  0
LINE
  8
0
 10
3
 11
0
 20
140
 21
140
  0
LINE
  8
0
 10
0
 11
0
 20
140
 21
150
  0
LINE
  8
0
 10
0
 11
3
 20
150
 21
150
  0
LINE
  8
0
 10
3
 11
3
 20
150
 21
160
  0
LINE
  8
0
 10
3
 11
0
 20
160
 21
160
  0
LINE
  8
0
 10
0
 11
0
 20
160
 21
170
  0
LINE
  8
0
 10
0
 11
3
 20
170
 21
170
  0
LINE
  8
0
 10
3
 11
3
 20
170
 21
180
  0
LINE
  8
0
 10
3
 11
0
 20
180
 21
180
  0
LINE
  8
0
 10
0
 11
0
 20
180
 21
190
  0
LINE
  8
0
 10
0
 11
3
 20
190
 21
190
  0
LINE
  8
0
 10
3
 11
3
 20
190
 21
200
  0
LINE
  8
0
 10
3
 11
0
 20
200
 21
200
  0
LINE
  8
0
 10
0
 11
0
 20
200
 21
210
  0
LINE
  8
0
 10
0
 11
3
 20
210
 21
210
  0
LINE
  8
0
 10
3
 11
3
 20
210
 21
220
  0
LINE
  8
0
 10
3
 11
0
 20
220
 21
220
  0
LINE
  8
0
 10
0
 11
0
 20
220
 21
230
  0
LINE
  8
0
 10
0
 11
3
 20
230
 21
230
  0
LINE
  8
0
 10
3
 11
3
 20
230
 21
240
  0
LINE
  8
0
 10
3
 11
0
 20
240
 21
240
  0
LINE
  8
0
 10
0
 11
0
 20
240
 21
250
  0
LINE
  8
0
 10
0
 11
3
 20
250
 21
250
  0
LINE
  8
0
 10
3
 11
3
 20
250
 21
260
  0
LINE
  8
0
 10
3
 11
0
 20
260
 21
260
  0
LINE
  8
0
 10
0
 11
0
 20
260
 21
270
  0
LINE
  8
0
 10
0
 11
3
 20
270
 21
270
  0
LINE
  8
0
 10
3
 11
3
 20
270
 21
280
  0
LINE
  8
0
 10
3
 11
0
 20
280
 21
280
  0
LINE
  8
0
 10
0
 11
0
 20
280
 21
290
  0
LINE
  8
0
 10
0
 11
3
 20
290
 21
290
  0
LINE
  8
0
 10
3
 11
3
 20
290
 21
300
  0
LINE
  8
0
 10
3
 11
0
 20
300
 21
300
  0
LINE
  8
0
 10
0
 11
0
 20
300
 21
310
  0
LINE
  8
0
 10
0
 11
6
 20
310
 21
310
  0
LINE
  8
0
 10
6
 11
6
 20
310
 21
307
  0
LINE
  8
0
 10
6
 11
22
 20
307
 21
307
  0
LINE
  8
0
 10
22
 11
22
 20
307
 21
310
  0
LINE
  8
0
 10
22
 11
28
 20
310
 21
310
  0
LINE
  8
0
 10
28
 11
28
 20
310
 21
300
  0
LINE
  8
0
 10
28
 11
25
 20
300
 21
300
  0
LINE
  8
0
 10
25
 11
25
 20
300
 21
290
  0
LINE
  8
0
 10
25
 11
28
 20
290
 21
290
  0
LINE
  8
0
 10
28
 11
28
 20
290
 21
280
  0
LINE
  8
0
 10
28
 11
25
 20
280
 21
280
  0
LINE
  8
0
 10
25
 11
25
 20
280
 21
270
  0
LINE
  8
0
 10
25
 11
28
 20
270
 21
270
  0
LINE
  8
0
 10
28
 11
28
 20
270
 21
260
  0
LINE
  8
0
 10
28
 11
25
 20
260
 21
260
  0
LINE
  8
0
 10
25
 11
25
 20
260
 21
250
  0
LINE
  8
0
 10
25
 11
28
 20
250
 21
250
  0
LINE
  8
0
 10
28
 11
28
 20
250
 21
240
  0
LINE
  8
0
 10
28
 11
25
 20
240
 21
240
  0
LINE
  8
0
 10
25
 11
25
 20
240
 21
230
  0
LINE
  8
0
 10
25
 11
28
 20
230
 21
230
  0
LINE
  8
0
 10
28
 11
28
 20
230
 21
220
  0
LINE
  8
0
 10
28
 11
25
 20
220
 21
220
  0
LINE
  8
0
 10
25
 11
25
 20
220
 21
210
  0
LINE
  8
0
 10
25
 11
28
 20
210
 21
210
  0
LINE
  8
0
 10
28
 11
28
 20
210
 21
200
  0
LINE
  8
0
 10
28
 11
25
 20
200
 21
200
  0
LINE
  8
0
 10
25
 11
25
 20
200
 21
190
  0
LINE
  8
0
 10
25
 11
28
 20
190
 21
190
  0
LINE
  8
0
 10
28
 11
28
 20
190
 21
180
  0
LINE
  8
0
 10
28
 11
25
 20
180
 21
180
  0
LINE
  8
0
 10
25
 11
25
 20
180
 21
170
  0
LINE
  8
0
 10
25
 11
28
 20
170
 21
170
  0
LINE
  8
0
 10
28
 11
28
 20
170
 21
160
  0
LINE
  8
0
 10
28
 11
25
 20
160
 21
160
  0
LINE
  8
0
 10
25
 11
25
 20
160
 21
150
  0
LINE
  8
0
 10
25
 11
28
 20
150
 21
150
  0
LINE
  8
0
 10
28
 11
28
 20
150
 21
140
  0
LINE
  8
0
 10
28
 11
25
 20
140
 21
140
  0
LINE
  8
0
 10
25
 11
25
 20
140
 21
130
  0
LINE
  8
0
 10
25
 11
28
 20
130
 21
130
  0
LINE
  8
0
 10
28
 11
28
 20
130
 21
120
  0
LINE
  8
0
 10
28
 11
25
 20
120
 21
120
  0
LINE
  8
0
 10
25
 11
25
 20
120
 21
110
  0
LINE
  8
0
 10
25
 11
28
 20
110
 21
110
  0
LINE
  8
0
 10
28
 11
28
 20
110
 21
100
  0
LINE
  8
0
 10
28
 11
25
 20
100
 21
100
  0
LINE
  8
0
 10
25
 11
25
 20
100
 21
90
  0
LINE
  8
0
 10
25
 11
28
 20
90
 21
90
  0
LINE
  8
0
 10
28
 11
28
 20
90
 21
80
  0
LINE
  8
0
 10
28
 11
25
 20
80
 21
80
  0
LINE
  8
0
 10
25
 11
25
 20
80
 21
70
  0
LINE
  8
0
 10
25
 11
28
 20
70
 21
70
  0
LINE
  8
0
 10
28
 11
28
 20
70
 21
60
  0
LINE
  8
0
 10
28
 11
25
 20
60
 21
60
  0
LINE
  8
0
 10
25
 11
25
 20
60
 21
50
  0
LINE
  8
0
 10
25
 11
28
 20
50
 21
50
  0
LINE
  8
0
 10
28
 11
28
 20
50
 21
40
  0
LINE
  8
0
 10
28
 11
25
 20
40
 21
40
  0
LINE
  8
0
 10
25
 11
25
 20
40
 21
30
  0
LINE
  8
0
 10
25
 11
28
 20
30
 21
30
  0
LINE
  8
0
 10
28
 11
28
 20
30
 21
20
  0
LINE
  8
0
 10
28
 11
25
 20
20
 21
20
  0
LINE
  8
0
 10
25
 11
25
 20
20
 21
10
  0
LINE
  8
0
 10
25
 11
28
 20
10
 21
10
  0
LINE
  8
0
 10
28
 11
28
 20
10
 21
0
  0
LINE
  8
0
 10
28
 11
22
 20
0
 21
0
  0
LINE
  8
0
 10
22
 11
22
 20
0
 21
6
  0
LINE
  8
0
 10
22
 11
6
 20
6
 21
6
  0
LINE
  8
0
 10
6
 11
6
 20
6
 21
0
  0
LINE
  8
0
 10
6
 11
0
 20
0
 21
0
  0
LINE
  8
0
 10
6
 11
6
 20
186
 21
189
  0
LINE
  8
0
 10
6
 11
22
 20
189
 21
189
  0
LINE
  8
0
 10
22
 11
22
 20
189
 21
186
  0
LINE
  8
0
 10
22
 11
6
 20
186
 21
186
  0
ENDSEC
  0
SECTION
  2
OBJECTS
  0
DICTIONARY
  0
ENDSEC
  0
EOF
