solid OpenSCAD_Model
  facet normal -1 0 0
    outer loop
      vertex 90 0 0
      vertex 90 0 15
      vertex 90 100 0
    endloop
  endfacet
  facet normal -1 0 0
    outer loop
      vertex 90 100 0
      vertex 90 0 15
      vertex 90 35 15
    endloop
  endfacet
  facet normal -1 0 0
    outer loop
      vertex 90 100 0
      vertex 90 35 15
      vertex 90 40 15
    endloop
  endfacet
  facet normal -1 0 0
    outer loop
      vertex 90 100 0
      vertex 90 40 15
      vertex 90 45 15
    endloop
  endfacet
  facet normal -1 0 0
    outer loop
      vertex 90 100 0
      vertex 90 45 15
      vertex 90 100 15
    endloop
  endfacet
  facet normal 0 -1 0
    outer loop
      vertex 90 0 15
      vertex 90 0 0
      vertex 220 0 0
    endloop
  endfacet
  facet normal 0 -1 0
    outer loop
      vertex 198.2 0 6.5
      vertex 90 0 15
      vertex 220 0 0
    endloop
  endfacet
  facet normal 0 -1 0
    outer loop
      vertex 206 0 6.5
      vertex 198.2 0 6.5
      vertex 220 0 0
    endloop
  endfacet
  facet normal 0 -1 0
    outer loop
      vertex 198.2 0 10.3
      vertex 90 0 15
      vertex 198.2 0 6.5
    endloop
  endfacet
  facet normal 0 -1 0
    outer loop
      vertex 220 0 15
      vertex 90 0 15
      vertex 198.2 0 10.3
    endloop
  endfacet
  facet normal 0 -1 0
    outer loop
      vertex 220 0 15
      vertex 198.2 0 10.3
      vertex 206 0 10.3
    endloop
  endfacet
  facet normal 0 -1 0
    outer loop
      vertex 220 0 15
      vertex 206 0 6.5
      vertex 220 0 0
    endloop
  endfacet
  facet normal 0 -1 0
    outer loop
      vertex 206 0 10.3
      vertex 206 0 6.5
      vertex 220 0 15
    endloop
  endfacet
  facet normal 0 0 -1
    outer loop
      vertex 90 0 0
      vertex 90 100 0
      vertex 220 0 0
    endloop
  endfacet
  facet normal 0 0 -1
    outer loop
      vertex 220 0 0
      vertex 90 100 0
      vertex 220 100 0
    endloop
  endfacet
  facet normal 0 1 0
    outer loop
      vertex 90 100 0
      vertex 90 100 15
      vertex 220 100 0
    endloop
  endfacet
  facet normal 0 1 0
    outer loop
      vertex 220 100 0
      vertex 90 100 15
      vertex 180 100 15
    endloop
  endfacet
  facet normal 0 1 0
    outer loop
      vertex 220 100 0
      vertex 180 100 15
      vertex 210 100 15
    endloop
  endfacet
  facet normal 0 1 0
    outer loop
      vertex 220 100 0
      vertex 210 100 15
      vertex 220 100 15
    endloop
  endfacet
  facet normal 0 0 1
    outer loop
      vertex 151.5 2.9 15
      vertex 90 0 15
      vertex 220 0 15
    endloop
  endfacet
  facet normal 0 0 1
    outer loop
      vertex 220 40 15
      vertex 220 35 15
      vertex 220 0 15
    endloop
  endfacet
  facet normal 0 0 1
    outer loop
      vertex 214 83 15
      vertex 214 64 15
      vertex 220 45 15
    endloop
  endfacet
  facet normal 0 0 1
    outer loop
      vertex 213 2.9 15
      vertex 151.5 2.9 15
      vertex 220 0 15
    endloop
  endfacet
  facet normal 0 0 1
    outer loop
      vertex 173 98 15
      vertex 180 100 15
      vertex 156 98 15
    endloop
  endfacet
  facet normal 0 0 1
    outer loop
      vertex 111 82 15
      vertex 111 97 15
      vertex 108 85 15
    endloop
  endfacet
  facet normal 0 0 1
    outer loop
      vertex 215 40 15
      vertex 213 2.9 15
      vertex 220 35 15
    endloop
  endfacet
  facet normal 0 0 1
    outer loop
      vertex 180 90 15
      vertex 180 100 15
      vertex 173 98 15
    endloop
  endfacet
  facet normal 0 0 1
    outer loop
      vertex 220 100 15
      vertex 214 83 15
      vertex 220 45 15
    endloop
  endfacet
  facet normal 0 0 1
    outer loop
      vertex 220 100 15
      vertex 210 90 15
      vertex 214 83 15
    endloop
  endfacet
  facet normal 0 0 1
    outer loop
      vertex 210 64 15
      vertex 210 61.9 15
      vertex 214 64 15
    endloop
  endfacet
  facet normal 0 0 1
    outer loop
      vertex 213 61.9 15
      vertex 215 40 15
      vertex 220 45 15
    endloop
  endfacet
  facet normal 0 0 1
    outer loop
      vertex 180 90 15
      vertex 175 83 15
      vertex 185 90 15
    endloop
  endfacet
  facet normal 0 0 1
    outer loop
      vertex 214 64 15
      vertex 213 61.9 15
      vertex 220 45 15
    endloop
  endfacet
  facet normal 0 0 1
    outer loop
      vertex 214 64 15
      vertex 210 61.9 15
      vertex 213 61.9 15
    endloop
  endfacet
  facet normal 0 0 1
    outer loop
      vertex 220 35 15
      vertex 213 2.9 15
      vertex 220 0 15
    endloop
  endfacet
  facet normal 0 0 1
    outer loop
      vertex 173 98 15
      vertex 175 83 15
      vertex 180 90 15
    endloop
  endfacet
  facet normal 0 0 1
    outer loop
      vertex 173 98 15
      vertex 173 80 15
      vertex 175 83 15
    endloop
  endfacet
  facet normal 0 0 1
    outer loop
      vertex 140 3 15
      vertex 90 0 15
      vertex 151.5 2.9 15
    endloop
  endfacet
  facet normal 0 0 1
    outer loop
      vertex 151.5 3 15
      vertex 140 3 15
      vertex 151.5 2.9 15
    endloop
  endfacet
  facet normal 0 0 1
    outer loop
      vertex 156 98 15
      vertex 180 100 15
      vertex 111 97 15
    endloop
  endfacet
  facet normal 0 0 1
    outer loop
      vertex 138 3 15
      vertex 90 0 15
      vertex 140 3 15
    endloop
  endfacet
  facet normal 0 0 1
    outer loop
      vertex 175 80 15
      vertex 175 83 15
      vertex 173 80 15
    endloop
  endfacet
  facet normal 0 0 1
    outer loop
      vertex 95 40 15
      vertex 97 67 15
      vertex 90 45 15
    endloop
  endfacet
  facet normal 0 0 1
    outer loop
      vertex 97 67 15
      vertex 111 70 15
      vertex 108 70 15
    endloop
  endfacet
  facet normal 0 0 1
    outer loop
      vertex 108 72 15
      vertex 108 70 15
      vertex 111 72 15
    endloop
  endfacet
  facet normal 0 0 1
    outer loop
      vertex 97 3 15
      vertex 97 67 15
      vertex 95 40 15
    endloop
  endfacet
  facet normal 0 0 1
    outer loop
      vertex 97 67 15
      vertex 138 67 15
      vertex 140 70 15
    endloop
  endfacet
  facet normal 0 0 1
    outer loop
      vertex 108 70 15
      vertex 111 70 15
      vertex 111 72 15
    endloop
  endfacet
  facet normal 0 0 1
    outer loop
      vertex 90 100 15
      vertex 98 85 15
      vertex 111 97 15
    endloop
  endfacet
  facet normal 0 0 1
    outer loop
      vertex 90 45 15
      vertex 97 67 15
      vertex 98 85 15
    endloop
  endfacet
  facet normal 0 0 1
    outer loop
      vertex 156 92 15
      vertex 152 97 15
      vertex 152 92 15
    endloop
  endfacet
  facet normal 0 0 1
    outer loop
      vertex 156 92 15
      vertex 156 98 15
      vertex 152 97 15
    endloop
  endfacet
  facet normal 0 0 1
    outer loop
      vertex 111 97 15
      vertex 152 97 15
      vertex 156 98 15
    endloop
  endfacet
  facet normal 0 0 1
    outer loop
      vertex 185 83 15
      vertex 185 90 15
      vertex 175 83 15
    endloop
  endfacet
  facet normal 0 0 1
    outer loop
      vertex 108 85 15
      vertex 111 97 15
      vertex 98 85 15
    endloop
  endfacet
  facet normal 0 0 1
    outer loop
      vertex 190 90 15
      vertex 190 83 15
      vertex 210 90 15
    endloop
  endfacet
  facet normal 0 0 1
    outer loop
      vertex 97 67 15
      vertex 140 70 15
      vertex 111 70 15
    endloop
  endfacet
  facet normal 0 0 1
    outer loop
      vertex 138 67 15
      vertex 138 3 15
      vertex 140 3 15
    endloop
  endfacet
  facet normal 0 0 1
    outer loop
      vertex 90 100 15
      vertex 111 97 15
      vertex 180 100 15
    endloop
  endfacet
  facet normal 0 0 1
    outer loop
      vertex 90 100 15
      vertex 90 45 15
      vertex 98 85 15
    endloop
  endfacet
  facet normal 0 0 1
    outer loop
      vertex 97 3 15
      vertex 95 40 15
      vertex 90 35 15
    endloop
  endfacet
  facet normal 0 0 1
    outer loop
      vertex 97 67 15
      vertex 108 70 15
      vertex 98 70 15
    endloop
  endfacet
  facet normal 0 0 1
    outer loop
      vertex 90 35 15
      vertex 90 0 15
      vertex 97 3 15
    endloop
  endfacet
  facet normal 0 0 1
    outer loop
      vertex 98 85 15
      vertex 97 67 15
      vertex 98 70 15
    endloop
  endfacet
  facet normal 0 0 1
    outer loop
      vertex 97 3 15
      vertex 90 0 15
      vertex 138 3 15
    endloop
  endfacet
  facet normal 0 0 1
    outer loop
      vertex 111 82 15
      vertex 108 85 15
      vertex 108 82 15
    endloop
  endfacet
  facet normal 0 0 1
    outer loop
      vertex 190 83 15
      vertex 214 83 15
      vertex 210 90 15
    endloop
  endfacet
  facet normal 0 0 1
    outer loop
      vertex 210 100 15
      vertex 210 90 15
      vertex 220 100 15
    endloop
  endfacet
  facet normal 0 0 1
    outer loop
      vertex 213 61.9 15
      vertex 213 2.9 15
      vertex 215 40 15
    endloop
  endfacet
  facet normal 0 0 1
    outer loop
      vertex 140 3 15
      vertex 140 70 15
      vertex 138 67 15
    endloop
  endfacet
  facet normal 0 0 1
    outer loop
      vertex 90 45 15
      vertex 90 40 15
      vertex 95 40 15
    endloop
  endfacet
  facet normal 0 0 1
    outer loop
      vertex 90 40 15
      vertex 90 35 15
      vertex 95 40 15
    endloop
  endfacet
  facet normal 1 0 0
    outer loop
      vertex 220 0 15
      vertex 220 0 0
      vertex 220 100 0
    endloop
  endfacet
  facet normal 1 0 0
    outer loop
      vertex 220 40 15
      vertex 220 0 15
      vertex 220 100 0
    endloop
  endfacet
  facet normal 1 0 0
    outer loop
      vertex 220 100 15
      vertex 220 45 15
      vertex 220 100 0
    endloop
  endfacet
  facet normal 1 0 0
    outer loop
      vertex 220 45 15
      vertex 220 40 15
      vertex 220 100 0
    endloop
  endfacet
  facet normal 0 0 1
    outer loop
      vertex 206 0 6.5
      vertex 206 2.9 6.5
      vertex 198.2 2.9 6.5
    endloop
  endfacet
  facet normal 0 0 1
    outer loop
      vertex 198.2 0 6.5
      vertex 206 0 6.5
      vertex 198.2 2.9 6.5
    endloop
  endfacet
  facet normal 1 -1.22461e-016 0
    outer loop
      vertex 198.2 2.9 6.5
      vertex 198.2 2.9 10.3
      vertex 198.2 0 10.3
    endloop
  endfacet
  facet normal 1 -1.22461e-016 0
    outer loop
      vertex 198.2 0 6.5
      vertex 198.2 2.9 6.5
      vertex 198.2 0 10.3
    endloop
  endfacet
  facet normal -1 1.22461e-016 0
    outer loop
      vertex 206 2.9 10.3
      vertex 206 2.9 6.5
      vertex 206 0 10.3
    endloop
  endfacet
  facet normal -1 1.22461e-016 0
    outer loop
      vertex 206 0 10.3
      vertex 206 2.9 6.5
      vertex 206 0 6.5
    endloop
  endfacet
  facet normal 0 0 -1
    outer loop
      vertex 206 2.9 10.3
      vertex 206 0 10.3
      vertex 198.2 2.9 10.3
    endloop
  endfacet
  facet normal 0 0 -1
    outer loop
      vertex 198.2 2.9 10.3
      vertex 206 0 10.3
      vertex 198.2 0 10.3
    endloop
  endfacet
  facet normal 0 0 1
    outer loop
      vertex 180 100 15
      vertex 180 90 15
      vertex 185 90 15
    endloop
  endfacet
  facet normal 0 0 1
    outer loop
      vertex 190 90 15
      vertex 180 100 15
      vertex 185 90 15
    endloop
  endfacet
  facet normal 0 0 1
    outer loop
      vertex 210 90 15
      vertex 180 100 15
      vertex 190 90 15
    endloop
  endfacet
  facet normal 0 0 1
    outer loop
      vertex 210 100 15
      vertex 180 100 15
      vertex 210 90 15
    endloop
  endfacet
  facet normal 1 -2.22045e-016 -4.93038e-032
    outer loop
      vertex 185 83 12
      vertex 185 90 12
      vertex 185 83 15
    endloop
  endfacet
  facet normal 1 -2.22045e-016 -4.93038e-032
    outer loop
      vertex 185 83 15
      vertex 185 90 12
      vertex 185 90 15
    endloop
  endfacet
  facet normal 0 -1 0
    outer loop
      vertex 214 83 4
      vertex 214 83 15
      vertex 190 83 15
    endloop
  endfacet
  facet normal 0 -1 0
    outer loop
      vertex 185 83 12
      vertex 214 83 4
      vertex 190 83 12
    endloop
  endfacet
  facet normal 0 -1 0
    outer loop
      vertex 190 83 12
      vertex 214 83 4
      vertex 190 83 15
    endloop
  endfacet
  facet normal 0 -1 0
    outer loop
      vertex 175 83 4
      vertex 214 83 4
      vertex 185 83 12
    endloop
  endfacet
  facet normal 0 -1 0
    outer loop
      vertex 175 83 15
      vertex 185 83 12
      vertex 185 83 15
    endloop
  endfacet
  facet normal 0 -1 0
    outer loop
      vertex 175 83 4
      vertex 185 83 12
      vertex 175 83 15
    endloop
  endfacet
  facet normal 1 0 0
    outer loop
      vertex 175 83 4
      vertex 175 83 15
      vertex 175 80 15
    endloop
  endfacet
  facet normal 1 0 0
    outer loop
      vertex 175 66 5
      vertex 175 83 4
      vertex 175 80 5
    endloop
  endfacet
  facet normal 1 0 0
    outer loop
      vertex 175 80 5
      vertex 175 83 4
      vertex 175 80 15
    endloop
  endfacet
  facet normal 1 0 0
    outer loop
      vertex 175 64 4
      vertex 175 83 4
      vertex 175 66 5
    endloop
  endfacet
  facet normal 1 0 0
    outer loop
      vertex 175 64 15
      vertex 175 66 5
      vertex 175 66 15
    endloop
  endfacet
  facet normal 1 0 0
    outer loop
      vertex 175 64 4
      vertex 175 66 5
      vertex 175 64 15
    endloop
  endfacet
  facet normal 0 -1 0
    outer loop
      vertex 175 80 5
      vertex 175 80 15
      vertex 173 80 15
    endloop
  endfacet
  facet normal 0 -1 0
    outer loop
      vertex 170 80 6
      vertex 175 80 5
      vertex 173 80 6
    endloop
  endfacet
  facet normal 0 -1 0
    outer loop
      vertex 173 80 6
      vertex 175 80 5
      vertex 173 80 15
    endloop
  endfacet
  facet normal 0 -1 0
    outer loop
      vertex 170 80 5
      vertex 175 80 5
      vertex 170 80 6
    endloop
  endfacet
  facet normal -1 1.77321e-016 0
    outer loop
      vertex 173 98 15
      vertex 173 98 6
      vertex 173 80 15
    endloop
  endfacet
  facet normal -1 1.77321e-016 0
    outer loop
      vertex 173 80 15
      vertex 173 98 6
      vertex 173 80 6
    endloop
  endfacet
  facet normal -1.77321e-016 -1 0
    outer loop
      vertex 173 98 6
      vertex 173 98 15
      vertex 156 98 15
    endloop
  endfacet
  facet normal -1.77321e-016 -1 0
    outer loop
      vertex 156 98 6
      vertex 173 98 6
      vertex 156 98 15
    endloop
  endfacet
  facet normal 1 -1.77321e-016 0
    outer loop
      vertex 156 98 6
      vertex 156 98 15
      vertex 156 92 15
    endloop
  endfacet
  facet normal 1 -1.77321e-016 0
    outer loop
      vertex 156 92 6
      vertex 156 98 6
      vertex 156 92 15
    endloop
  endfacet
  facet normal 0 -1 0
    outer loop
      vertex 160 92 5
      vertex 160 92 6
      vertex 156 92 6
    endloop
  endfacet
  facet normal 0 -1 0
    outer loop
      vertex 152 92 6
      vertex 160 92 5
      vertex 156 92 6
    endloop
  endfacet
  facet normal 0 -1 0
    outer loop
      vertex 156 92 15
      vertex 152 92 15
      vertex 156 92 6
    endloop
  endfacet
  facet normal 0 -1 0
    outer loop
      vertex 152 92 15
      vertex 152 92 6
      vertex 156 92 6
    endloop
  endfacet
  facet normal 0 -1 0
    outer loop
      vertex 152 92 6
      vertex 150 92 6
      vertex 160 92 5
    endloop
  endfacet
  facet normal 0 -1 0
    outer loop
      vertex 150 92 6
      vertex 150 92 5
      vertex 160 92 5
    endloop
  endfacet
  facet normal -1 0 0
    outer loop
      vertex 152 97 15
      vertex 152 97 6
      vertex 152 92 15
    endloop
  endfacet
  facet normal -1 0 0
    outer loop
      vertex 152 92 15
      vertex 152 97 6
      vertex 152 92 6
    endloop
  endfacet
  facet normal 0 -1 0
    outer loop
      vertex 152 97 6
      vertex 152 97 15
      vertex 111 97 15
    endloop
  endfacet
  facet normal 0 -1 0
    outer loop
      vertex 111 97 6
      vertex 152 97 6
      vertex 111 97 15
    endloop
  endfacet
  facet normal 1 0 0
    outer loop
      vertex 111 97 6
      vertex 111 97 15
      vertex 111 82 15
    endloop
  endfacet
  facet normal 1 0 0
    outer loop
      vertex 111 82 6
      vertex 111 97 6
      vertex 111 82 15
    endloop
  endfacet
  facet normal 0 -1 0
    outer loop
      vertex 108 82 5
      vertex 115 82 5
      vertex 115 82 6
    endloop
  endfacet
  facet normal 0 -1 0
    outer loop
      vertex 111 82 15
      vertex 108 82 5
      vertex 111 82 6
    endloop
  endfacet
  facet normal 0 -1 0
    outer loop
      vertex 111 82 6
      vertex 108 82 5
      vertex 115 82 6
    endloop
  endfacet
  facet normal 0 -1 0
    outer loop
      vertex 108 82 15
      vertex 108 82 5
      vertex 111 82 15
    endloop
  endfacet
  facet normal -1 0 -1.77321e-016
    outer loop
      vertex 108 85 15
      vertex 108 82 5
      vertex 108 82 15
    endloop
  endfacet
  facet normal -1 0 -1.77321e-016
    outer loop
      vertex 108 85 2
      vertex 108 82 5
      vertex 108 85 15
    endloop
  endfacet
  facet normal -1 0 -1.77321e-016
    outer loop
      vertex 108 72 5
      vertex 108 82 5
      vertex 108 85 2
    endloop
  endfacet
  facet normal -1 0 -1.77321e-016
    outer loop
      vertex 108 72 5
      vertex 108 85 2
      vertex 108 70 2
    endloop
  endfacet
  facet normal -1 0 -1.77321e-016
    outer loop
      vertex 108 72 5
      vertex 108 70 2
      vertex 108 72 15
    endloop
  endfacet
  facet normal -1 0 -1.77321e-016
    outer loop
      vertex 108 70 2
      vertex 108 70 15
      vertex 108 72 15
    endloop
  endfacet
  facet normal 0 -1 0
    outer loop
      vertex 98 85 2
      vertex 108 85 2
      vertex 108 85 15
    endloop
  endfacet
  facet normal 0 -1 0
    outer loop
      vertex 98 85 15
      vertex 98 85 2
      vertex 108 85 15
    endloop
  endfacet
  facet normal 1 0 1.77321e-016
    outer loop
      vertex 98 70 2
      vertex 98 85 2
      vertex 98 85 15
    endloop
  endfacet
  facet normal 1 0 1.77321e-016
    outer loop
      vertex 98 70 15
      vertex 98 70 2
      vertex 98 85 15
    endloop
  endfacet
  facet normal 0 1 0
    outer loop
      vertex 108 70 2
      vertex 98 70 2
      vertex 108 70 15
    endloop
  endfacet
  facet normal 0 1 0
    outer loop
      vertex 108 70 15
      vertex 98 70 2
      vertex 98 70 15
    endloop
  endfacet
  facet normal 0 1 0
    outer loop
      vertex 111 72 6
      vertex 115 72 6
      vertex 115 72 5
    endloop
  endfacet
  facet normal 0 1 0
    outer loop
      vertex 111 72 6
      vertex 115 72 5
      vertex 108 72 5
    endloop
  endfacet
  facet normal 0 1 0
    outer loop
      vertex 111 72 6
      vertex 108 72 5
      vertex 111 72 15
    endloop
  endfacet
  facet normal 0 1 0
    outer loop
      vertex 108 72 5
      vertex 108 72 15
      vertex 111 72 15
    endloop
  endfacet
  facet normal 1 0 0
    outer loop
      vertex 111 72 6
      vertex 111 72 15
      vertex 111 70 15
    endloop
  endfacet
  facet normal 1 0 0
    outer loop
      vertex 111 70 6
      vertex 111 72 6
      vertex 111 70 15
    endloop
  endfacet
  facet normal 0 1 0
    outer loop
      vertex 140 70 15
      vertex 140 70 6
      vertex 111 70 15
    endloop
  endfacet
  facet normal 0 1 0
    outer loop
      vertex 111 70 15
      vertex 140 70 6
      vertex 111 70 6
    endloop
  endfacet
  facet normal 1 0 0
    outer loop
      vertex 140 73 5
      vertex 140 73 6
      vertex 140 70 6
    endloop
  endfacet
  facet normal 1 0 0
    outer loop
      vertex 140 3 15
      vertex 140 73 5
      vertex 140 70 6
    endloop
  endfacet
  facet normal 1 0 0
    outer loop
      vertex 140 70 15
      vertex 140 3 15
      vertex 140 70 6
    endloop
  endfacet
  facet normal 1 0 0
    outer loop
      vertex 140 3 15
      vertex 140 3 5
      vertex 140 73 5
    endloop
  endfacet
  facet normal 0 1 0
    outer loop
      vertex 151.5 3 15
      vertex 151.5 3 5
      vertex 140 3 15
    endloop
  endfacet
  facet normal 0 1 0
    outer loop
      vertex 140 3 15
      vertex 151.5 3 5
      vertex 140 3 5
    endloop
  endfacet
  facet normal 1 -1.22461e-016 0
    outer loop
      vertex 151.5 61.9 4
      vertex 151.5 61.9 15
      vertex 151.5 13 15
    endloop
  endfacet
  facet normal 1 -1.22461e-016 0
    outer loop
      vertex 151.5 3 5
      vertex 151.5 61.9 4
      vertex 151.5 13 5
    endloop
  endfacet
  facet normal 1 -1.22461e-016 0
    outer loop
      vertex 151.5 13 5
      vertex 151.5 61.9 4
      vertex 151.5 13 15
    endloop
  endfacet
  facet normal 1 -1.22461e-016 0
    outer loop
      vertex 151.5 2.9 4
      vertex 151.5 61.9 4
      vertex 151.5 3 5
    endloop
  endfacet
  facet normal 1 -1.22461e-016 0
    outer loop
      vertex 151.5 2.9 15
      vertex 151.5 3 5
      vertex 151.5 3 15
    endloop
  endfacet
  facet normal 1 -1.22461e-016 0
    outer loop
      vertex 151.5 2.9 4
      vertex 151.5 3 5
      vertex 151.5 2.9 15
    endloop
  endfacet
  facet normal 1.22461e-016 1 0
    outer loop
      vertex 175.68 2.9 6.5
      vertex 213 2.9 4
      vertex 151.5 2.9 4
    endloop
  endfacet
  facet normal 1.22461e-016 1 0
    outer loop
      vertex 188.78 2.9 6.5
      vertex 213 2.9 4
      vertex 175.68 2.9 6.5
    endloop
  endfacet
  facet normal 1.22461e-016 1 0
    outer loop
      vertex 151.5 2.9 15
      vertex 175.68 2.9 6.5
      vertex 151.5 2.9 4
    endloop
  endfacet
  facet normal 1.22461e-016 1 0
    outer loop
      vertex 198.2 2.9 6.5
      vertex 213 2.9 4
      vertex 188.78 2.9 6.5
    endloop
  endfacet
  facet normal 1.22461e-016 1 0
    outer loop
      vertex 213 2.9 15
      vertex 188.78 2.9 12.5
      vertex 151.5 2.9 15
    endloop
  endfacet
  facet normal 1.22461e-016 1 0
    outer loop
      vertex 198.2 2.9 6.5
      vertex 188.78 2.9 12.5
      vertex 198.2 2.9 10.3
    endloop
  endfacet
  facet normal 1.22461e-016 1 0
    outer loop
      vertex 188.78 2.9 12.5
      vertex 175.68 2.9 12.5
      vertex 151.5 2.9 15
    endloop
  endfacet
  facet normal 1.22461e-016 1 0
    outer loop
      vertex 188.78 2.9 12.5
      vertex 198.2 2.9 6.5
      vertex 188.78 2.9 6.5
    endloop
  endfacet
  facet normal 1.22461e-016 1 0
    outer loop
      vertex 213 2.9 15
      vertex 213 2.9 4
      vertex 206 2.9 6.5
    endloop
  endfacet
  facet normal 1.22461e-016 1 0
    outer loop
      vertex 213 2.9 15
      vertex 206 2.9 6.5
      vertex 206 2.9 10.3
    endloop
  endfacet
  facet normal 1.22461e-016 1 0
    outer loop
      vertex 213 2.9 15
      vertex 206 2.9 10.3
      vertex 188.78 2.9 12.5
    endloop
  endfacet
  facet normal 1.22461e-016 1 0
    outer loop
      vertex 206 2.9 10.3
      vertex 198.2 2.9 10.3
      vertex 188.78 2.9 12.5
    endloop
  endfacet
  facet normal 1.22461e-016 1 0
    outer loop
      vertex 175.68 2.9 6.5
      vertex 151.5 2.9 15
      vertex 175.68 2.9 12.5
    endloop
  endfacet
  facet normal 1.22461e-016 1 0
    outer loop
      vertex 206 2.9 6.5
      vertex 213 2.9 4
      vertex 198.2 2.9 6.5
    endloop
  endfacet
  facet normal -1 1.22461e-016 0
    outer loop
      vertex 213 61.9 15
      vertex 213 61.9 4
      vertex 213 2.9 15
    endloop
  endfacet
  facet normal -1 1.22461e-016 0
    outer loop
      vertex 213 2.9 15
      vertex 213 61.9 4
      vertex 213 2.9 4
    endloop
  endfacet
  facet normal -1.22461e-016 -1 0
    outer loop
      vertex 213 61.9 4
      vertex 213 61.9 15
      vertex 210 61.9 15
    endloop
  endfacet
  facet normal -1.22461e-016 -1 0
    outer loop
      vertex 151.5 61.9 15
      vertex 213 61.9 4
      vertex 200 61.9 15
    endloop
  endfacet
  facet normal -1.22461e-016 -1 0
    outer loop
      vertex 200 61.9 15
      vertex 213 61.9 4
      vertex 210 61.9 15
    endloop
  endfacet
  facet normal -1.22461e-016 -1 0
    outer loop
      vertex 151.5 61.9 4
      vertex 213 61.9 4
      vertex 151.5 61.9 15
    endloop
  endfacet
  facet normal 0 0 1
    outer loop
      vertex 200 64 15
      vertex 200 61.9 15
      vertex 210 61.9 15
    endloop
  endfacet
  facet normal 0 0 1
    outer loop
      vertex 210 64 15
      vertex 200 64 15
      vertex 210 61.9 15
    endloop
  endfacet
  facet normal 0 1 0
    outer loop
      vertex 210 64 15
      vertex 214 64 4
      vertex 200 64 15
    endloop
  endfacet
  facet normal 0 1 0
    outer loop
      vertex 200 64 15
      vertex 214 64 4
      vertex 175 64 15
    endloop
  endfacet
  facet normal 0 1 0
    outer loop
      vertex 214 64 15
      vertex 214 64 4
      vertex 210 64 15
    endloop
  endfacet
  facet normal 0 1 0
    outer loop
      vertex 175 64 15
      vertex 214 64 4
      vertex 175 64 4
    endloop
  endfacet
  facet normal -1 0 0
    outer loop
      vertex 214 83 15
      vertex 214 83 4
      vertex 214 64 15
    endloop
  endfacet
  facet normal -1 0 0
    outer loop
      vertex 214 64 15
      vertex 214 83 4
      vertex 214 64 4
    endloop
  endfacet
  facet normal -1 2.22045e-016 4.93038e-032
    outer loop
      vertex 190 90 15
      vertex 190 90 12
      vertex 190 83 15
    endloop
  endfacet
  facet normal -1 2.22045e-016 4.93038e-032
    outer loop
      vertex 190 83 15
      vertex 190 90 12
      vertex 190 83 12
    endloop
  endfacet
  facet normal 0 0 1
    outer loop
      vertex 220 45 15
      vertex 215 40 15
      vertex 220 40 15
    endloop
  endfacet
  facet normal 0 0 1
    outer loop
      vertex 220 40 15
      vertex 215 40 15
      vertex 220 35 15
    endloop
  endfacet
  facet normal 1.77321e-016 1 0
    outer loop
      vertex 138 3 15
      vertex 138 3 3
      vertex 97 3 15
    endloop
  endfacet
  facet normal 1.77321e-016 1 0
    outer loop
      vertex 97 3 15
      vertex 138 3 3
      vertex 97 3 3
    endloop
  endfacet
  facet normal 1 -1.77321e-016 0
    outer loop
      vertex 97 67 3
      vertex 97 67 15
      vertex 97 3 15
    endloop
  endfacet
  facet normal 1 -1.77321e-016 0
    outer loop
      vertex 97 3 3
      vertex 97 67 3
      vertex 97 3 15
    endloop
  endfacet
  facet normal -1 1.77321e-016 0
    outer loop
      vertex 138 67 15
      vertex 138 67 3
      vertex 138 3 15
    endloop
  endfacet
  facet normal -1 1.77321e-016 0
    outer loop
      vertex 138 3 15
      vertex 138 67 3
      vertex 138 3 3
    endloop
  endfacet
  facet normal -1.77321e-016 -1 0
    outer loop
      vertex 138 67 3
      vertex 138 67 15
      vertex 97 67 15
    endloop
  endfacet
  facet normal -1.77321e-016 -1 0
    outer loop
      vertex 97 67 3
      vertex 138 67 3
      vertex 97 67 15
    endloop
  endfacet
  facet normal -2.22045e-016 -1 -2.22045e-016
    outer loop
      vertex 185 90 12
      vertex 190 90 12
      vertex 190 90 15
    endloop
  endfacet
  facet normal -2.22045e-016 -1 -2.22045e-016
    outer loop
      vertex 185 90 15
      vertex 185 90 12
      vertex 190 90 15
    endloop
  endfacet
  facet normal -4.93038e-032 -2.22045e-016 1
    outer loop
      vertex 190 83 12
      vertex 190 90 12
      vertex 185 90 12
    endloop
  endfacet
  facet normal -4.93038e-032 -2.22045e-016 1
    outer loop
      vertex 185 83 12
      vertex 190 83 12
      vertex 185 90 12
    endloop
  endfacet
  facet normal 0 0 1
    outer loop
      vertex 214 64 4
      vertex 214 83 4
      vertex 175 83 4
    endloop
  endfacet
  facet normal 0 0 1
    outer loop
      vertex 175 64 4
      vertex 214 64 4
      vertex 175 83 4
    endloop
  endfacet
  facet normal 0 0 1
    outer loop
      vertex 150 70 15
      vertex 150 13 15
      vertex 151.5 13 15
    endloop
  endfacet
  facet normal 0 0 1
    outer loop
      vertex 156 64 15
      vertex 150 70 15
      vertex 151.5 61.9 15
    endloop
  endfacet
  facet normal 0 0 1
    outer loop
      vertex 151.5 61.9 15
      vertex 150 70 15
      vertex 151.5 13 15
    endloop
  endfacet
  facet normal 0 0 1
    outer loop
      vertex 152 74 15
      vertex 152 70 15
      vertex 156 74 15
    endloop
  endfacet
  facet normal 0 0 1
    outer loop
      vertex 200 61.9 15
      vertex 175 64 15
      vertex 151.5 61.9 15
    endloop
  endfacet
  facet normal 0 0 1
    outer loop
      vertex 173 66 15
      vertex 173 64 15
      vertex 175 64 15
    endloop
  endfacet
  facet normal 0 0 1
    outer loop
      vertex 175 64 15
      vertex 173 64 15
      vertex 151.5 61.9 15
    endloop
  endfacet
  facet normal 0 0 1
    outer loop
      vertex 173 64 15
      vertex 156 64 15
      vertex 151.5 61.9 15
    endloop
  endfacet
  facet normal 0 0 1
    outer loop
      vertex 175 64 15
      vertex 175 66 15
      vertex 173 66 15
    endloop
  endfacet
  facet normal 0 0 1
    outer loop
      vertex 200 64 15
      vertex 175 64 15
      vertex 200 61.9 15
    endloop
  endfacet
  facet normal 0 0 1
    outer loop
      vertex 156 64 15
      vertex 152 70 15
      vertex 150 70 15
    endloop
  endfacet
  facet normal 0 0 1
    outer loop
      vertex 156 64 15
      vertex 156 74 15
      vertex 152 70 15
    endloop
  endfacet
  facet normal 0 1 0
    outer loop
      vertex 173 66 6
      vertex 173 66 15
      vertex 175 66 15
    endloop
  endfacet
  facet normal 0 1 0
    outer loop
      vertex 173 66 6
      vertex 175 66 15
      vertex 175 66 5
    endloop
  endfacet
  facet normal 0 1 0
    outer loop
      vertex 173 66 6
      vertex 175 66 5
      vertex 170 66 6
    endloop
  endfacet
  facet normal 0 1 0
    outer loop
      vertex 175 66 5
      vertex 170 66 5
      vertex 170 66 6
    endloop
  endfacet
  facet normal 0 0 1
    outer loop
      vertex 175 66 5
      vertex 175 80 5
      vertex 170 80 5
    endloop
  endfacet
  facet normal 0 0 1
    outer loop
      vertex 170 66 5
      vertex 175 66 5
      vertex 170 80 5
    endloop
  endfacet
  facet normal 1 0 0
    outer loop
      vertex 170 80 5
      vertex 170 80 6
      vertex 170 66 6
    endloop
  endfacet
  facet normal 1 0 0
    outer loop
      vertex 170 66 5
      vertex 170 80 5
      vertex 170 66 6
    endloop
  endfacet
  facet normal 0 0 1
    outer loop
      vertex 173 64 6
      vertex 173 66 6
      vertex 170 66 6
    endloop
  endfacet
  facet normal 0 0 1
    outer loop
      vertex 160 74 6
      vertex 156 74 6
      vertex 170 66 6
    endloop
  endfacet
  facet normal 0 0 1
    outer loop
      vertex 156 74 6
      vertex 173 64 6
      vertex 170 66 6
    endloop
  endfacet
  facet normal 0 0 1
    outer loop
      vertex 173 80 6
      vertex 173 98 6
      vertex 170 80 6
    endloop
  endfacet
  facet normal 0 0 1
    outer loop
      vertex 173 98 6
      vertex 156 98 6
      vertex 170 80 6
    endloop
  endfacet
  facet normal 0 0 1
    outer loop
      vertex 160 92 6
      vertex 160 74 6
      vertex 170 66 6
    endloop
  endfacet
  facet normal 0 0 1
    outer loop
      vertex 170 80 6
      vertex 160 92 6
      vertex 170 66 6
    endloop
  endfacet
  facet normal 0 0 1
    outer loop
      vertex 170 80 6
      vertex 156 98 6
      vertex 160 92 6
    endloop
  endfacet
  facet normal 0 0 1
    outer loop
      vertex 156 74 6
      vertex 156 64 6
      vertex 173 64 6
    endloop
  endfacet
  facet normal 0 0 1
    outer loop
      vertex 156 92 6
      vertex 160 92 6
      vertex 156 98 6
    endloop
  endfacet
  facet normal -1 0 0
    outer loop
      vertex 160 92 6
      vertex 160 92 5
      vertex 160 74 6
    endloop
  endfacet
  facet normal -1 0 0
    outer loop
      vertex 160 74 6
      vertex 160 92 5
      vertex 160 74 5
    endloop
  endfacet
  facet normal 0 0 1
    outer loop
      vertex 160 74 5
      vertex 160 92 5
      vertex 150 92 5
    endloop
  endfacet
  facet normal 0 0 1
    outer loop
      vertex 150 74 5
      vertex 160 74 5
      vertex 150 92 5
    endloop
  endfacet
  facet normal 1 0 0
    outer loop
      vertex 150 92 5
      vertex 150 92 6
      vertex 150 74 6
    endloop
  endfacet
  facet normal 1 0 0
    outer loop
      vertex 150 74 5
      vertex 150 92 5
      vertex 150 74 6
    endloop
  endfacet
  facet normal 0 0 1
    outer loop
      vertex 152 74 6
      vertex 140 73 6
      vertex 150 73 6
    endloop
  endfacet
  facet normal 0 0 1
    outer loop
      vertex 150 74 6
      vertex 150 92 6
      vertex 140 73 6
    endloop
  endfacet
  facet normal 0 0 1
    outer loop
      vertex 140 70 6
      vertex 140 73 6
      vertex 111 97 6
    endloop
  endfacet
  facet normal 0 0 1
    outer loop
      vertex 150 70 6
      vertex 152 70 6
      vertex 150 73 6
    endloop
  endfacet
  facet normal 0 0 1
    outer loop
      vertex 152 70 6
      vertex 152 74 6
      vertex 150 73 6
    endloop
  endfacet
  facet normal 0 0 1
    outer loop
      vertex 152 74 6
      vertex 150 74 6
      vertex 140 73 6
    endloop
  endfacet
  facet normal 0 0 1
    outer loop
      vertex 150 92 6
      vertex 152 97 6
      vertex 140 73 6
    endloop
  endfacet
  facet normal 0 0 1
    outer loop
      vertex 115 72 6
      vertex 111 72 6
      vertex 140 70 6
    endloop
  endfacet
  facet normal 0 0 1
    outer loop
      vertex 152 92 6
      vertex 152 97 6
      vertex 150 92 6
    endloop
  endfacet
  facet normal 0 0 1
    outer loop
      vertex 152 97 6
      vertex 111 97 6
      vertex 140 73 6
    endloop
  endfacet
  facet normal 0 0 1
    outer loop
      vertex 111 97 6
      vertex 115 82 6
      vertex 140 70 6
    endloop
  endfacet
  facet normal 0 0 1
    outer loop
      vertex 111 97 6
      vertex 111 82 6
      vertex 115 82 6
    endloop
  endfacet
  facet normal 0 0 1
    outer loop
      vertex 111 72 6
      vertex 111 70 6
      vertex 140 70 6
    endloop
  endfacet
  facet normal 0 0 1
    outer loop
      vertex 115 82 6
      vertex 115 72 6
      vertex 140 70 6
    endloop
  endfacet
  facet normal 0 0 1
    outer loop
      vertex 115 72 5
      vertex 115 82 5
      vertex 108 82 5
    endloop
  endfacet
  facet normal 0 0 1
    outer loop
      vertex 108 72 5
      vertex 115 72 5
      vertex 108 82 5
    endloop
  endfacet
  facet normal -1 0 0
    outer loop
      vertex 115 82 6
      vertex 115 82 5
      vertex 115 72 6
    endloop
  endfacet
  facet normal -1 0 0
    outer loop
      vertex 115 72 6
      vertex 115 82 5
      vertex 115 72 5
    endloop
  endfacet
  facet normal -2.22045e-016 0 1
    outer loop
      vertex 108 70 2
      vertex 108 85 2
      vertex 98 85 2
    endloop
  endfacet
  facet normal -2.22045e-016 0 1
    outer loop
      vertex 98 70 2
      vertex 108 70 2
      vertex 98 85 2
    endloop
  endfacet
  facet normal 0 -1 0
    outer loop
      vertex 150 73 5
      vertex 150 73 6
      vertex 140 73 6
    endloop
  endfacet
  facet normal 0 -1 0
    outer loop
      vertex 140 73 5
      vertex 150 73 5
      vertex 140 73 6
    endloop
  endfacet
  facet normal 0 0 1
    outer loop
      vertex 151.5 3 5
      vertex 151.5 13 5
      vertex 150 13 5
    endloop
  endfacet
  facet normal 0 0 1
    outer loop
      vertex 140 73 5
      vertex 151.5 3 5
      vertex 150 13 5
    endloop
  endfacet
  facet normal 0 0 1
    outer loop
      vertex 150 73 5
      vertex 140 73 5
      vertex 150 13 5
    endloop
  endfacet
  facet normal 0 0 1
    outer loop
      vertex 140 73 5
      vertex 140 3 5
      vertex 151.5 3 5
    endloop
  endfacet
  facet normal 0 0 1
    outer loop
      vertex 213 2.9 4
      vertex 213 61.9 4
      vertex 151.5 61.9 4
    endloop
  endfacet
  facet normal 0 0 1
    outer loop
      vertex 151.5 2.9 4
      vertex 213 2.9 4
      vertex 151.5 61.9 4
    endloop
  endfacet
  facet normal 0 -1 0
    outer loop
      vertex 151.5 13 5
      vertex 151.5 13 15
      vertex 150 13 15
    endloop
  endfacet
  facet normal 0 -1 0
    outer loop
      vertex 150 13 5
      vertex 151.5 13 5
      vertex 150 13 15
    endloop
  endfacet
  facet normal 0 0 1
    outer loop
      vertex 188.78 1.3 6.5
      vertex 188.78 2.9 6.5
      vertex 175.68 2.9 6.5
    endloop
  endfacet
  facet normal 0 0 1
    outer loop
      vertex 175.68 1.3 6.5
      vertex 188.78 1.3 6.5
      vertex 175.68 2.9 6.5
    endloop
  endfacet
  facet normal 1 -1.22461e-016 0
    outer loop
      vertex 175.68 2.9 6.5
      vertex 175.68 2.9 12.5
      vertex 175.68 1.3 12.5
    endloop
  endfacet
  facet normal 1 -1.22461e-016 0
    outer loop
      vertex 175.68 1.3 6.5
      vertex 175.68 2.9 6.5
      vertex 175.68 1.3 12.5
    endloop
  endfacet
  facet normal 0 0 -1
    outer loop
      vertex 188.78 2.9 12.5
      vertex 188.78 1.3 12.5
      vertex 175.68 2.9 12.5
    endloop
  endfacet
  facet normal 0 0 -1
    outer loop
      vertex 175.68 2.9 12.5
      vertex 188.78 1.3 12.5
      vertex 175.68 1.3 12.5
    endloop
  endfacet
  facet normal -1 1.22461e-016 0
    outer loop
      vertex 188.78 2.9 12.5
      vertex 188.78 2.9 6.5
      vertex 188.78 1.3 12.5
    endloop
  endfacet
  facet normal -1 1.22461e-016 0
    outer loop
      vertex 188.78 1.3 12.5
      vertex 188.78 2.9 6.5
      vertex 188.78 1.3 6.5
    endloop
  endfacet
  facet normal 0 0 1
    outer loop
      vertex 138 3 3
      vertex 138 67 3
      vertex 97 67 3
    endloop
  endfacet
  facet normal 0 0 1
    outer loop
      vertex 97 3 3
      vertex 138 3 3
      vertex 97 67 3
    endloop
  endfacet
  facet normal -1 0 0
    outer loop
      vertex 150 70 15
      vertex 150 70 6
      vertex 150 13 15
    endloop
  endfacet
  facet normal -1 0 0
    outer loop
      vertex 150 73 5
      vertex 150 70 6
      vertex 150 73 6
    endloop
  endfacet
  facet normal -1 0 0
    outer loop
      vertex 150 13 15
      vertex 150 70 6
      vertex 150 73 5
    endloop
  endfacet
  facet normal -1 0 0
    outer loop
      vertex 150 13 15
      vertex 150 73 5
      vertex 150 13 5
    endloop
  endfacet
  facet normal 0 1 0
    outer loop
      vertex 152 70 15
      vertex 152 70 6
      vertex 150 70 15
    endloop
  endfacet
  facet normal 0 1 0
    outer loop
      vertex 150 70 15
      vertex 152 70 6
      vertex 150 70 6
    endloop
  endfacet
  facet normal -1 0 0
    outer loop
      vertex 152 74 15
      vertex 152 74 6
      vertex 152 70 15
    endloop
  endfacet
  facet normal -1 0 0
    outer loop
      vertex 152 70 15
      vertex 152 74 6
      vertex 152 70 6
    endloop
  endfacet
  facet normal 0 1 0
    outer loop
      vertex 152 74 6
      vertex 152 74 15
      vertex 156 74 15
    endloop
  endfacet
  facet normal 0 1 0
    outer loop
      vertex 152 74 6
      vertex 156 74 15
      vertex 156 74 6
    endloop
  endfacet
  facet normal 0 1 0
    outer loop
      vertex 152 74 6
      vertex 160 74 5
      vertex 150 74 6
    endloop
  endfacet
  facet normal 0 1 0
    outer loop
      vertex 156 74 6
      vertex 160 74 6
      vertex 160 74 5
    endloop
  endfacet
  facet normal 0 1 0
    outer loop
      vertex 156 74 6
      vertex 160 74 5
      vertex 152 74 6
    endloop
  endfacet
  facet normal 0 1 0
    outer loop
      vertex 160 74 5
      vertex 150 74 5
      vertex 150 74 6
    endloop
  endfacet
  facet normal 1 -1.77321e-016 0
    outer loop
      vertex 156 74 6
      vertex 156 74 15
      vertex 156 64 15
    endloop
  endfacet
  facet normal 1 -1.77321e-016 0
    outer loop
      vertex 156 64 6
      vertex 156 74 6
      vertex 156 64 15
    endloop
  endfacet
  facet normal 1.77321e-016 1 0
    outer loop
      vertex 173 64 15
      vertex 173 64 6
      vertex 156 64 15
    endloop
  endfacet
  facet normal 1.77321e-016 1 0
    outer loop
      vertex 156 64 15
      vertex 173 64 6
      vertex 156 64 6
    endloop
  endfacet
  facet normal -1 1.77321e-016 0
    outer loop
      vertex 173 66 15
      vertex 173 66 6
      vertex 173 64 15
    endloop
  endfacet
  facet normal -1 1.77321e-016 0
    outer loop
      vertex 173 64 15
      vertex 173 66 6
      vertex 173 64 6
    endloop
  endfacet
  facet normal 1.22461e-016 1 0
    outer loop
      vertex 188.78 1.3 12.5
      vertex 188.78 1.3 6.5
      vertex 175.68 1.3 12.5
    endloop
  endfacet
  facet normal 1.22461e-016 1 0
    outer loop
      vertex 175.68 1.3 12.5
      vertex 188.78 1.3 6.5
      vertex 175.68 1.3 6.5
    endloop
  endfacet
endsolid OpenSCAD_Model
