  0
SECTION
  2
HEADER
  9
$ACADVER
  1
AC1014
  9
$HANDSEED
  5
FFFF
  9
$MEASUREMENT
 70
     1
  0
ENDSEC
  0
SECTION
  2
TABLES
  0
TABLE
  2
VPORT
  5
8
330
0
100
AcDbSymbolTable
 70
     4
  0
VPORT
  5
2E
330
8
100
AcDbSymbolTableRecord
100
AcDbViewportTableRecord
  2
*ACTIVE
 70
     0
 10
0.0
 20
0.0
 11
1.0
 21
1.0
 12
210.0
 22
148.5
 13
0.0
 23
0.0
 14
10.0
 24
10.0
 15
10.0
 25
10.0
 16
0.0
 26
0.0
 36
1.0
 17
0.0
 27
0.0
 37
0.0
 40
341.0
 41
1.24
 42
50.0
 43
0.0
 44
0.0
 50
0.0
 51
0.0
 71
     0
 72
   100
 73
     1
 74
     3
 75
     0
 76
     0
 77
     0
 78
     0
  0
ENDTAB
  0
TABLE
  2
LTYPE
  5
5
330
0
100
AcDbSymbolTable
 70
     1
  0
LTYPE
  5
14
330
5
100
AcDbSymbolTableRecord
100
AcDbLinetypeTableRecord
  2
BYBLOCK
 70
     0
  3

 72
    65
 73
     0
 40
0.0
  0
LTYPE
  5
15
330
5
100
AcDbSymbolTableRecord
100
AcDbLinetypeTableRecord
  2
BYLAYER
 70
     0
  3

 72
    65
 73
     0
 40
0.0
  0
LTYPE
  5
16
330
5
100
AcDbSymbolTableRecord
100
AcDbLinetypeTableRecord
  2
CONTINUOUS
 70
     0
  3
Solid line
 72
    65
 73
     0
 40
0.0
  0
ENDTAB
  0
TABLE
  2
LAYER
  5
2
100
AcDbSymbolTable
 70
1
  0
LAYER
  5
50
100
AcDbSymbolTableRecord
100
AcDbLayerTableRecord
  2
0
 70
0
  6
CONTINUOUS
  0
ENDTAB
  0
TABLE
  2
STYLE
  5
3
330
0
100
AcDbSymbolTable
 70
     1
  0
STYLE
  5
11
330
3
100
AcDbSymbolTableRecord
100
AcDbTextStyleTableRecord
  2
STANDARD
 70
     0
 40
0.0
 41
1.0
 50
0.0
 71
     0
 42
2.5
  3
txt
  4

  0
ENDTAB
  0
TABLE
  2
VIEW
  5
6
330
0
100
AcDbSymbolTable
 70
     0
  0
ENDTAB
  0
TABLE
  2
UCS
  5
7
330
0
100
AcDbSymbolTable
 70
     0
  0
ENDTAB
  0
TABLE
  2
APPID
  5
9
330
0
100
AcDbSymbolTable
 70
     2
  0
APPID
  5
12
330
9
100
AcDbSymbolTableRecord
100
AcDbRegAppTableRecord
  2
ACAD
 70
     0
  0
ENDTAB
  0
TABLE
  2
DIMSTYLE
  5
A
330
0
100
AcDbSymbolTable
 70
     1
  0
DIMSTYLE
105
27
330
A
100
AcDbSymbolTableRecord
100
AcDbDimStyleTableRecord
  2
ISO-25
 70
     0
  3

  4

  5

  6

  7

 40
1.0
 41
2.5
 42
0.625
 43
3.75
 44
1.25
 45
0.0
 46
0.0
 47
0.0
 48
0.0
140
2.5
141
2.5
142
0.0
143
0.03937007874016
144
1.0
145
0.0
146
1.0
147
0.625
 71
     0
 72
     0
 73
     0
 74
     0
 75
     0
 76
     0
 77
     1
 78
     8
170
     0
171
     3
172
     1
173
     0
174
     0
175
     0
176
     0
177
     0
178
     0
270
     2
271
     2
272
     2
273
     2
274
     3
340
11
275
     0
280
     0
281
     0
282
     0
283
     0
284
     8
285
     0
286
     0
287
     3
288
     0
  0
ENDTAB
  0
TABLE
  2
BLOCK_RECORD
  5
1
330
0
100
AcDbSymbolTable
 70
     1
  0
BLOCK_RECORD
  5
1F
330
1
100
AcDbSymbolTableRecord
100
AcDbBlockTableRecord
  2
*MODEL_SPACE
  0
BLOCK_RECORD
  5
1B
330
1
100
AcDbSymbolTableRecord
100
AcDbBlockTableRecord
  2
*PAPER_SPACE
  0
ENDTAB
  0
ENDSEC
  0
SECTION
  2
BLOCKS
  0
BLOCK
  5
20
330
1F
100
AcDbEntity
  8
0
100
AcDbBlockBegin
  2
*MODEL_SPACE
 70
     0
 10
0.0
 20
0.0
 30
0.0
  3
*MODEL_SPACE
  1

  0
ENDBLK
  5
21
330
1F
100
AcDbEntity
  8
0
100
AcDbBlockEnd
  0
BLOCK
  5
1C
330
1B
100
AcDbEntity
 67
     1
  8
0
100
AcDbBlockBegin
  2
*PAPER_SPACE
  1

  0
ENDBLK
  5
1D
330
1B
100
AcDbEntity
 67
     1
  8
0
100
AcDbBlockEnd
  0
ENDSEC
  0
SECTION
  2
ENTITIES
  0
LWPOLYLINE
  5
100
100
AcDbEntity
  8
0
 62
7
100
AcDbPolyline
 90
33
 70
0
 10
30.916720
 20
242.456472
 30
0.0
 10
694.223832
 20
242.456472
 30
0.0
 10
695.706352
 20
242.533007
 30
0.0
 10
697.171864
 20
242.765448
 30
0.0
 10
698.603360
 20
243.150960
 30
0.0
 10
699.989504
 20
243.681039
 30
0.0
 10
701.310448
 20
244.355685
 30
0.0
 10
702.554856
 20
245.163558
 30
0.0
 10
703.708552
 20
246.096157
 30
0.0
 10
704.757376
 20
247.144976
 30
0.0
 10
705.689976
 20
248.298677
 30
0.0
 10
706.497848
 20
249.543086
 30
0.0
 10
707.172496
 20
250.864031
 30
0.0
 10
707.702568
 20
252.250173
 30
0.0
 10
708.088080
 20
253.681669
 30
0.0
 10
708.320528
 20
255.147181
 30
0.0
 10
708.397088
 20
256.629700
 30
0.0
 10
708.397056
 20
1107.023432
 30
0.0
 10
708.320496
 20
1108.505912
 30
0.0
 10
708.088080
 20
1109.971432
 30
0.0
 10
707.702568
 20
1111.402952
 30
0.0
 10
707.172496
 20
1112.789032
 30
0.0
 10
706.497848
 20
1114.109992
 30
0.0
 10
705.689976
 20
1115.354392
 30
0.0
 10
704.757376
 20
1116.508152
 30
0.0
 10
703.708552
 20
1117.556952
 30
0.0
 10
702.554856
 20
1118.489512
 30
0.0
 10
701.310448
 20
1119.297432
 30
0.0
 10
699.989504
 20
1119.972072
 30
0.0
 10
698.603360
 20
1120.502152
 30
0.0
 10
697.171864
 20
1120.887672
 30
0.0
 10
695.706352
 20
1121.120072
 30
0.0
 10
694.223832
 20
1121.196872
 30
0.0
  0
LWPOLYLINE
  5
101
100
AcDbEntity
  8
0
 62
7
100
AcDbPolyline
 90
3
 70
0
 10
694.223832
 20
1121.196632
 30
0.0
 10
30.916720
 20
1121.196632
 30
0.0
 10
29.434240
 20
1121.119832
 30
0.0
  0
LWPOLYLINE
  5
102
100
AcDbEntity
  8
0
 62
7
100
AcDbPolyline
 90
15
 70
0
 10
29.434240
 20
1121.120072
 30
0.0
 10
27.968720
 20
1120.887672
 30
0.0
 10
26.537200
 20
1120.502152
 30
0.0
 10
25.151040
 20
1119.972072
 30
0.0
 10
23.830160
 20
1119.297432
 30
0.0
 10
22.585760
 20
1118.489512
 30
0.0
 10
21.432000
 20
1117.556952
 30
0.0
 10
20.383200
 20
1116.508152
 30
0.0
 10
19.450640
 20
1115.354392
 30
0.0
 10
18.642720
 20
1114.109992
 30
0.0
 10
17.968080
 20
1112.789032
 30
0.0
 10
17.438000
 20
1111.402952
 30
0.0
 10
17.052480
 20
1109.971432
 30
0.0
 10
16.820080
 20
1108.505912
 30
0.0
 10
16.743280
 20
1107.023432
 30
0.0
  0
LWPOLYLINE
  5
103
100
AcDbEntity
  8
0
 62
7
100
AcDbPolyline
 90
39
 70
0
 10
16.743520
 20
1107.023432
 30
0.0
 10
16.743520
 20
880.251744
 30
0.0
 10
41.558000
 20
880.251744
 30
0.0
 10
41.421920
 20
880.421824
 30
0.0
 10
41.161120
 20
880.818680
 30
0.0
 10
40.945760
 20
881.241040
 30
0.0
 10
40.775680
 20
881.686080
 30
0.0
 10
40.653760
 20
882.142456
 30
0.0
 10
40.580160
 20
882.613008
 30
0.0
 10
40.554480
 20
883.086392
 30
0.0
 10
40.580160
 20
883.559776
 30
0.0
 10
40.653680
 20
884.030328
 30
0.0
 10
40.775680
 20
884.486704
 30
0.0
 10
40.945760
 20
884.931744
 30
0.0
 10
41.161120
 20
885.354112
 30
0.0
 10
41.421920
 20
885.750960
 30
0.0
 10
41.719600
 20
886.122296
 30
0.0
 10
42.054080
 20
886.456784
 30
0.0
 10
42.425440
 20
886.754424
 30
0.0
 10
42.822240
 20
887.015216
 30
0.0
 10
43.244640
 20
887.230648
 30
0.0
 10
43.689680
 20
887.400720
 30
0.0
 10
44.146000
 20
887.522616
 30
0.0
 10
44.616560
 20
887.596296
 30
0.0
 10
45.090000
 20
887.621832
 30
0.0
 10
45.563360
 20
887.596304
 30
0.0
 10
46.033920
 20
887.522632
 30
0.0
 10
46.490320
 20
887.400720
 30
0.0
 10
46.935360
 20
887.230648
 30
0.0
 10
47.357680
 20
887.015216
 30
0.0
 10
47.754560
 20
886.754424
 30
0.0
 10
48.125840
 20
886.456784
 30
0.0
 10
48.460400
 20
886.122296
 30
0.0
 10
48.758000
 20
885.750960
 30
0.0
 10
49.018800
 20
885.354112
 30
0.0
 10
49.234240
 20
884.931744
 30
0.0
 10
49.404320
 20
884.486704
 30
0.0
 10
49.526160
 20
884.030328
 30
0.0
 10
49.599760
 20
883.559776
 30
0.0
  0
LWPOLYLINE
  5
104
100
AcDbEntity
  8
0
 62
7
100
AcDbPolyline
 90
4
 70
0
 10
49.599920
 20
883.559776
 30
0.0
 10
49.625520
 20
883.086392
 30
0.0
 10
49.599840
 20
882.613008
 30
0.0
 10
49.526320
 20
882.142456
 30
0.0
  0
LWPOLYLINE
  5
105
100
AcDbEntity
  8
0
 62
7
100
AcDbPolyline
 90
105
 70
0
 10
49.526160
 20
882.142456
 30
0.0
 10
49.404320
 20
881.686080
 30
0.0
 10
49.234240
 20
881.241040
 30
0.0
 10
49.018800
 20
880.818680
 30
0.0
 10
48.758000
 20
880.421824
 30
0.0
 10
48.621920
 20
880.251744
 30
0.0
 10
282.502888
 20
880.251744
 30
0.0
 10
282.366824
 20
880.421824
 30
0.0
 10
282.106040
 20
880.818680
 30
0.0
 10
281.890600
 20
881.241040
 30
0.0
 10
281.720528
 20
881.686080
 30
0.0
 10
281.598632
 20
882.142456
 30
0.0
 10
281.524952
 20
882.613008
 30
0.0
 10
281.499416
 20
883.086392
 30
0.0
 10
281.524944
 20
883.559776
 30
0.0
 10
281.598616
 20
884.030328
 30
0.0
 10
281.720528
 20
884.486704
 30
0.0
 10
281.890600
 20
884.931744
 30
0.0
 10
282.106040
 20
885.354112
 30
0.0
 10
282.366824
 20
885.750960
 30
0.0
 10
282.664464
 20
886.122296
 30
0.0
 10
282.998952
 20
886.456784
 30
0.0
 10
283.370288
 20
886.754424
 30
0.0
 10
283.767136
 20
887.015216
 30
0.0
 10
284.189504
 20
887.230648
 30
0.0
 10
284.634544
 20
887.400720
 30
0.0
 10
285.090920
 20
887.522616
 30
0.0
 10
285.561472
 20
887.596296
 30
0.0
 10
286.034856
 20
887.621832
 30
0.0
 10
286.508240
 20
887.596304
 30
0.0
 10
286.978792
 20
887.522632
 30
0.0
 10
287.435168
 20
887.400720
 30
0.0
 10
287.880208
 20
887.230648
 30
0.0
 10
288.302568
 20
887.015216
 30
0.0
 10
288.699424
 20
886.754424
 30
0.0
 10
289.070760
 20
886.456784
 30
0.0
 10
289.405248
 20
886.122296
 30
0.0
 10
289.702888
 20
885.750960
 30
0.0
 10
289.963672
 20
885.354112
 30
0.0
 10
290.179104
 20
884.931744
 30
0.0
 10
290.349184
 20
884.486704
 30
0.0
 10
290.471072
 20
884.030328
 30
0.0
 10
290.544752
 20
883.559776
 30
0.0
 10
290.570296
 20
883.086392
 30
0.0
 10
290.544768
 20
882.613008
 30
0.0
 10
290.471096
 20
882.142456
 30
0.0
 10
290.349184
 20
881.686080
 30
0.0
 10
290.179104
 20
881.241040
 30
0.0
 10
289.963672
 20
880.818680
 30
0.0
 10
289.702888
 20
880.421824
 30
0.0
 10
289.566824
 20
880.251744
 30
0.0
 10
300.208080
 20
880.251744
 30
0.0
 10
300.208080
 20
483.401352
 30
0.0
 10
289.566824
 20
483.401352
 30
0.0
 10
289.702888
 20
483.231272
 30
0.0
 10
289.963672
 20
482.834424
 30
0.0
 10
290.179104
 20
482.412064
 30
0.0
 10
290.349184
 20
481.967024
 30
0.0
 10
290.471072
 20
481.510648
 30
0.0
 10
290.544752
 20
481.040096
 30
0.0
 10
290.570296
 20
480.566704
 30
0.0
 10
290.544768
 20
480.093320
 30
0.0
 10
290.471096
 20
479.622768
 30
0.0
 10
290.349184
 20
479.166392
 30
0.0
 10
290.179104
 20
478.721352
 30
0.0
 10
289.963672
 20
478.298992
 30
0.0
 10
289.702888
 20
477.902144
 30
0.0
 10
289.405248
 20
477.530800
 30
0.0
 10
289.070760
 20
477.196312
 30
0.0
 10
288.699424
 20
476.898680
 30
0.0
 10
288.302568
 20
476.637888
 30
0.0
 10
287.880208
 20
476.422456
 30
0.0
 10
287.435168
 20
476.252376
 30
0.0
 10
286.978792
 20
476.130488
 30
0.0
 10
286.508240
 20
476.056808
 30
0.0
 10
286.034856
 20
476.031264
 30
0.0
 10
285.561472
 20
476.056792
 30
0.0
 10
285.090920
 20
476.130464
 30
0.0
 10
284.634544
 20
476.252376
 30
0.0
 10
284.189504
 20
476.422456
 30
0.0
 10
283.767136
 20
476.637888
 30
0.0
 10
283.370288
 20
476.898680
 30
0.0
 10
282.998952
 20
477.196312
 30
0.0
 10
282.664464
 20
477.530800
 30
0.0
 10
282.366824
 20
477.902144
 30
0.0
 10
282.106040
 20
478.298992
 30
0.0
 10
281.890600
 20
478.721352
 30
0.0
 10
281.720528
 20
479.166392
 30
0.0
 10
281.598632
 20
479.622768
 30
0.0
 10
281.524952
 20
480.093320
 30
0.0
 10
281.499416
 20
480.566704
 30
0.0
 10
281.524944
 20
481.040096
 30
0.0
 10
281.598616
 20
481.510648
 30
0.0
 10
281.720528
 20
481.967024
 30
0.0
 10
281.890600
 20
482.412064
 30
0.0
 10
282.106040
 20
482.834424
 30
0.0
 10
282.366824
 20
483.231272
 30
0.0
 10
282.502888
 20
483.401352
 30
0.0
 10
48.621920
 20
483.401352
 30
0.0
 10
48.758000
 20
483.231272
 30
0.0
 10
49.018800
 20
482.834424
 30
0.0
 10
49.234240
 20
482.412064
 30
0.0
 10
49.404320
 20
481.967024
 30
0.0
 10
49.526160
 20
481.510648
 30
0.0
 10
49.599760
 20
481.040096
 30
0.0
  0
LWPOLYLINE
  5
106
100
AcDbEntity
  8
0
 62
7
100
AcDbPolyline
 90
4
 70
0
 10
49.599920
 20
481.040096
 30
0.0
 10
49.625520
 20
480.566704
 30
0.0
 10
49.599840
 20
480.093320
 30
0.0
 10
49.526320
 20
479.622768
 30
0.0
  0
LWPOLYLINE
  5
107
100
AcDbEntity
  8
0
 62
7
100
AcDbPolyline
 90
39
 70
0
 10
49.526160
 20
479.622768
 30
0.0
 10
49.404320
 20
479.166392
 30
0.0
 10
49.234240
 20
478.721352
 30
0.0
 10
49.018800
 20
478.298992
 30
0.0
 10
48.758000
 20
477.902144
 30
0.0
 10
48.460400
 20
477.530800
 30
0.0
 10
48.125840
 20
477.196312
 30
0.0
 10
47.754560
 20
476.898680
 30
0.0
 10
47.357680
 20
476.637888
 30
0.0
 10
46.935360
 20
476.422456
 30
0.0
 10
46.490320
 20
476.252376
 30
0.0
 10
46.033920
 20
476.130488
 30
0.0
 10
45.563360
 20
476.056808
 30
0.0
 10
45.090000
 20
476.031264
 30
0.0
 10
44.616560
 20
476.056792
 30
0.0
 10
44.146000
 20
476.130464
 30
0.0
 10
43.689680
 20
476.252376
 30
0.0
 10
43.244640
 20
476.422456
 30
0.0
 10
42.822240
 20
476.637888
 30
0.0
 10
42.425440
 20
476.898680
 30
0.0
 10
42.054080
 20
477.196312
 30
0.0
 10
41.719600
 20
477.530800
 30
0.0
 10
41.421920
 20
477.902144
 30
0.0
 10
41.161120
 20
478.298992
 30
0.0
 10
40.945760
 20
478.721352
 30
0.0
 10
40.775680
 20
479.166392
 30
0.0
 10
40.653760
 20
479.622768
 30
0.0
 10
40.580160
 20
480.093320
 30
0.0
 10
40.554480
 20
480.566704
 30
0.0
 10
40.580160
 20
481.040096
 30
0.0
 10
40.653680
 20
481.510648
 30
0.0
 10
40.775680
 20
481.967024
 30
0.0
 10
40.945760
 20
482.412064
 30
0.0
 10
41.161120
 20
482.834424
 30
0.0
 10
41.421920
 20
483.231272
 30
0.0
 10
41.558000
 20
483.401352
 30
0.0
 10
16.743520
 20
483.401352
 30
0.0
 10
16.743520
 20
256.629700
 30
0.0
 10
16.820320
 20
255.147181
 30
0.0
  0
LWPOLYLINE
  5
108
100
AcDbEntity
  8
0
 62
7
100
AcDbPolyline
 90
15
 70
0
 10
16.820080
 20
255.147181
 30
0.0
 10
17.052480
 20
253.681669
 30
0.0
 10
17.438000
 20
252.250173
 30
0.0
 10
17.968080
 20
250.864031
 30
0.0
 10
18.642720
 20
249.543086
 30
0.0
 10
19.450640
 20
248.298677
 30
0.0
 10
20.383200
 20
247.144976
 30
0.0
 10
21.432000
 20
246.096157
 30
0.0
 10
22.585760
 20
245.163558
 30
0.0
 10
23.830160
 20
244.355685
 30
0.0
 10
25.151040
 20
243.681039
 30
0.0
 10
26.537200
 20
243.150960
 30
0.0
 10
27.968720
 20
242.765448
 30
0.0
 10
29.434240
 20
242.533007
 30
0.0
 10
30.916720
 20
242.456472
 30
0.0
  0
ENDSEC
  0
SECTION
  2
OBJECTS
  0
DICTIONARY
  5
C
330
0
100
AcDbDictionary
  3
ACAD_GROUP
350
D
  3
ACAD_MLINESTYLE
350
17
  0
DICTIONARY
  5
D
330
C
100
AcDbDictionary
  0
DICTIONARY
  5
1A
330
C
100
AcDbDictionary
  0
DICTIONARY
  5
17
330
C
100
AcDbDictionary
  3
STANDARD
350
18
  0
DICTIONARY
  5
19
330
C
100
AcDbDictionary
  0
ENDSEC
  0
EOF
